%TF.GenerationSoftware,KiCad,Pcbnew,7.0.6-0*%
%TF.CreationDate,2023-10-30T11:37:55+11:00*%
%TF.ProjectId,controllino-can,636f6e74-726f-46c6-9c69-6e6f2d63616e,rev?*%
%TF.SameCoordinates,Original*%
%TF.FileFunction,Soldermask,Top*%
%TF.FilePolarity,Negative*%
%FSLAX46Y46*%
G04 Gerber Fmt 4.6, Leading zero omitted, Abs format (unit mm)*
G04 Created by KiCad (PCBNEW 7.0.6-0) date 2023-10-30 11:37:55*
%MOMM*%
%LPD*%
G01*
G04 APERTURE LIST*
G04 Aperture macros list*
%AMRoundRect*
0 Rectangle with rounded corners*
0 $1 Rounding radius*
0 $2 $3 $4 $5 $6 $7 $8 $9 X,Y pos of 4 corners*
0 Add a 4 corners polygon primitive as box body*
4,1,4,$2,$3,$4,$5,$6,$7,$8,$9,$2,$3,0*
0 Add four circle primitives for the rounded corners*
1,1,$1+$1,$2,$3*
1,1,$1+$1,$4,$5*
1,1,$1+$1,$6,$7*
1,1,$1+$1,$8,$9*
0 Add four rect primitives between the rounded corners*
20,1,$1+$1,$2,$3,$4,$5,0*
20,1,$1+$1,$4,$5,$6,$7,0*
20,1,$1+$1,$6,$7,$8,$9,0*
20,1,$1+$1,$8,$9,$2,$3,0*%
G04 Aperture macros list end*
%ADD10RoundRect,0.250000X0.450000X-0.350000X0.450000X0.350000X-0.450000X0.350000X-0.450000X-0.350000X0*%
%ADD11RoundRect,0.100000X-0.100000X0.637500X-0.100000X-0.637500X0.100000X-0.637500X0.100000X0.637500X0*%
%ADD12R,1.800000X1.800000*%
%ADD13C,1.800000*%
%ADD14RoundRect,0.250000X-0.350000X-0.450000X0.350000X-0.450000X0.350000X0.450000X-0.350000X0.450000X0*%
%ADD15RoundRect,0.243750X0.456250X-0.243750X0.456250X0.243750X-0.456250X0.243750X-0.456250X-0.243750X0*%
%ADD16RoundRect,0.250000X-0.475000X0.337500X-0.475000X-0.337500X0.475000X-0.337500X0.475000X0.337500X0*%
%ADD17RoundRect,0.250000X0.475000X-0.337500X0.475000X0.337500X-0.475000X0.337500X-0.475000X-0.337500X0*%
%ADD18R,1.300000X1.100000*%
%ADD19RoundRect,0.150000X0.150000X-0.825000X0.150000X0.825000X-0.150000X0.825000X-0.150000X-0.825000X0*%
%ADD20R,1.700000X1.700000*%
%ADD21O,1.700000X1.700000*%
G04 APERTURE END LIST*
D10*
%TO.C,R6*%
X72771000Y-60706000D03*
X72771000Y-58706000D03*
%TD*%
D11*
%TO.C,U1*%
X75950000Y-66622500D03*
X75300000Y-66622500D03*
X74650000Y-66622500D03*
X74000000Y-66622500D03*
X73350000Y-66622500D03*
X72700000Y-66622500D03*
X72050000Y-66622500D03*
X71400000Y-66622500D03*
X70750000Y-66622500D03*
X70100000Y-66622500D03*
X70100000Y-72347500D03*
X70750000Y-72347500D03*
X71400000Y-72347500D03*
X72050000Y-72347500D03*
X72700000Y-72347500D03*
X73350000Y-72347500D03*
X74000000Y-72347500D03*
X74650000Y-72347500D03*
X75300000Y-72347500D03*
X75950000Y-72347500D03*
%TD*%
D12*
%TO.C,J5*%
X79883000Y-43870500D03*
D13*
X74883000Y-47370500D03*
X79883000Y-50870500D03*
X74883000Y-54370500D03*
%TD*%
D14*
%TO.C,R1*%
X78629000Y-60198000D03*
X80629000Y-60198000D03*
%TD*%
D15*
%TO.C,D3*%
X70612000Y-60438000D03*
X70612000Y-58563000D03*
%TD*%
D10*
%TO.C,R4*%
X77851000Y-72374000D03*
X77851000Y-70374000D03*
%TD*%
D16*
%TO.C,C8*%
X74930000Y-58668500D03*
X74930000Y-60743500D03*
%TD*%
D17*
%TO.C,C9*%
X70612000Y-64405000D03*
X70612000Y-62330000D03*
%TD*%
D18*
%TO.C,Y2*%
X74965500Y-62648500D03*
X72665500Y-62648500D03*
X72665500Y-64448500D03*
X74965500Y-64448500D03*
%TD*%
D19*
%TO.C,U2*%
X77597000Y-68023000D03*
X78867000Y-68023000D03*
X80137000Y-68023000D03*
X81407000Y-68023000D03*
X81407000Y-63073000D03*
X80137000Y-63073000D03*
X78867000Y-63073000D03*
X77597000Y-63073000D03*
%TD*%
D20*
%TO.C,J2*%
X65151000Y-41783000D03*
D21*
X67691000Y-41783000D03*
X65151000Y-44323000D03*
X67691000Y-44323000D03*
X65151000Y-46863000D03*
X67691000Y-46863000D03*
X65151000Y-49403000D03*
X67691000Y-49403000D03*
X65151000Y-51943000D03*
X67691000Y-51943000D03*
X65151000Y-54483000D03*
X67691000Y-54483000D03*
X65151000Y-57023000D03*
X67691000Y-57023000D03*
X65151000Y-59563000D03*
X67691000Y-59563000D03*
X65151000Y-62103000D03*
X67691000Y-62103000D03*
X65151000Y-64643000D03*
X67691000Y-64643000D03*
X65151000Y-67183000D03*
X67691000Y-67183000D03*
X65151000Y-69723000D03*
X67691000Y-69723000D03*
X65151000Y-72263000D03*
X67691000Y-72263000D03*
%TD*%
M02*
