%TF.GenerationSoftware,KiCad,Pcbnew,7.0.6-0*%
%TF.CreationDate,2023-10-30T11:37:55+11:00*%
%TF.ProjectId,controllino-can,636f6e74-726f-46c6-9c69-6e6f2d63616e,rev?*%
%TF.SameCoordinates,Original*%
%TF.FileFunction,Copper,L1,Top*%
%TF.FilePolarity,Positive*%
%FSLAX46Y46*%
G04 Gerber Fmt 4.6, Leading zero omitted, Abs format (unit mm)*
G04 Created by KiCad (PCBNEW 7.0.6-0) date 2023-10-30 11:37:55*
%MOMM*%
%LPD*%
G01*
G04 APERTURE LIST*
G04 Aperture macros list*
%AMRoundRect*
0 Rectangle with rounded corners*
0 $1 Rounding radius*
0 $2 $3 $4 $5 $6 $7 $8 $9 X,Y pos of 4 corners*
0 Add a 4 corners polygon primitive as box body*
4,1,4,$2,$3,$4,$5,$6,$7,$8,$9,$2,$3,0*
0 Add four circle primitives for the rounded corners*
1,1,$1+$1,$2,$3*
1,1,$1+$1,$4,$5*
1,1,$1+$1,$6,$7*
1,1,$1+$1,$8,$9*
0 Add four rect primitives between the rounded corners*
20,1,$1+$1,$2,$3,$4,$5,0*
20,1,$1+$1,$4,$5,$6,$7,0*
20,1,$1+$1,$6,$7,$8,$9,0*
20,1,$1+$1,$8,$9,$2,$3,0*%
G04 Aperture macros list end*
%TA.AperFunction,SMDPad,CuDef*%
%ADD10RoundRect,0.250000X0.450000X-0.350000X0.450000X0.350000X-0.450000X0.350000X-0.450000X-0.350000X0*%
%TD*%
%TA.AperFunction,SMDPad,CuDef*%
%ADD11RoundRect,0.100000X-0.100000X0.637500X-0.100000X-0.637500X0.100000X-0.637500X0.100000X0.637500X0*%
%TD*%
%TA.AperFunction,ComponentPad*%
%ADD12R,1.800000X1.800000*%
%TD*%
%TA.AperFunction,ComponentPad*%
%ADD13C,1.800000*%
%TD*%
%TA.AperFunction,SMDPad,CuDef*%
%ADD14RoundRect,0.250000X-0.350000X-0.450000X0.350000X-0.450000X0.350000X0.450000X-0.350000X0.450000X0*%
%TD*%
%TA.AperFunction,SMDPad,CuDef*%
%ADD15RoundRect,0.243750X0.456250X-0.243750X0.456250X0.243750X-0.456250X0.243750X-0.456250X-0.243750X0*%
%TD*%
%TA.AperFunction,SMDPad,CuDef*%
%ADD16RoundRect,0.250000X-0.475000X0.337500X-0.475000X-0.337500X0.475000X-0.337500X0.475000X0.337500X0*%
%TD*%
%TA.AperFunction,SMDPad,CuDef*%
%ADD17RoundRect,0.250000X0.475000X-0.337500X0.475000X0.337500X-0.475000X0.337500X-0.475000X-0.337500X0*%
%TD*%
%TA.AperFunction,SMDPad,CuDef*%
%ADD18R,1.300000X1.100000*%
%TD*%
%TA.AperFunction,SMDPad,CuDef*%
%ADD19RoundRect,0.150000X0.150000X-0.825000X0.150000X0.825000X-0.150000X0.825000X-0.150000X-0.825000X0*%
%TD*%
%TA.AperFunction,ComponentPad*%
%ADD20R,1.700000X1.700000*%
%TD*%
%TA.AperFunction,ComponentPad*%
%ADD21O,1.700000X1.700000*%
%TD*%
%TA.AperFunction,ViaPad*%
%ADD22C,0.800000*%
%TD*%
%TA.AperFunction,Conductor*%
%ADD23C,0.300000*%
%TD*%
%TA.AperFunction,Conductor*%
%ADD24C,0.500000*%
%TD*%
%TA.AperFunction,Conductor*%
%ADD25C,1.000000*%
%TD*%
%TA.AperFunction,Conductor*%
%ADD26C,0.200000*%
%TD*%
G04 APERTURE END LIST*
D10*
%TO.P,R6,1*%
%TO.N,Net-(D3-A)*%
X72771000Y-60706000D03*
%TO.P,R6,2*%
%TO.N,+5V*%
X72771000Y-58706000D03*
%TD*%
D11*
%TO.P,U1,1,TXCAN*%
%TO.N,/CANTX*%
X75950000Y-66622500D03*
%TO.P,U1,2,RXCAN*%
%TO.N,/CANRX*%
X75300000Y-66622500D03*
%TO.P,U1,3,CLKOUT/SOF*%
%TO.N,unconnected-(U1-CLKOUT{slash}SOF-Pad3)*%
X74650000Y-66622500D03*
%TO.P,U1,4,~{TX0RTS}*%
%TO.N,unconnected-(U1-~{TX0RTS}-Pad4)*%
X74000000Y-66622500D03*
%TO.P,U1,5,~{TX1RTS}*%
%TO.N,unconnected-(U1-~{TX1RTS}-Pad5)*%
X73350000Y-66622500D03*
%TO.P,U1,6,NC*%
%TO.N,unconnected-(U1-NC-Pad6)*%
X72700000Y-66622500D03*
%TO.P,U1,7,~{TX2RTS}*%
%TO.N,unconnected-(U1-~{TX2RTS}-Pad7)*%
X72050000Y-66622500D03*
%TO.P,U1,8,OSC2*%
%TO.N,Net-(U1-OSC2)*%
X71400000Y-66622500D03*
%TO.P,U1,9,OSC1*%
%TO.N,Net-(U1-OSC1)*%
X70750000Y-66622500D03*
%TO.P,U1,10,VSS*%
%TO.N,GND*%
X70100000Y-66622500D03*
%TO.P,U1,11,~{RX1BF}*%
%TO.N,unconnected-(U1-~{RX1BF}-Pad11)*%
X70100000Y-72347500D03*
%TO.P,U1,12,~{RX0BF}*%
%TO.N,unconnected-(U1-~{RX0BF}-Pad12)*%
X70750000Y-72347500D03*
%TO.P,U1,13,~{INT}*%
%TO.N,INT_1*%
X71400000Y-72347500D03*
%TO.P,U1,14,SCK*%
%TO.N,SPI_SCK*%
X72050000Y-72347500D03*
%TO.P,U1,15,NC*%
%TO.N,unconnected-(U1-NC-Pad15)*%
X72700000Y-72347500D03*
%TO.P,U1,16,SI*%
%TO.N,SPI_MOSI*%
X73350000Y-72347500D03*
%TO.P,U1,17,SO*%
%TO.N,SPI_MISO*%
X74000000Y-72347500D03*
%TO.P,U1,18,~{CS}*%
%TO.N,SPI_SS*%
X74650000Y-72347500D03*
%TO.P,U1,19,~{RESET}*%
%TO.N,Net-(U1-~{RESET})*%
X75300000Y-72347500D03*
%TO.P,U1,20,VDD*%
%TO.N,+5V*%
X75950000Y-72347500D03*
%TD*%
D12*
%TO.P,J5,1,1*%
%TO.N,+5V*%
X79883000Y-43870500D03*
D13*
%TO.P,J5,2,2*%
%TO.N,GND*%
X74883000Y-47370500D03*
%TO.P,J5,3,3*%
%TO.N,/CANL*%
X79883000Y-50870500D03*
%TO.P,J5,4,4*%
%TO.N,/CANH*%
X74883000Y-54370500D03*
%TD*%
D14*
%TO.P,R1,1*%
%TO.N,/CANH*%
X78629000Y-60198000D03*
%TO.P,R1,2*%
%TO.N,/CANL*%
X80629000Y-60198000D03*
%TD*%
D15*
%TO.P,D3,1,K*%
%TO.N,GND*%
X70612000Y-60438000D03*
%TO.P,D3,2,A*%
%TO.N,Net-(D3-A)*%
X70612000Y-58563000D03*
%TD*%
D10*
%TO.P,R4,1*%
%TO.N,+5V*%
X77851000Y-72374000D03*
%TO.P,R4,2*%
%TO.N,Net-(U1-~{RESET})*%
X77851000Y-70374000D03*
%TD*%
D16*
%TO.P,C8,1*%
%TO.N,GND*%
X74930000Y-58668500D03*
%TO.P,C8,2*%
%TO.N,Net-(U1-OSC2)*%
X74930000Y-60743500D03*
%TD*%
D17*
%TO.P,C9,1*%
%TO.N,Net-(U1-OSC1)*%
X70612000Y-64405000D03*
%TO.P,C9,2*%
%TO.N,GND*%
X70612000Y-62330000D03*
%TD*%
D18*
%TO.P,Y2,1*%
%TO.N,Net-(U1-OSC2)*%
X74965500Y-62648500D03*
%TO.P,Y2,2,GND*%
%TO.N,GND*%
X72665500Y-62648500D03*
%TO.P,Y2,3*%
%TO.N,Net-(U1-OSC1)*%
X72665500Y-64448500D03*
%TO.P,Y2,4*%
%TO.N,GND*%
X74965500Y-64448500D03*
%TD*%
D19*
%TO.P,U2,1,TXD*%
%TO.N,/CANTX*%
X77597000Y-68023000D03*
%TO.P,U2,2,VSS*%
%TO.N,GND*%
X78867000Y-68023000D03*
%TO.P,U2,3,VDD*%
%TO.N,+5V*%
X80137000Y-68023000D03*
%TO.P,U2,4,RXD*%
%TO.N,/CANRX*%
X81407000Y-68023000D03*
%TO.P,U2,5,Vio*%
%TO.N,+5V*%
X81407000Y-63073000D03*
%TO.P,U2,6,CANL*%
%TO.N,/CANL*%
X80137000Y-63073000D03*
%TO.P,U2,7,CANH*%
%TO.N,/CANH*%
X78867000Y-63073000D03*
%TO.P,U2,8,STBY*%
%TO.N,GND*%
X77597000Y-63073000D03*
%TD*%
D20*
%TO.P,J2,1,Pin_1*%
%TO.N,+5V*%
X65151000Y-41783000D03*
D21*
%TO.P,J2,2,Pin_2*%
%TO.N,GND*%
X67691000Y-41783000D03*
%TO.P,J2,3,Pin_3*%
%TO.N,unconnected-(J2-Pin_3-Pad3)*%
X65151000Y-44323000D03*
%TO.P,J2,4,Pin_4*%
%TO.N,unconnected-(J2-Pin_4-Pad4)*%
X67691000Y-44323000D03*
%TO.P,J2,5,Pin_5*%
%TO.N,unconnected-(J2-Pin_5-Pad5)*%
X65151000Y-46863000D03*
%TO.P,J2,6,Pin_6*%
%TO.N,unconnected-(J2-Pin_6-Pad6)*%
X67691000Y-46863000D03*
%TO.P,J2,7,Pin_7*%
%TO.N,unconnected-(J2-Pin_7-Pad7)*%
X65151000Y-49403000D03*
%TO.P,J2,8,Pin_8*%
%TO.N,unconnected-(J2-Pin_8-Pad8)*%
X67691000Y-49403000D03*
%TO.P,J2,9,Pin_9*%
%TO.N,unconnected-(J2-Pin_9-Pad9)*%
X65151000Y-51943000D03*
%TO.P,J2,10,Pin_10*%
%TO.N,Net-(J2-Pin_10)*%
X67691000Y-51943000D03*
%TO.P,J2,11,Pin_11*%
%TO.N,unconnected-(J2-Pin_11-Pad11)*%
X65151000Y-54483000D03*
%TO.P,J2,12,Pin_12*%
%TO.N,unconnected-(J2-Pin_12-Pad12)*%
X67691000Y-54483000D03*
%TO.P,J2,13,Pin_13*%
%TO.N,unconnected-(J2-Pin_13-Pad13)*%
X65151000Y-57023000D03*
%TO.P,J2,14,Pin_14*%
%TO.N,unconnected-(J2-Pin_14-Pad14)*%
X67691000Y-57023000D03*
%TO.P,J2,15,Pin_15*%
%TO.N,unconnected-(J2-Pin_15-Pad15)*%
X65151000Y-59563000D03*
%TO.P,J2,16,Pin_16*%
%TO.N,unconnected-(J2-Pin_16-Pad16)*%
X67691000Y-59563000D03*
%TO.P,J2,17,Pin_17*%
%TO.N,unconnected-(J2-Pin_17-Pad17)*%
X65151000Y-62103000D03*
%TO.P,J2,18,Pin_18*%
%TO.N,I2C_SDA*%
X67691000Y-62103000D03*
%TO.P,J2,19,Pin_19*%
%TO.N,I2C_SCL*%
X65151000Y-64643000D03*
%TO.P,J2,20,Pin_20*%
%TO.N,SPI_SS*%
X67691000Y-64643000D03*
%TO.P,J2,21,Pin_21*%
%TO.N,SPI_MOSI*%
X65151000Y-67183000D03*
%TO.P,J2,22,Pin_22*%
%TO.N,SPI_MISO*%
X67691000Y-67183000D03*
%TO.P,J2,23,Pin_23*%
%TO.N,SPI_SCK*%
X65151000Y-69723000D03*
%TO.P,J2,24,Pin_24*%
%TO.N,unconnected-(J2-Pin_24-Pad24)*%
X67691000Y-69723000D03*
%TO.P,J2,25,Pin_25*%
%TO.N,UART_TXD*%
X65151000Y-72263000D03*
%TO.P,J2,26,Pin_26*%
%TO.N,UART_RXD*%
X67691000Y-72263000D03*
%TD*%
D22*
%TO.N,GND*%
X74930000Y-69342000D03*
X79629000Y-58547000D03*
%TO.N,/CANRX*%
X75819000Y-68707000D03*
X81280000Y-70358000D03*
%TO.N,INT_1*%
X69977000Y-70866000D03*
%TD*%
D23*
%TO.N,Net-(U1-OSC2)*%
X74892500Y-62648500D02*
X74965500Y-62648500D01*
X74930000Y-62613000D02*
X74965500Y-62648500D01*
X73787000Y-65227000D02*
X73787000Y-63754000D01*
X73787000Y-63754000D02*
X74892500Y-62648500D01*
X73609000Y-65405000D02*
X73787000Y-65227000D01*
X71400000Y-65760000D02*
X71755000Y-65405000D01*
X74930000Y-60743500D02*
X74930000Y-62613000D01*
X71400000Y-66622500D02*
X71400000Y-65760000D01*
X71755000Y-65405000D02*
X73609000Y-65405000D01*
%TO.N,Net-(U1-OSC1)*%
X72622000Y-64405000D02*
X72665500Y-64448500D01*
X70612000Y-64405000D02*
X72622000Y-64405000D01*
X70750000Y-66622500D02*
X70750000Y-64543000D01*
X70750000Y-64543000D02*
X70612000Y-64405000D01*
D24*
%TO.N,+5V*%
X79629000Y-66548000D02*
X78867000Y-65786000D01*
D25*
X72326500Y-46545500D02*
X72009000Y-46863000D01*
X71247000Y-47625000D02*
X71247000Y-45593000D01*
X72771000Y-58706000D02*
X72771000Y-56769000D01*
D24*
X79137000Y-72374000D02*
X77851000Y-72374000D01*
X78867000Y-65786000D02*
X77597000Y-65786000D01*
D25*
X72898000Y-45593000D02*
X71247000Y-45593000D01*
D24*
X81407000Y-63073000D02*
X81407000Y-65278000D01*
X75950000Y-72347500D02*
X77824500Y-72347500D01*
X77824500Y-72347500D02*
X77851000Y-72374000D01*
X80137000Y-66548000D02*
X81407000Y-65278000D01*
D25*
X72009000Y-46863000D02*
X71247000Y-47625000D01*
X71247000Y-45593000D02*
X72199500Y-46545500D01*
D24*
X76708000Y-64897000D02*
X76708000Y-60833000D01*
D23*
X66351000Y-42983000D02*
X68637000Y-42983000D01*
D25*
X72263000Y-56261000D02*
X72517000Y-56515000D01*
D23*
X65151000Y-41783000D02*
X66351000Y-42983000D01*
D24*
X80137000Y-68023000D02*
X80137000Y-66548000D01*
D25*
X73088500Y-45783500D02*
X72326500Y-46545500D01*
X72771000Y-56769000D02*
X72263000Y-56261000D01*
X75001500Y-43870500D02*
X73088500Y-45783500D01*
X71247000Y-45593000D02*
X68961000Y-43307000D01*
X76327000Y-56515000D02*
X76708000Y-56896000D01*
X76708000Y-56896000D02*
X76708000Y-60833000D01*
D24*
X80137000Y-71374000D02*
X79137000Y-72374000D01*
D25*
X71247000Y-47625000D02*
X71247000Y-55245000D01*
X71247000Y-55245000D02*
X72263000Y-56261000D01*
D24*
X77597000Y-65786000D02*
X76708000Y-64897000D01*
D25*
X72517000Y-56515000D02*
X76327000Y-56515000D01*
D24*
X80137000Y-66548000D02*
X79629000Y-66548000D01*
D25*
X73088500Y-45783500D02*
X72898000Y-45593000D01*
X72199500Y-46545500D02*
X72326500Y-46545500D01*
D24*
X80137000Y-68023000D02*
X80137000Y-71374000D01*
D23*
X68637000Y-42983000D02*
X68961000Y-43307000D01*
D25*
X79883000Y-43870500D02*
X75001500Y-43870500D01*
D23*
%TO.N,SPI_SCK*%
X68580000Y-70993000D02*
X66421000Y-70993000D01*
X72050000Y-72347500D02*
X72050000Y-70725106D01*
X72050000Y-70725106D02*
X71301894Y-69977000D01*
X66421000Y-70993000D02*
X65151000Y-69723000D01*
X71301894Y-69977000D02*
X69596000Y-69977000D01*
X69596000Y-69977000D02*
X68580000Y-70993000D01*
D26*
%TO.N,Net-(U1-~{RESET})*%
X76184000Y-70374000D02*
X77851000Y-70374000D01*
X75300000Y-71258000D02*
X76184000Y-70374000D01*
X75300000Y-72347500D02*
X75300000Y-71258000D01*
%TO.N,/CANTX*%
X75946000Y-67818000D02*
X76151000Y-68023000D01*
X75946000Y-66626500D02*
X75946000Y-67818000D01*
X75950000Y-66622500D02*
X75946000Y-66626500D01*
X76151000Y-68023000D02*
X77597000Y-68023000D01*
%TO.N,/CANRX*%
X75300000Y-66622500D02*
X75300000Y-68188000D01*
X81407000Y-70231000D02*
X81407000Y-68023000D01*
X75300000Y-68188000D02*
X75819000Y-68707000D01*
X81280000Y-70358000D02*
X81407000Y-70231000D01*
D23*
%TO.N,SPI_MOSI*%
X73350000Y-72347500D02*
X73350000Y-71318000D01*
X66421000Y-68453000D02*
X65151000Y-67183000D01*
X68453000Y-68453000D02*
X66421000Y-68453000D01*
X71374000Y-69342000D02*
X69342000Y-69342000D01*
X69342000Y-69342000D02*
X68453000Y-68453000D01*
X73350000Y-71318000D02*
X71374000Y-69342000D01*
%TO.N,SPI_MISO*%
X71581106Y-68842000D02*
X69549106Y-68842000D01*
X73914000Y-71174894D02*
X71581106Y-68842000D01*
X69549106Y-68842000D02*
X67890106Y-67183000D01*
X67890106Y-67183000D02*
X67691000Y-67183000D01*
X74000000Y-72347500D02*
X73914000Y-72261500D01*
X73914000Y-72261500D02*
X73914000Y-71174894D01*
%TO.N,Net-(D3-A)*%
X72755000Y-60706000D02*
X70612000Y-58563000D01*
X72771000Y-60706000D02*
X72755000Y-60706000D01*
%TO.N,/CANH*%
X76595500Y-54370500D02*
X74883000Y-54370500D01*
X78629000Y-56404000D02*
X76595500Y-54370500D01*
X78867000Y-60436000D02*
X78629000Y-60198000D01*
X78629000Y-60198000D02*
X78629000Y-56404000D01*
X78867000Y-63073000D02*
X78867000Y-60436000D01*
%TO.N,/CANL*%
X80645000Y-54864000D02*
X79883000Y-54102000D01*
X80629000Y-61579000D02*
X80629000Y-60198000D01*
X80137000Y-62103000D02*
X80645000Y-61595000D01*
X80629000Y-60198000D02*
X80629000Y-54880000D01*
X80645000Y-61595000D02*
X80629000Y-61579000D01*
X80137000Y-63073000D02*
X80137000Y-62103000D01*
X79883000Y-54102000D02*
X79883000Y-50870500D01*
X80629000Y-54880000D02*
X80645000Y-54864000D01*
%TO.N,SPI_SS*%
X74650000Y-72347500D02*
X74650000Y-71203788D01*
X69215000Y-66167000D02*
X67691000Y-64643000D01*
X69215000Y-67310000D02*
X69215000Y-66167000D01*
X70231000Y-68326000D02*
X69215000Y-67310000D01*
X74650000Y-71203788D02*
X71772212Y-68326000D01*
X71772212Y-68326000D02*
X70231000Y-68326000D01*
%TO.N,INT_1*%
X70883896Y-71107500D02*
X70218500Y-71107500D01*
X71400000Y-72347500D02*
X71400000Y-71623604D01*
X71400000Y-71623604D02*
X70883896Y-71107500D01*
X70218500Y-71107500D02*
X69977000Y-70866000D01*
%TD*%
%TA.AperFunction,Conductor*%
%TO.N,GND*%
G36*
X76034593Y-61042614D02*
G01*
X76047065Y-61065696D01*
X76083182Y-61160930D01*
X76179817Y-61300929D01*
X76224149Y-61340203D01*
X76255167Y-61392941D01*
X76257500Y-61414305D01*
X76257500Y-64868913D01*
X76257189Y-64874459D01*
X76252730Y-64914034D01*
X76252730Y-64914036D01*
X76263788Y-64972479D01*
X76272652Y-65031287D01*
X76274840Y-65038381D01*
X76274417Y-65038511D01*
X76275109Y-65040613D01*
X76275526Y-65040468D01*
X76277975Y-65047468D01*
X76277976Y-65047471D01*
X76277977Y-65047472D01*
X76279290Y-65049957D01*
X76305777Y-65100073D01*
X76331574Y-65153641D01*
X76335753Y-65159770D01*
X76335389Y-65160017D01*
X76336677Y-65161831D01*
X76337030Y-65161571D01*
X76341431Y-65167535D01*
X76383495Y-65209599D01*
X76423944Y-65253194D01*
X76429743Y-65257818D01*
X76429467Y-65258163D01*
X76440600Y-65266704D01*
X77258592Y-66084696D01*
X77262293Y-66088837D01*
X77287121Y-66119970D01*
X77336271Y-66153480D01*
X77384118Y-66188793D01*
X77384120Y-66188793D01*
X77390677Y-66192259D01*
X77390469Y-66192651D01*
X77392450Y-66193651D01*
X77392643Y-66193253D01*
X77399324Y-66196470D01*
X77399327Y-66196472D01*
X77435950Y-66207768D01*
X77456177Y-66214007D01*
X77512300Y-66233646D01*
X77519593Y-66235026D01*
X77519510Y-66235460D01*
X77521697Y-66235831D01*
X77521763Y-66235394D01*
X77529096Y-66236499D01*
X77529098Y-66236500D01*
X77529100Y-66236500D01*
X77588559Y-66236500D01*
X77648010Y-66238725D01*
X77648016Y-66238723D01*
X77655384Y-66237894D01*
X77655433Y-66238332D01*
X77669347Y-66236500D01*
X78639388Y-66236500D01*
X78697579Y-66255407D01*
X78709392Y-66265496D01*
X79034444Y-66590548D01*
X79062221Y-66645065D01*
X79052650Y-66705497D01*
X79034444Y-66730555D01*
X79017000Y-66747999D01*
X79017000Y-69297998D01*
X79017001Y-69297999D01*
X79071203Y-69297999D01*
X79101600Y-69295149D01*
X79101602Y-69295149D01*
X79229647Y-69250345D01*
X79338790Y-69169792D01*
X79338792Y-69169790D01*
X79419344Y-69060647D01*
X79458907Y-68947582D01*
X79495972Y-68898901D01*
X79554572Y-68881304D01*
X79612324Y-68901512D01*
X79641490Y-68943248D01*
X79643051Y-68942486D01*
X79646426Y-68949391D01*
X79646427Y-68949393D01*
X79676441Y-69010787D01*
X79686500Y-69054267D01*
X79686500Y-71146388D01*
X79667593Y-71204579D01*
X79657504Y-71216392D01*
X78979393Y-71894504D01*
X78924876Y-71922281D01*
X78909389Y-71923500D01*
X78813361Y-71923500D01*
X78755170Y-71904593D01*
X78719917Y-71857198D01*
X78703793Y-71811118D01*
X78703791Y-71811115D01*
X78703791Y-71811114D01*
X78623154Y-71701855D01*
X78623152Y-71701853D01*
X78623150Y-71701850D01*
X78623146Y-71701847D01*
X78623144Y-71701845D01*
X78513883Y-71621207D01*
X78385703Y-71576355D01*
X78385694Y-71576353D01*
X78355274Y-71573500D01*
X78355266Y-71573500D01*
X77346734Y-71573500D01*
X77346725Y-71573500D01*
X77316305Y-71576353D01*
X77316296Y-71576355D01*
X77188116Y-71621207D01*
X77078855Y-71701845D01*
X77078845Y-71701855D01*
X76998208Y-71811115D01*
X76998206Y-71811118D01*
X76998207Y-71811118D01*
X76991355Y-71830697D01*
X76954292Y-71879377D01*
X76897912Y-71897000D01*
X76449499Y-71897000D01*
X76391308Y-71878093D01*
X76355344Y-71828593D01*
X76350499Y-71798000D01*
X76350499Y-71665139D01*
X76350499Y-71665136D01*
X76347585Y-71640009D01*
X76302206Y-71537235D01*
X76222765Y-71457794D01*
X76119991Y-71412415D01*
X76119990Y-71412414D01*
X76119988Y-71412414D01*
X76094869Y-71409500D01*
X75812478Y-71409500D01*
X75754287Y-71390593D01*
X75718323Y-71341093D01*
X75718323Y-71279907D01*
X75742472Y-71240498D01*
X76279475Y-70703495D01*
X76333992Y-70675719D01*
X76349479Y-70674500D01*
X76851500Y-70674500D01*
X76909691Y-70693407D01*
X76945655Y-70742907D01*
X76950500Y-70773500D01*
X76950500Y-70778274D01*
X76953353Y-70808694D01*
X76953355Y-70808703D01*
X76998207Y-70936883D01*
X77078845Y-71046144D01*
X77078847Y-71046146D01*
X77078850Y-71046150D01*
X77078853Y-71046152D01*
X77078855Y-71046154D01*
X77188116Y-71126792D01*
X77188117Y-71126792D01*
X77188118Y-71126793D01*
X77316301Y-71171646D01*
X77346725Y-71174499D01*
X77346727Y-71174500D01*
X77346734Y-71174500D01*
X78355273Y-71174500D01*
X78355273Y-71174499D01*
X78385699Y-71171646D01*
X78513882Y-71126793D01*
X78623150Y-71046150D01*
X78703793Y-70936882D01*
X78748646Y-70808699D01*
X78751499Y-70778273D01*
X78751500Y-70778273D01*
X78751500Y-69969726D01*
X78751499Y-69969725D01*
X78748646Y-69939305D01*
X78748646Y-69939301D01*
X78703793Y-69811118D01*
X78680745Y-69779889D01*
X78623154Y-69701855D01*
X78623152Y-69701853D01*
X78623150Y-69701850D01*
X78623146Y-69701847D01*
X78623144Y-69701845D01*
X78513883Y-69621207D01*
X78385703Y-69576355D01*
X78385694Y-69576353D01*
X78355274Y-69573500D01*
X78355266Y-69573500D01*
X77346734Y-69573500D01*
X77346725Y-69573500D01*
X77316305Y-69576353D01*
X77316296Y-69576355D01*
X77188116Y-69621207D01*
X77078855Y-69701845D01*
X77078845Y-69701855D01*
X76998207Y-69811116D01*
X76953355Y-69939296D01*
X76953353Y-69939305D01*
X76950500Y-69969725D01*
X76950500Y-69974500D01*
X76931593Y-70032691D01*
X76882093Y-70068655D01*
X76851500Y-70073500D01*
X76249165Y-70073500D01*
X76235489Y-70071267D01*
X76235318Y-70072494D01*
X76226234Y-70071226D01*
X76185887Y-70073092D01*
X76178207Y-70073447D01*
X76175931Y-70073500D01*
X76156153Y-70073500D01*
X76152658Y-70074153D01*
X76145845Y-70074943D01*
X76114011Y-70076414D01*
X76114007Y-70076415D01*
X76105013Y-70080386D01*
X76083228Y-70087132D01*
X76073571Y-70088937D01*
X76073565Y-70088940D01*
X76046465Y-70105718D01*
X76040396Y-70108917D01*
X76011238Y-70121792D01*
X76011231Y-70121796D01*
X76004286Y-70128742D01*
X75986406Y-70142905D01*
X75978048Y-70148080D01*
X75958839Y-70173515D01*
X75954335Y-70178692D01*
X75133590Y-70999437D01*
X75122361Y-71007550D01*
X75123090Y-71008515D01*
X75115770Y-71014043D01*
X75104286Y-71026639D01*
X75051109Y-71056902D01*
X74990299Y-71050128D01*
X74945085Y-71008905D01*
X74942185Y-71003415D01*
X74939198Y-70997304D01*
X74939196Y-70997302D01*
X74939196Y-70997301D01*
X74934948Y-70991350D01*
X74930418Y-70985530D01*
X74892724Y-70950829D01*
X72053013Y-68111119D01*
X72040137Y-68095262D01*
X72033649Y-68085331D01*
X72031416Y-68083593D01*
X72007094Y-68064663D01*
X72002495Y-68060601D01*
X71999519Y-68057625D01*
X71981772Y-68044954D01*
X71941340Y-68013484D01*
X71934889Y-68009993D01*
X71928280Y-68006761D01*
X71928278Y-68006760D01*
X71925164Y-68005833D01*
X71915307Y-68002898D01*
X71879166Y-67992138D01*
X71830700Y-67975500D01*
X71830697Y-67975499D01*
X71823472Y-67974293D01*
X71816167Y-67973383D01*
X71816166Y-67973383D01*
X71816164Y-67973383D01*
X71764981Y-67975500D01*
X70417190Y-67975500D01*
X70358999Y-67956593D01*
X70347186Y-67946504D01*
X70221425Y-67820743D01*
X70193648Y-67766226D01*
X70203219Y-67705794D01*
X70246484Y-67662529D01*
X70275944Y-67652958D01*
X70325141Y-67645166D01*
X70325148Y-67645164D01*
X70438046Y-67587639D01*
X70454421Y-67571264D01*
X70508937Y-67543484D01*
X70564415Y-67550699D01*
X70580009Y-67557585D01*
X70605135Y-67560500D01*
X70894864Y-67560499D01*
X70919991Y-67557585D01*
X71022765Y-67512206D01*
X71022766Y-67512204D01*
X71031157Y-67508500D01*
X71032205Y-67510875D01*
X71077739Y-67497462D01*
X71117948Y-67510526D01*
X71118843Y-67508500D01*
X71127233Y-67512204D01*
X71127235Y-67512206D01*
X71230009Y-67557585D01*
X71255135Y-67560500D01*
X71544864Y-67560499D01*
X71569991Y-67557585D01*
X71672765Y-67512206D01*
X71672766Y-67512204D01*
X71681157Y-67508500D01*
X71682205Y-67510875D01*
X71727739Y-67497462D01*
X71767948Y-67510526D01*
X71768843Y-67508500D01*
X71777233Y-67512204D01*
X71777235Y-67512206D01*
X71880009Y-67557585D01*
X71905135Y-67560500D01*
X72194864Y-67560499D01*
X72219991Y-67557585D01*
X72322765Y-67512206D01*
X72322766Y-67512204D01*
X72331157Y-67508500D01*
X72332205Y-67510875D01*
X72377739Y-67497462D01*
X72417948Y-67510526D01*
X72418843Y-67508500D01*
X72427233Y-67512204D01*
X72427235Y-67512206D01*
X72530009Y-67557585D01*
X72555135Y-67560500D01*
X72844864Y-67560499D01*
X72869991Y-67557585D01*
X72972765Y-67512206D01*
X72972766Y-67512204D01*
X72981157Y-67508500D01*
X72982205Y-67510875D01*
X73027739Y-67497462D01*
X73067948Y-67510526D01*
X73068843Y-67508500D01*
X73077233Y-67512204D01*
X73077235Y-67512206D01*
X73180009Y-67557585D01*
X73205135Y-67560500D01*
X73494864Y-67560499D01*
X73519991Y-67557585D01*
X73622765Y-67512206D01*
X73622766Y-67512204D01*
X73631157Y-67508500D01*
X73632205Y-67510875D01*
X73677739Y-67497462D01*
X73717948Y-67510526D01*
X73718843Y-67508500D01*
X73727233Y-67512204D01*
X73727235Y-67512206D01*
X73830009Y-67557585D01*
X73855135Y-67560500D01*
X74144864Y-67560499D01*
X74169991Y-67557585D01*
X74272765Y-67512206D01*
X74272766Y-67512204D01*
X74281157Y-67508500D01*
X74282205Y-67510875D01*
X74327739Y-67497462D01*
X74367948Y-67510526D01*
X74368843Y-67508500D01*
X74377233Y-67512204D01*
X74377235Y-67512206D01*
X74480009Y-67557585D01*
X74505135Y-67560500D01*
X74794864Y-67560499D01*
X74819991Y-67557585D01*
X74860513Y-67539692D01*
X74921380Y-67533484D01*
X74974274Y-67564239D01*
X74998989Y-67620210D01*
X74999500Y-67630257D01*
X74999500Y-68122835D01*
X74997280Y-68136513D01*
X74998494Y-68136683D01*
X74997226Y-68145766D01*
X74999447Y-68193783D01*
X74999500Y-68196069D01*
X74999500Y-68215842D01*
X75000152Y-68219332D01*
X75000943Y-68226149D01*
X75002414Y-68257987D01*
X75002415Y-68257994D01*
X75006384Y-68266982D01*
X75013133Y-68288773D01*
X75014939Y-68298433D01*
X75031717Y-68325533D01*
X75034915Y-68331600D01*
X75041813Y-68347220D01*
X75047794Y-68360765D01*
X75054745Y-68367716D01*
X75068907Y-68385596D01*
X75072815Y-68391907D01*
X75074081Y-68393952D01*
X75099511Y-68413156D01*
X75104690Y-68417662D01*
X75199819Y-68512790D01*
X75227596Y-68567307D01*
X75227968Y-68595715D01*
X75213318Y-68706998D01*
X75213318Y-68707000D01*
X75233955Y-68863758D01*
X75233957Y-68863766D01*
X75294462Y-69009838D01*
X75294462Y-69009839D01*
X75390713Y-69135276D01*
X75390718Y-69135282D01*
X75390722Y-69135285D01*
X75390723Y-69135286D01*
X75392370Y-69136550D01*
X75516159Y-69231536D01*
X75662238Y-69292044D01*
X75779809Y-69307522D01*
X75818999Y-69312682D01*
X75819000Y-69312682D01*
X75819001Y-69312682D01*
X75850352Y-69308554D01*
X75975762Y-69292044D01*
X76121841Y-69231536D01*
X76247282Y-69135282D01*
X76343536Y-69009841D01*
X76404044Y-68863762D01*
X76424682Y-68707000D01*
X76404044Y-68550238D01*
X76366825Y-68460385D01*
X76362025Y-68399389D01*
X76393995Y-68347220D01*
X76450523Y-68323805D01*
X76458290Y-68323500D01*
X76997500Y-68323500D01*
X77055691Y-68342407D01*
X77091655Y-68391907D01*
X77096500Y-68422500D01*
X77096500Y-68881260D01*
X77099135Y-68899345D01*
X77106427Y-68949395D01*
X77135977Y-69009839D01*
X77157802Y-69054483D01*
X77240517Y-69137198D01*
X77294285Y-69163483D01*
X77345604Y-69188572D01*
X77345605Y-69188572D01*
X77345607Y-69188573D01*
X77413740Y-69198500D01*
X77413743Y-69198500D01*
X77780257Y-69198500D01*
X77780260Y-69198500D01*
X77848393Y-69188573D01*
X77953483Y-69137198D01*
X78036198Y-69054483D01*
X78087573Y-68949393D01*
X78087572Y-68949393D01*
X78090950Y-68942486D01*
X78092549Y-68943267D01*
X78122291Y-68901047D01*
X78180199Y-68881291D01*
X78238660Y-68899345D01*
X78275091Y-68947582D01*
X78314653Y-69060645D01*
X78395207Y-69169790D01*
X78395209Y-69169792D01*
X78504352Y-69250345D01*
X78632399Y-69295149D01*
X78662788Y-69297999D01*
X78716999Y-69297998D01*
X78717000Y-69297998D01*
X78717000Y-66747999D01*
X78662796Y-66748000D01*
X78632399Y-66750850D01*
X78632397Y-66750850D01*
X78504352Y-66795654D01*
X78395209Y-66876207D01*
X78395207Y-66876209D01*
X78314653Y-66985354D01*
X78275091Y-67098417D01*
X78238026Y-67147097D01*
X78179425Y-67164694D01*
X78121674Y-67144486D01*
X78092515Y-67102748D01*
X78090950Y-67103514D01*
X78066385Y-67053267D01*
X78036198Y-66991517D01*
X77953483Y-66908802D01*
X77953481Y-66908801D01*
X77848395Y-66857427D01*
X77821139Y-66853456D01*
X77780260Y-66847500D01*
X77413740Y-66847500D01*
X77379673Y-66852463D01*
X77345604Y-66857427D01*
X77240518Y-66908801D01*
X77157801Y-66991518D01*
X77106427Y-67096604D01*
X77096500Y-67164743D01*
X77096500Y-67623500D01*
X77077593Y-67681691D01*
X77028093Y-67717655D01*
X76997500Y-67722500D01*
X76345500Y-67722500D01*
X76287309Y-67703593D01*
X76251345Y-67654093D01*
X76246500Y-67623500D01*
X76246500Y-67529478D01*
X76265407Y-67471287D01*
X76275490Y-67459480D01*
X76302206Y-67432765D01*
X76347585Y-67329991D01*
X76350500Y-67304865D01*
X76350499Y-65940136D01*
X76347585Y-65915009D01*
X76302206Y-65812235D01*
X76222765Y-65732794D01*
X76119991Y-65687415D01*
X76119990Y-65687414D01*
X76119988Y-65687414D01*
X76094868Y-65684500D01*
X75805140Y-65684500D01*
X75805135Y-65684501D01*
X75780009Y-65687414D01*
X75709766Y-65718430D01*
X75677235Y-65732794D01*
X75677234Y-65732794D01*
X75668843Y-65736500D01*
X75667794Y-65734126D01*
X75622243Y-65747537D01*
X75582050Y-65734477D01*
X75581157Y-65736500D01*
X75572766Y-65732795D01*
X75572765Y-65732794D01*
X75469991Y-65687415D01*
X75469990Y-65687414D01*
X75469988Y-65687414D01*
X75444868Y-65684500D01*
X75155140Y-65684500D01*
X75155135Y-65684501D01*
X75130009Y-65687414D01*
X75059766Y-65718430D01*
X75027235Y-65732794D01*
X75027234Y-65732794D01*
X75018843Y-65736500D01*
X75017794Y-65734126D01*
X74972243Y-65747537D01*
X74932050Y-65734477D01*
X74931157Y-65736500D01*
X74922766Y-65732795D01*
X74922765Y-65732794D01*
X74819991Y-65687415D01*
X74819990Y-65687414D01*
X74819988Y-65687414D01*
X74794868Y-65684500D01*
X74505140Y-65684500D01*
X74505135Y-65684501D01*
X74480009Y-65687414D01*
X74409766Y-65718430D01*
X74377235Y-65732794D01*
X74377234Y-65732794D01*
X74368843Y-65736500D01*
X74367794Y-65734126D01*
X74322243Y-65747537D01*
X74282050Y-65734477D01*
X74281157Y-65736500D01*
X74272766Y-65732795D01*
X74272765Y-65732794D01*
X74169991Y-65687415D01*
X74169990Y-65687414D01*
X74169988Y-65687414D01*
X74144869Y-65684500D01*
X74064188Y-65684500D01*
X74005997Y-65665593D01*
X73970033Y-65616093D01*
X73970033Y-65554907D01*
X73994182Y-65515498D01*
X74001884Y-65507796D01*
X74017734Y-65494926D01*
X74027669Y-65488437D01*
X74048338Y-65461879D01*
X74052388Y-65457292D01*
X74055375Y-65454307D01*
X74068044Y-65436561D01*
X74099517Y-65396126D01*
X74099518Y-65396120D01*
X74103023Y-65389645D01*
X74106238Y-65383070D01*
X74106238Y-65383067D01*
X74106240Y-65383066D01*
X74113384Y-65359067D01*
X74148107Y-65308692D01*
X74205811Y-65288346D01*
X74238138Y-65294747D01*
X74238441Y-65293635D01*
X74245627Y-65295590D01*
X74270703Y-65298499D01*
X74815498Y-65298499D01*
X74815500Y-65298498D01*
X74815500Y-64598500D01*
X75115500Y-64598500D01*
X75115500Y-65298498D01*
X75115501Y-65298499D01*
X75660290Y-65298499D01*
X75660291Y-65298498D01*
X75685374Y-65295590D01*
X75787977Y-65250286D01*
X75867286Y-65170977D01*
X75912590Y-65068372D01*
X75915499Y-65043297D01*
X75915500Y-65043294D01*
X75915500Y-64598501D01*
X75915499Y-64598500D01*
X75115500Y-64598500D01*
X74815500Y-64598500D01*
X74815500Y-64298498D01*
X75115500Y-64298498D01*
X75115501Y-64298500D01*
X75915498Y-64298500D01*
X75915499Y-64298499D01*
X75915499Y-63853709D01*
X75915498Y-63853708D01*
X75912590Y-63828625D01*
X75867286Y-63726022D01*
X75787977Y-63646713D01*
X75685372Y-63601409D01*
X75660297Y-63598500D01*
X75115501Y-63598500D01*
X75115500Y-63598501D01*
X75115500Y-64298498D01*
X74815500Y-64298498D01*
X74815500Y-63598501D01*
X74815499Y-63598500D01*
X74677189Y-63598500D01*
X74618998Y-63579593D01*
X74583034Y-63530093D01*
X74583034Y-63468907D01*
X74607183Y-63429498D01*
X74608686Y-63427995D01*
X74663202Y-63400219D01*
X74678689Y-63399000D01*
X75635247Y-63399000D01*
X75635248Y-63399000D01*
X75693731Y-63387367D01*
X75760052Y-63343052D01*
X75804367Y-63276731D01*
X75816000Y-63218248D01*
X75816000Y-62078752D01*
X75804367Y-62020269D01*
X75760052Y-61953948D01*
X75760048Y-61953945D01*
X75693733Y-61909634D01*
X75693731Y-61909633D01*
X75693728Y-61909632D01*
X75693727Y-61909632D01*
X75635258Y-61898001D01*
X75635248Y-61898000D01*
X75635247Y-61898000D01*
X75379500Y-61898000D01*
X75321309Y-61879093D01*
X75285345Y-61829593D01*
X75280500Y-61799000D01*
X75280500Y-61630500D01*
X75299407Y-61572309D01*
X75348907Y-61536345D01*
X75379500Y-61531500D01*
X75459273Y-61531500D01*
X75459273Y-61531499D01*
X75489699Y-61528646D01*
X75617882Y-61483793D01*
X75727150Y-61403150D01*
X75807793Y-61293882D01*
X75852646Y-61165699D01*
X75855499Y-61135273D01*
X75855500Y-61135273D01*
X75855500Y-61100805D01*
X75874407Y-61042614D01*
X75923907Y-61006650D01*
X75985093Y-61006650D01*
X76034593Y-61042614D01*
G37*
%TD.AperFunction*%
%TA.AperFunction,Conductor*%
G36*
X82001568Y-40404907D02*
G01*
X82037532Y-40454407D01*
X82042376Y-40484622D01*
X82110328Y-58287935D01*
X82167619Y-73298301D01*
X82168621Y-73560622D01*
X82149936Y-73618885D01*
X82100574Y-73655037D01*
X82069622Y-73660000D01*
X63853000Y-73660000D01*
X63794809Y-73641093D01*
X63758845Y-73591593D01*
X63754000Y-73561000D01*
X63754000Y-72263003D01*
X64095417Y-72263003D01*
X64115698Y-72468929D01*
X64115699Y-72468934D01*
X64175768Y-72666954D01*
X64273316Y-72849452D01*
X64404585Y-73009404D01*
X64404590Y-73009410D01*
X64404595Y-73009414D01*
X64564547Y-73140683D01*
X64564548Y-73140683D01*
X64564550Y-73140685D01*
X64747046Y-73238232D01*
X64884996Y-73280078D01*
X64945065Y-73298300D01*
X64945070Y-73298301D01*
X65150997Y-73318583D01*
X65151000Y-73318583D01*
X65151003Y-73318583D01*
X65356929Y-73298301D01*
X65356934Y-73298300D01*
X65399130Y-73285500D01*
X65554954Y-73238232D01*
X65737450Y-73140685D01*
X65897410Y-73009410D01*
X66028685Y-72849450D01*
X66126232Y-72666954D01*
X66186300Y-72468934D01*
X66186301Y-72468929D01*
X66206583Y-72263003D01*
X66206583Y-72262996D01*
X66186301Y-72057070D01*
X66186300Y-72057065D01*
X66168078Y-71996996D01*
X66126232Y-71859046D01*
X66028685Y-71676550D01*
X66019320Y-71665139D01*
X65897414Y-71516595D01*
X65897410Y-71516590D01*
X65859562Y-71485529D01*
X65737452Y-71385316D01*
X65554954Y-71287768D01*
X65356934Y-71227699D01*
X65356929Y-71227698D01*
X65151003Y-71207417D01*
X65150997Y-71207417D01*
X64945070Y-71227698D01*
X64945065Y-71227699D01*
X64747045Y-71287768D01*
X64564547Y-71385316D01*
X64404595Y-71516585D01*
X64404585Y-71516595D01*
X64273316Y-71676547D01*
X64175768Y-71859045D01*
X64115699Y-72057065D01*
X64115698Y-72057070D01*
X64095417Y-72262996D01*
X64095417Y-72263003D01*
X63754000Y-72263003D01*
X63754000Y-69723003D01*
X64095417Y-69723003D01*
X64115698Y-69928929D01*
X64115699Y-69928934D01*
X64175768Y-70126954D01*
X64273316Y-70309452D01*
X64371501Y-70429091D01*
X64404590Y-70469410D01*
X64425740Y-70486767D01*
X64564547Y-70600683D01*
X64564548Y-70600683D01*
X64564550Y-70600685D01*
X64747046Y-70698232D01*
X64863607Y-70733590D01*
X64945065Y-70758300D01*
X64945070Y-70758301D01*
X65150997Y-70778583D01*
X65151000Y-70778583D01*
X65151003Y-70778583D01*
X65356929Y-70758301D01*
X65356934Y-70758300D01*
X65361223Y-70756999D01*
X65554954Y-70698232D01*
X65554957Y-70698230D01*
X65556171Y-70697862D01*
X65617344Y-70699063D01*
X65654913Y-70722595D01*
X66140199Y-71207881D01*
X66153074Y-71223737D01*
X66159563Y-71233669D01*
X66186110Y-71254332D01*
X66190708Y-71258392D01*
X66193687Y-71261370D01*
X66193690Y-71261372D01*
X66193693Y-71261375D01*
X66206370Y-71270425D01*
X66211435Y-71274042D01*
X66221914Y-71282198D01*
X66251874Y-71305517D01*
X66251875Y-71305517D01*
X66251876Y-71305518D01*
X66258318Y-71309005D01*
X66264932Y-71312238D01*
X66264933Y-71312238D01*
X66264934Y-71312239D01*
X66314033Y-71326856D01*
X66362512Y-71343500D01*
X66362513Y-71343500D01*
X66369732Y-71344705D01*
X66377039Y-71345615D01*
X66377046Y-71345617D01*
X66428231Y-71343500D01*
X66878814Y-71343500D01*
X66937005Y-71362407D01*
X66972969Y-71411907D01*
X66972969Y-71473093D01*
X66946607Y-71511728D01*
X66948030Y-71513151D01*
X66944585Y-71516595D01*
X66813316Y-71676547D01*
X66715768Y-71859045D01*
X66655699Y-72057065D01*
X66655698Y-72057070D01*
X66635417Y-72262996D01*
X66635417Y-72263003D01*
X66655698Y-72468929D01*
X66655699Y-72468934D01*
X66715768Y-72666954D01*
X66813316Y-72849452D01*
X66944585Y-73009404D01*
X66944590Y-73009410D01*
X66944595Y-73009414D01*
X67104547Y-73140683D01*
X67104548Y-73140683D01*
X67104550Y-73140685D01*
X67287046Y-73238232D01*
X67424996Y-73280078D01*
X67485065Y-73298300D01*
X67485070Y-73298301D01*
X67690997Y-73318583D01*
X67691000Y-73318583D01*
X67691003Y-73318583D01*
X67896929Y-73298301D01*
X67896934Y-73298300D01*
X67939130Y-73285500D01*
X68094954Y-73238232D01*
X68277450Y-73140685D01*
X68437410Y-73009410D01*
X68568685Y-72849450D01*
X68666232Y-72666954D01*
X68726300Y-72468934D01*
X68726301Y-72468929D01*
X68746583Y-72263003D01*
X68746583Y-72262996D01*
X68726301Y-72057070D01*
X68726300Y-72057065D01*
X68708078Y-71996996D01*
X68666232Y-71859046D01*
X68568685Y-71676550D01*
X68559320Y-71665139D01*
X68437414Y-71516595D01*
X68437410Y-71516590D01*
X68437404Y-71516585D01*
X68433970Y-71513151D01*
X68435581Y-71511539D01*
X68407388Y-71467475D01*
X68411004Y-71406396D01*
X68449831Y-71359108D01*
X68503186Y-71343500D01*
X68533381Y-71343500D01*
X68553696Y-71345607D01*
X68555844Y-71346057D01*
X68565315Y-71348043D01*
X68598712Y-71343879D01*
X68604837Y-71343500D01*
X68609041Y-71343500D01*
X68623463Y-71341093D01*
X68630540Y-71339912D01*
X68681393Y-71333573D01*
X68681396Y-71333571D01*
X68688429Y-71331477D01*
X68695377Y-71329092D01*
X68695381Y-71329092D01*
X68740444Y-71304704D01*
X68786484Y-71282198D01*
X68792470Y-71277923D01*
X68798256Y-71273420D01*
X68815828Y-71254332D01*
X68832957Y-71235724D01*
X69209747Y-70858933D01*
X69264262Y-70831157D01*
X69324694Y-70840728D01*
X69367959Y-70883993D01*
X69377902Y-70916015D01*
X69391955Y-71022759D01*
X69391957Y-71022766D01*
X69452462Y-71168838D01*
X69452462Y-71168839D01*
X69548713Y-71294276D01*
X69548718Y-71294282D01*
X69548722Y-71294285D01*
X69548723Y-71294286D01*
X69558323Y-71301652D01*
X69674159Y-71390536D01*
X69697565Y-71400231D01*
X69744090Y-71439966D01*
X69758375Y-71499460D01*
X69750245Y-71531682D01*
X69702415Y-71640008D01*
X69702414Y-71640011D01*
X69699500Y-71665130D01*
X69699500Y-73029860D01*
X69699501Y-73029863D01*
X69702414Y-73054990D01*
X69727756Y-73112384D01*
X69747794Y-73157765D01*
X69827235Y-73237206D01*
X69930009Y-73282585D01*
X69955135Y-73285500D01*
X70244864Y-73285499D01*
X70269991Y-73282585D01*
X70372765Y-73237206D01*
X70372766Y-73237204D01*
X70381157Y-73233500D01*
X70382205Y-73235875D01*
X70427739Y-73222462D01*
X70467948Y-73235526D01*
X70468843Y-73233500D01*
X70477233Y-73237204D01*
X70477235Y-73237206D01*
X70580009Y-73282585D01*
X70605135Y-73285500D01*
X70894864Y-73285499D01*
X70919991Y-73282585D01*
X71022765Y-73237206D01*
X71022766Y-73237204D01*
X71031157Y-73233500D01*
X71032205Y-73235875D01*
X71077739Y-73222462D01*
X71117948Y-73235526D01*
X71118843Y-73233500D01*
X71127233Y-73237204D01*
X71127235Y-73237206D01*
X71230009Y-73282585D01*
X71255135Y-73285500D01*
X71544864Y-73285499D01*
X71569991Y-73282585D01*
X71672765Y-73237206D01*
X71672766Y-73237204D01*
X71681157Y-73233500D01*
X71682205Y-73235875D01*
X71727739Y-73222462D01*
X71767948Y-73235526D01*
X71768843Y-73233500D01*
X71777233Y-73237204D01*
X71777235Y-73237206D01*
X71880009Y-73282585D01*
X71905135Y-73285500D01*
X72194864Y-73285499D01*
X72219991Y-73282585D01*
X72322765Y-73237206D01*
X72322766Y-73237204D01*
X72331157Y-73233500D01*
X72332205Y-73235875D01*
X72377739Y-73222462D01*
X72417948Y-73235526D01*
X72418843Y-73233500D01*
X72427233Y-73237204D01*
X72427235Y-73237206D01*
X72530009Y-73282585D01*
X72555135Y-73285500D01*
X72844864Y-73285499D01*
X72869991Y-73282585D01*
X72972765Y-73237206D01*
X72972766Y-73237204D01*
X72981157Y-73233500D01*
X72982205Y-73235875D01*
X73027739Y-73222462D01*
X73067948Y-73235526D01*
X73068843Y-73233500D01*
X73077233Y-73237204D01*
X73077235Y-73237206D01*
X73180009Y-73282585D01*
X73205135Y-73285500D01*
X73494864Y-73285499D01*
X73519991Y-73282585D01*
X73622765Y-73237206D01*
X73622766Y-73237204D01*
X73631157Y-73233500D01*
X73632205Y-73235875D01*
X73677739Y-73222462D01*
X73717948Y-73235526D01*
X73718843Y-73233500D01*
X73727233Y-73237204D01*
X73727235Y-73237206D01*
X73830009Y-73282585D01*
X73855135Y-73285500D01*
X74144864Y-73285499D01*
X74169991Y-73282585D01*
X74272765Y-73237206D01*
X74272766Y-73237204D01*
X74281157Y-73233500D01*
X74282205Y-73235875D01*
X74327739Y-73222462D01*
X74367948Y-73235526D01*
X74368843Y-73233500D01*
X74377233Y-73237204D01*
X74377235Y-73237206D01*
X74480009Y-73282585D01*
X74505135Y-73285500D01*
X74794864Y-73285499D01*
X74819991Y-73282585D01*
X74922765Y-73237206D01*
X74922766Y-73237204D01*
X74931157Y-73233500D01*
X74932205Y-73235875D01*
X74977739Y-73222462D01*
X75017948Y-73235526D01*
X75018843Y-73233500D01*
X75027233Y-73237204D01*
X75027235Y-73237206D01*
X75130009Y-73282585D01*
X75155135Y-73285500D01*
X75444864Y-73285499D01*
X75469991Y-73282585D01*
X75572765Y-73237206D01*
X75572766Y-73237204D01*
X75581157Y-73233500D01*
X75582205Y-73235875D01*
X75627739Y-73222462D01*
X75667948Y-73235526D01*
X75668843Y-73233500D01*
X75677233Y-73237204D01*
X75677235Y-73237206D01*
X75780009Y-73282585D01*
X75805135Y-73285500D01*
X76094864Y-73285499D01*
X76119991Y-73282585D01*
X76222765Y-73237206D01*
X76302206Y-73157765D01*
X76347585Y-73054991D01*
X76350500Y-73029865D01*
X76350500Y-72897000D01*
X76369407Y-72838809D01*
X76418907Y-72802845D01*
X76449500Y-72798000D01*
X76879366Y-72798000D01*
X76937557Y-72816907D01*
X76972810Y-72864302D01*
X76998207Y-72936883D01*
X77078845Y-73046144D01*
X77078847Y-73046146D01*
X77078850Y-73046150D01*
X77078853Y-73046152D01*
X77078855Y-73046154D01*
X77188116Y-73126792D01*
X77188117Y-73126792D01*
X77188118Y-73126793D01*
X77316301Y-73171646D01*
X77346725Y-73174499D01*
X77346727Y-73174500D01*
X77346734Y-73174500D01*
X78355273Y-73174500D01*
X78355273Y-73174499D01*
X78385699Y-73171646D01*
X78513882Y-73126793D01*
X78623150Y-73046150D01*
X78703793Y-72936882D01*
X78719917Y-72890801D01*
X78756982Y-72842122D01*
X78813361Y-72824500D01*
X79108913Y-72824500D01*
X79114459Y-72824811D01*
X79154035Y-72829270D01*
X79212479Y-72818211D01*
X79271287Y-72809348D01*
X79271294Y-72809344D01*
X79278381Y-72807159D01*
X79278512Y-72807584D01*
X79280613Y-72806892D01*
X79280467Y-72806473D01*
X79287464Y-72804024D01*
X79287472Y-72804023D01*
X79301322Y-72796702D01*
X79340072Y-72776223D01*
X79366857Y-72763323D01*
X79393642Y-72750425D01*
X79393646Y-72750421D01*
X79399778Y-72746242D01*
X79400028Y-72746609D01*
X79401832Y-72745329D01*
X79401568Y-72744971D01*
X79407529Y-72740570D01*
X79407538Y-72740566D01*
X79449599Y-72698504D01*
X79493194Y-72658055D01*
X79493198Y-72658047D01*
X79497820Y-72652253D01*
X79498166Y-72652529D01*
X79506703Y-72641399D01*
X80435699Y-71712402D01*
X80439830Y-71708710D01*
X80470970Y-71683879D01*
X80504480Y-71634728D01*
X80539793Y-71586882D01*
X80539796Y-71586873D01*
X80543263Y-71580316D01*
X80543655Y-71580523D01*
X80544651Y-71578550D01*
X80544252Y-71578358D01*
X80547468Y-71571677D01*
X80547472Y-71571673D01*
X80565007Y-71514822D01*
X80584646Y-71458699D01*
X80584646Y-71458696D01*
X80586026Y-71451407D01*
X80586460Y-71451489D01*
X80586831Y-71449307D01*
X80586394Y-71449242D01*
X80587500Y-71441904D01*
X80587500Y-71382441D01*
X80587941Y-71370646D01*
X80589725Y-71322990D01*
X80589723Y-71322984D01*
X80588894Y-71315616D01*
X80589331Y-71315566D01*
X80587500Y-71301652D01*
X80587500Y-70733590D01*
X80606407Y-70675399D01*
X80655907Y-70639435D01*
X80717093Y-70639435D01*
X80765042Y-70673323D01*
X80830246Y-70758300D01*
X80851718Y-70786282D01*
X80851722Y-70786285D01*
X80851723Y-70786286D01*
X80863057Y-70794983D01*
X80977159Y-70882536D01*
X80977160Y-70882536D01*
X80977161Y-70882537D01*
X81108364Y-70936883D01*
X81123238Y-70943044D01*
X81240809Y-70958522D01*
X81279999Y-70963682D01*
X81280000Y-70963682D01*
X81280001Y-70963682D01*
X81311352Y-70959554D01*
X81436762Y-70943044D01*
X81582841Y-70882536D01*
X81708282Y-70786282D01*
X81804536Y-70660841D01*
X81865044Y-70514762D01*
X81885682Y-70358000D01*
X81865044Y-70201238D01*
X81853097Y-70172396D01*
X81804537Y-70055161D01*
X81804537Y-70055160D01*
X81727958Y-69955360D01*
X81707534Y-69897684D01*
X81707500Y-69895093D01*
X81707500Y-69226365D01*
X81726407Y-69168174D01*
X81757108Y-69142389D01*
X81756806Y-69141965D01*
X81762197Y-69138115D01*
X81763020Y-69137423D01*
X81763483Y-69137198D01*
X81846198Y-69054483D01*
X81897573Y-68949393D01*
X81907500Y-68881260D01*
X81907500Y-67164740D01*
X81897573Y-67096607D01*
X81846198Y-66991517D01*
X81763483Y-66908802D01*
X81763481Y-66908801D01*
X81658395Y-66857427D01*
X81631139Y-66853456D01*
X81590260Y-66847500D01*
X81223740Y-66847500D01*
X81189673Y-66852463D01*
X81155604Y-66857427D01*
X81050518Y-66908801D01*
X80967801Y-66991518D01*
X80916427Y-67096604D01*
X80911463Y-67130673D01*
X80906500Y-67164740D01*
X80906500Y-68881260D01*
X80909135Y-68899345D01*
X80916427Y-68949395D01*
X80945977Y-69009839D01*
X80967802Y-69054483D01*
X81050517Y-69137198D01*
X81050978Y-69137423D01*
X81051387Y-69137819D01*
X81057194Y-69141965D01*
X81056572Y-69142835D01*
X81094953Y-69179965D01*
X81106500Y-69226365D01*
X81106500Y-69713739D01*
X81087593Y-69771930D01*
X81045386Y-69805203D01*
X80977160Y-69833463D01*
X80851723Y-69929713D01*
X80851713Y-69929723D01*
X80765042Y-70042676D01*
X80714617Y-70077332D01*
X80653453Y-70075730D01*
X80604911Y-70038483D01*
X80587500Y-69982409D01*
X80587500Y-69054267D01*
X80597559Y-69010787D01*
X80627573Y-68949393D01*
X80637500Y-68881260D01*
X80637500Y-67164740D01*
X80627573Y-67096607D01*
X80597559Y-67035211D01*
X80587500Y-66991731D01*
X80587500Y-66775610D01*
X80606407Y-66717419D01*
X80616490Y-66705612D01*
X81705699Y-65616402D01*
X81709830Y-65612710D01*
X81740970Y-65587879D01*
X81774480Y-65538728D01*
X81809793Y-65490882D01*
X81809796Y-65490873D01*
X81813263Y-65484316D01*
X81813655Y-65484523D01*
X81814653Y-65482547D01*
X81814254Y-65482355D01*
X81817473Y-65475671D01*
X81835006Y-65418828D01*
X81840096Y-65404278D01*
X81854646Y-65362700D01*
X81854646Y-65362693D01*
X81856026Y-65355407D01*
X81856460Y-65355489D01*
X81856831Y-65353307D01*
X81856394Y-65353242D01*
X81857500Y-65345904D01*
X81857500Y-65286427D01*
X81858436Y-65261407D01*
X81859724Y-65226990D01*
X81859722Y-65226982D01*
X81858893Y-65219618D01*
X81859331Y-65219568D01*
X81857500Y-65205657D01*
X81857500Y-64104267D01*
X81867559Y-64060787D01*
X81897573Y-63999393D01*
X81907500Y-63931260D01*
X81907500Y-62214740D01*
X81897573Y-62146607D01*
X81876256Y-62103003D01*
X81864401Y-62078752D01*
X81846198Y-62041517D01*
X81763483Y-61958802D01*
X81753548Y-61953945D01*
X81658395Y-61907427D01*
X81631139Y-61903456D01*
X81590260Y-61897500D01*
X81223740Y-61897500D01*
X81189673Y-61902463D01*
X81155604Y-61907427D01*
X81046890Y-61960574D01*
X80986308Y-61969145D01*
X80969753Y-61960361D01*
X80977798Y-62011158D01*
X80968958Y-62039151D01*
X80916427Y-62146604D01*
X80914161Y-62162158D01*
X80906500Y-62214740D01*
X80906500Y-63931260D01*
X80909451Y-63951513D01*
X80916427Y-63999394D01*
X80929033Y-64025181D01*
X80946440Y-64060787D01*
X80956499Y-64104266D01*
X80956499Y-65050389D01*
X80937592Y-65108580D01*
X80927503Y-65120393D01*
X79979393Y-66068504D01*
X79924876Y-66096281D01*
X79909389Y-66097500D01*
X79856611Y-66097500D01*
X79798420Y-66078593D01*
X79786607Y-66068504D01*
X79205402Y-65487298D01*
X79201700Y-65483155D01*
X79201062Y-65482355D01*
X79176879Y-65452030D01*
X79127728Y-65418519D01*
X79079882Y-65383207D01*
X79079879Y-65383205D01*
X79073322Y-65379740D01*
X79073526Y-65379352D01*
X79071544Y-65378352D01*
X79071355Y-65378746D01*
X79064673Y-65375528D01*
X79007822Y-65357992D01*
X78951700Y-65338354D01*
X78944414Y-65336976D01*
X78944495Y-65336544D01*
X78942302Y-65336171D01*
X78942237Y-65336605D01*
X78934903Y-65335500D01*
X78934902Y-65335500D01*
X78875427Y-65335500D01*
X78855614Y-65334758D01*
X78815990Y-65333276D01*
X78815989Y-65333276D01*
X78815988Y-65333276D01*
X78808615Y-65334107D01*
X78808565Y-65333668D01*
X78794656Y-65335500D01*
X77824612Y-65335500D01*
X77766421Y-65316593D01*
X77754608Y-65306504D01*
X77187496Y-64739392D01*
X77159719Y-64684875D01*
X77158500Y-64669388D01*
X77158500Y-64413330D01*
X77177407Y-64355139D01*
X77226907Y-64319175D01*
X77288093Y-64319175D01*
X77290198Y-64319886D01*
X77362397Y-64345149D01*
X77362396Y-64345149D01*
X77392788Y-64347999D01*
X77446999Y-64347998D01*
X77447000Y-64347998D01*
X77447000Y-61797999D01*
X77392796Y-61798000D01*
X77362399Y-61800850D01*
X77362397Y-61800850D01*
X77290197Y-61826114D01*
X77229027Y-61827486D01*
X77178733Y-61792642D01*
X77158525Y-61734889D01*
X77158500Y-61732669D01*
X77158500Y-61414305D01*
X77177407Y-61356114D01*
X77191846Y-61340207D01*
X77236183Y-61300929D01*
X77332818Y-61160930D01*
X77393140Y-61001872D01*
X77408500Y-60875372D01*
X77408500Y-56918646D01*
X77408589Y-56915682D01*
X77412357Y-56853394D01*
X77401103Y-56791986D01*
X77400664Y-56789100D01*
X77393140Y-56727128D01*
X77388740Y-56715528D01*
X77383930Y-56698275D01*
X77381694Y-56686068D01*
X77356078Y-56629153D01*
X77354950Y-56626429D01*
X77332818Y-56568070D01*
X77325767Y-56557856D01*
X77316964Y-56542248D01*
X77311877Y-56530943D01*
X77273386Y-56481812D01*
X77271638Y-56479437D01*
X77242034Y-56436547D01*
X77236185Y-56428073D01*
X77236182Y-56428069D01*
X77189489Y-56386703D01*
X77187311Y-56384653D01*
X76838344Y-56035686D01*
X76836294Y-56033508D01*
X76795709Y-55987698D01*
X76794929Y-55986817D01*
X76794925Y-55986814D01*
X76743576Y-55951369D01*
X76741168Y-55949598D01*
X76692054Y-55911120D01*
X76680743Y-55906029D01*
X76665141Y-55897229D01*
X76654933Y-55890183D01*
X76596600Y-55868060D01*
X76593848Y-55866920D01*
X76566048Y-55854409D01*
X76536933Y-55841305D01*
X76536926Y-55841303D01*
X76524723Y-55839067D01*
X76507461Y-55834255D01*
X76495875Y-55829861D01*
X76495873Y-55829860D01*
X76433954Y-55822341D01*
X76430999Y-55821891D01*
X76369602Y-55810641D01*
X76330598Y-55813001D01*
X76307306Y-55814410D01*
X76304341Y-55814500D01*
X72848165Y-55814500D01*
X72789974Y-55795593D01*
X72778161Y-55785504D01*
X72728367Y-55735710D01*
X72728367Y-55735709D01*
X71976495Y-54983838D01*
X71948719Y-54929322D01*
X71947500Y-54913835D01*
X71947500Y-54370500D01*
X73777785Y-54370500D01*
X73796603Y-54573583D01*
X73852418Y-54769750D01*
X73943327Y-54952321D01*
X74066236Y-55115079D01*
X74216959Y-55252481D01*
X74390363Y-55359848D01*
X74580544Y-55433524D01*
X74781024Y-55471000D01*
X74984976Y-55471000D01*
X75185456Y-55433524D01*
X75375637Y-55359848D01*
X75549041Y-55252481D01*
X75699764Y-55115079D01*
X75822673Y-54952321D01*
X75902962Y-54791078D01*
X75910534Y-54775872D01*
X75953397Y-54732209D01*
X75999155Y-54721000D01*
X76409310Y-54721000D01*
X76467501Y-54739907D01*
X76479314Y-54749996D01*
X78249504Y-56520186D01*
X78277281Y-56574703D01*
X78278500Y-56590190D01*
X78278500Y-59202307D01*
X78259593Y-59260498D01*
X78210093Y-59296462D01*
X78200069Y-59298542D01*
X78200185Y-59299069D01*
X78194296Y-59300355D01*
X78066116Y-59345207D01*
X77956855Y-59425845D01*
X77956845Y-59425855D01*
X77876207Y-59535116D01*
X77831355Y-59663296D01*
X77831353Y-59663305D01*
X77828500Y-59693725D01*
X77828500Y-60702274D01*
X77831353Y-60732694D01*
X77831355Y-60732703D01*
X77876207Y-60860883D01*
X77956845Y-60970144D01*
X77956847Y-60970146D01*
X77956850Y-60970150D01*
X77956853Y-60970152D01*
X77956855Y-60970154D01*
X78066116Y-61050792D01*
X78066117Y-61050792D01*
X78066118Y-61050793D01*
X78194301Y-61095646D01*
X78224725Y-61098499D01*
X78224727Y-61098500D01*
X78224734Y-61098500D01*
X78417500Y-61098500D01*
X78475691Y-61117407D01*
X78511655Y-61166907D01*
X78516500Y-61197500D01*
X78516500Y-61911812D01*
X78497593Y-61970003D01*
X78487509Y-61981809D01*
X78449053Y-62020266D01*
X78427801Y-62041518D01*
X78373050Y-62153514D01*
X78371453Y-62152733D01*
X78341691Y-62194965D01*
X78283779Y-62214709D01*
X78225322Y-62196642D01*
X78188907Y-62148416D01*
X78149345Y-62035352D01*
X78068792Y-61926209D01*
X78068790Y-61926207D01*
X77959647Y-61845654D01*
X77831601Y-61800850D01*
X77801211Y-61798000D01*
X77747001Y-61798000D01*
X77747000Y-61798001D01*
X77747000Y-64347997D01*
X77747001Y-64347999D01*
X77801203Y-64347999D01*
X77831600Y-64345149D01*
X77831602Y-64345149D01*
X77959647Y-64300345D01*
X78068790Y-64219792D01*
X78068792Y-64219790D01*
X78149344Y-64110647D01*
X78188907Y-63997583D01*
X78225972Y-63948902D01*
X78284573Y-63931305D01*
X78342325Y-63951513D01*
X78371487Y-63993249D01*
X78373050Y-63992486D01*
X78394124Y-64035593D01*
X78427802Y-64104483D01*
X78510517Y-64187198D01*
X78564285Y-64213483D01*
X78615604Y-64238572D01*
X78615605Y-64238572D01*
X78615607Y-64238573D01*
X78683740Y-64248500D01*
X78683743Y-64248500D01*
X79050257Y-64248500D01*
X79050260Y-64248500D01*
X79118393Y-64238573D01*
X79223483Y-64187198D01*
X79306198Y-64104483D01*
X79357573Y-63999393D01*
X79367500Y-63931260D01*
X79367500Y-62214740D01*
X79357573Y-62146607D01*
X79336256Y-62103003D01*
X79324401Y-62078752D01*
X79306198Y-62041517D01*
X79246494Y-61981813D01*
X79218719Y-61927299D01*
X79217500Y-61911812D01*
X79217500Y-61081863D01*
X79236407Y-61023672D01*
X79257710Y-61002209D01*
X79301150Y-60970150D01*
X79381793Y-60860882D01*
X79426646Y-60732699D01*
X79429499Y-60702273D01*
X79429500Y-60702273D01*
X79429500Y-59693726D01*
X79429499Y-59693725D01*
X79426646Y-59663305D01*
X79426646Y-59663301D01*
X79381793Y-59535118D01*
X79368635Y-59517290D01*
X79301154Y-59425855D01*
X79301152Y-59425853D01*
X79301150Y-59425850D01*
X79301146Y-59425847D01*
X79301144Y-59425845D01*
X79191883Y-59345207D01*
X79063703Y-59300355D01*
X79063699Y-59300354D01*
X79063697Y-59300353D01*
X79057815Y-59299069D01*
X79058434Y-59296234D01*
X79012962Y-59276508D01*
X78981864Y-59223814D01*
X78979500Y-59202307D01*
X78979500Y-56450613D01*
X78981607Y-56430297D01*
X78982074Y-56428069D01*
X78984042Y-56418685D01*
X78979879Y-56385294D01*
X78979500Y-56379168D01*
X78979500Y-56374954D01*
X78975911Y-56353449D01*
X78972290Y-56324407D01*
X78969573Y-56302607D01*
X78969571Y-56302604D01*
X78967477Y-56295569D01*
X78965091Y-56288616D01*
X78940704Y-56243554D01*
X78918198Y-56197515D01*
X78913948Y-56191562D01*
X78909418Y-56185742D01*
X78871724Y-56151041D01*
X76876301Y-54155619D01*
X76863425Y-54139762D01*
X76856937Y-54129831D01*
X76830385Y-54109165D01*
X76825783Y-54105101D01*
X76822807Y-54102125D01*
X76805060Y-54089454D01*
X76764628Y-54057984D01*
X76758177Y-54054493D01*
X76751568Y-54051261D01*
X76751566Y-54051260D01*
X76702454Y-54036638D01*
X76653988Y-54020000D01*
X76653985Y-54019999D01*
X76646760Y-54018793D01*
X76639455Y-54017883D01*
X76639454Y-54017883D01*
X76639452Y-54017883D01*
X76588269Y-54020000D01*
X75999155Y-54020000D01*
X75940964Y-54001093D01*
X75910534Y-53965128D01*
X75822676Y-53788686D01*
X75822673Y-53788679D01*
X75699764Y-53625921D01*
X75549041Y-53488519D01*
X75375637Y-53381152D01*
X75185456Y-53307476D01*
X75185455Y-53307475D01*
X75185453Y-53307475D01*
X74984976Y-53270000D01*
X74781024Y-53270000D01*
X74580546Y-53307475D01*
X74510632Y-53334559D01*
X74390363Y-53381152D01*
X74282886Y-53447699D01*
X74216959Y-53488519D01*
X74066237Y-53625920D01*
X73943328Y-53788677D01*
X73943323Y-53788686D01*
X73872312Y-53931297D01*
X73852418Y-53971250D01*
X73796603Y-54167417D01*
X73777785Y-54370500D01*
X71947500Y-54370500D01*
X71947500Y-50870500D01*
X78777785Y-50870500D01*
X78796603Y-51073583D01*
X78852418Y-51269750D01*
X78943327Y-51452321D01*
X79066236Y-51615079D01*
X79216959Y-51752481D01*
X79390363Y-51859848D01*
X79390367Y-51859849D01*
X79390368Y-51859850D01*
X79469262Y-51890413D01*
X79516693Y-51929064D01*
X79532500Y-51982728D01*
X79532500Y-54055381D01*
X79530393Y-54075696D01*
X79527957Y-54087313D01*
X79532120Y-54120709D01*
X79532500Y-54126837D01*
X79532500Y-54131038D01*
X79536087Y-54152541D01*
X79542425Y-54203388D01*
X79544527Y-54210448D01*
X79546907Y-54217380D01*
X79571295Y-54262444D01*
X79593801Y-54308482D01*
X79598078Y-54314472D01*
X79602579Y-54320255D01*
X79640275Y-54354958D01*
X80249504Y-54964185D01*
X80277281Y-55018702D01*
X80278500Y-55034189D01*
X80278500Y-59202307D01*
X80259593Y-59260498D01*
X80210093Y-59296462D01*
X80200069Y-59298542D01*
X80200185Y-59299069D01*
X80194296Y-59300355D01*
X80066116Y-59345207D01*
X79956855Y-59425845D01*
X79956845Y-59425855D01*
X79876207Y-59535116D01*
X79831355Y-59663296D01*
X79831353Y-59663305D01*
X79828500Y-59693725D01*
X79828500Y-60702274D01*
X79831353Y-60732694D01*
X79831355Y-60732703D01*
X79876207Y-60860883D01*
X79956845Y-60970144D01*
X79956847Y-60970146D01*
X79956850Y-60970150D01*
X79956853Y-60970152D01*
X79956855Y-60970154D01*
X80066116Y-61050792D01*
X80066117Y-61050792D01*
X80066118Y-61050793D01*
X80194301Y-61095646D01*
X80194308Y-61095646D01*
X80200185Y-61096931D01*
X80199556Y-61099806D01*
X80244871Y-61119344D01*
X80276087Y-61171967D01*
X80278500Y-61193692D01*
X80278500Y-61424810D01*
X80259593Y-61483001D01*
X80249503Y-61494814D01*
X79922120Y-61822196D01*
X79906269Y-61835069D01*
X79896332Y-61841561D01*
X79875664Y-61868114D01*
X79871605Y-61872712D01*
X79868620Y-61875697D01*
X79855955Y-61893438D01*
X79834235Y-61921343D01*
X79799595Y-61949474D01*
X79780520Y-61958800D01*
X79780519Y-61958800D01*
X79697801Y-62041518D01*
X79646427Y-62146604D01*
X79644161Y-62162158D01*
X79636500Y-62214740D01*
X79636500Y-63931260D01*
X79639451Y-63951513D01*
X79646427Y-63999395D01*
X79674369Y-64056550D01*
X79697802Y-64104483D01*
X79780517Y-64187198D01*
X79834285Y-64213483D01*
X79885604Y-64238572D01*
X79885605Y-64238572D01*
X79885607Y-64238573D01*
X79953740Y-64248500D01*
X79953743Y-64248500D01*
X80320257Y-64248500D01*
X80320260Y-64248500D01*
X80388393Y-64238573D01*
X80493483Y-64187198D01*
X80576198Y-64104483D01*
X80627573Y-63999393D01*
X80637500Y-63931260D01*
X80637500Y-62214740D01*
X80629838Y-62162155D01*
X80640158Y-62101849D01*
X80657797Y-62077883D01*
X80810015Y-61925665D01*
X80864530Y-61897890D01*
X80915379Y-61905943D01*
X80905386Y-61885500D01*
X80915956Y-61825235D01*
X80918349Y-61820982D01*
X80937631Y-61788621D01*
X80939852Y-61785221D01*
X80964239Y-61751067D01*
X80964938Y-61748716D01*
X80974781Y-61726277D01*
X80976037Y-61724170D01*
X80984646Y-61683108D01*
X80985642Y-61679175D01*
X80997617Y-61638954D01*
X80997515Y-61636501D01*
X80999537Y-61612088D01*
X81000042Y-61609685D01*
X80994852Y-61568049D01*
X80994517Y-61564003D01*
X80992783Y-61522078D01*
X80991888Y-61519785D01*
X80985877Y-61496042D01*
X80985574Y-61493610D01*
X80983616Y-61487034D01*
X80979500Y-61458784D01*
X80979500Y-61193692D01*
X80998407Y-61135501D01*
X81047907Y-61099537D01*
X81057932Y-61097468D01*
X81057815Y-61096931D01*
X81063689Y-61095646D01*
X81063699Y-61095646D01*
X81191882Y-61050793D01*
X81301150Y-60970150D01*
X81381793Y-60860882D01*
X81426646Y-60732699D01*
X81429499Y-60702273D01*
X81429500Y-60702273D01*
X81429500Y-59693726D01*
X81429499Y-59693725D01*
X81426646Y-59663305D01*
X81426646Y-59663301D01*
X81381793Y-59535118D01*
X81368635Y-59517290D01*
X81301154Y-59425855D01*
X81301152Y-59425853D01*
X81301150Y-59425850D01*
X81301146Y-59425847D01*
X81301144Y-59425845D01*
X81191883Y-59345207D01*
X81063703Y-59300355D01*
X81063699Y-59300354D01*
X81063697Y-59300353D01*
X81057815Y-59299069D01*
X81058434Y-59296234D01*
X81012962Y-59276508D01*
X80981864Y-59223814D01*
X80979500Y-59202307D01*
X80979500Y-54986919D01*
X80981605Y-54966612D01*
X80984647Y-54952102D01*
X80985647Y-54948157D01*
X80991255Y-54929322D01*
X80997617Y-54907954D01*
X80997515Y-54905506D01*
X80999539Y-54881085D01*
X81000043Y-54878685D01*
X80994848Y-54837023D01*
X80994516Y-54833007D01*
X80992783Y-54791078D01*
X80991889Y-54788787D01*
X80985876Y-54765042D01*
X80985573Y-54762607D01*
X80967140Y-54724902D01*
X80965514Y-54721195D01*
X80950261Y-54682103D01*
X80950259Y-54682101D01*
X80950259Y-54682100D01*
X80948672Y-54680226D01*
X80935274Y-54659718D01*
X80934198Y-54657518D01*
X80934198Y-54657517D01*
X80919365Y-54642684D01*
X80904533Y-54627851D01*
X80901761Y-54624840D01*
X80874659Y-54592841D01*
X80872551Y-54591585D01*
X80853225Y-54576544D01*
X80262496Y-53985814D01*
X80234719Y-53931297D01*
X80233500Y-53915810D01*
X80233500Y-51982728D01*
X80252407Y-51924537D01*
X80296738Y-51890413D01*
X80299651Y-51889284D01*
X80375637Y-51859848D01*
X80549041Y-51752481D01*
X80699764Y-51615079D01*
X80822673Y-51452321D01*
X80913582Y-51269750D01*
X80969397Y-51073583D01*
X80988215Y-50870500D01*
X80969397Y-50667417D01*
X80913582Y-50471250D01*
X80822673Y-50288679D01*
X80699764Y-50125921D01*
X80549041Y-49988519D01*
X80375637Y-49881152D01*
X80185456Y-49807476D01*
X80185455Y-49807475D01*
X80185453Y-49807475D01*
X79984976Y-49770000D01*
X79781024Y-49770000D01*
X79580546Y-49807475D01*
X79510632Y-49834559D01*
X79390363Y-49881152D01*
X79216959Y-49988519D01*
X79066236Y-50125921D01*
X79048498Y-50149410D01*
X78943328Y-50288677D01*
X78943323Y-50288686D01*
X78858725Y-50458583D01*
X78852418Y-50471250D01*
X78796603Y-50667417D01*
X78777785Y-50870500D01*
X71947500Y-50870500D01*
X71947500Y-47956163D01*
X71966407Y-47897972D01*
X71976489Y-47886166D01*
X72492158Y-47370499D01*
X73677859Y-47370499D01*
X73698379Y-47591945D01*
X73759239Y-47805847D01*
X73858364Y-48004917D01*
X73858369Y-48004926D01*
X73934985Y-48106381D01*
X74362971Y-47678393D01*
X74455075Y-47798425D01*
X74575104Y-47890526D01*
X74144535Y-48321096D01*
X74156740Y-48332222D01*
X74345823Y-48449297D01*
X74553200Y-48529636D01*
X74771804Y-48570500D01*
X74994196Y-48570500D01*
X75212799Y-48529636D01*
X75420178Y-48449297D01*
X75420183Y-48449294D01*
X75609258Y-48332224D01*
X75609261Y-48332221D01*
X75621463Y-48321096D01*
X75190894Y-47890527D01*
X75310925Y-47798425D01*
X75403027Y-47678394D01*
X75831015Y-48106382D01*
X75907624Y-48004936D01*
X75907633Y-48004921D01*
X76006760Y-47805847D01*
X76067620Y-47591945D01*
X76088140Y-47370500D01*
X76067620Y-47149054D01*
X76006760Y-46935152D01*
X75907635Y-46736082D01*
X75907630Y-46736073D01*
X75831014Y-46634617D01*
X75403026Y-47062604D01*
X75310925Y-46942575D01*
X75190893Y-46850471D01*
X75621463Y-46419902D01*
X75609259Y-46408777D01*
X75420176Y-46291702D01*
X75212799Y-46211363D01*
X74994196Y-46170500D01*
X74771804Y-46170500D01*
X74553200Y-46211363D01*
X74345821Y-46291702D01*
X74345816Y-46291705D01*
X74156742Y-46408775D01*
X74156739Y-46408777D01*
X74144535Y-46419902D01*
X74575105Y-46850472D01*
X74455075Y-46942575D01*
X74362972Y-47062605D01*
X73934985Y-46634618D01*
X73858369Y-46736073D01*
X73858364Y-46736082D01*
X73759239Y-46935152D01*
X73698379Y-47149054D01*
X73677859Y-47370499D01*
X72492158Y-47370499D01*
X72534290Y-47328367D01*
X72534290Y-47328366D01*
X72770457Y-47092199D01*
X72784222Y-47080727D01*
X72794429Y-47073683D01*
X72835830Y-47026948D01*
X72837828Y-47024827D01*
X72851790Y-47010867D01*
X72851789Y-47010867D01*
X72898514Y-46964146D01*
X72898552Y-46964103D01*
X73613790Y-46248867D01*
X73643974Y-46218683D01*
X73657899Y-46204759D01*
X73657910Y-46204746D01*
X73660571Y-46202086D01*
X75262660Y-44599996D01*
X75317177Y-44572219D01*
X75332664Y-44571000D01*
X78683500Y-44571000D01*
X78741691Y-44589907D01*
X78777655Y-44639407D01*
X78782500Y-44670000D01*
X78782500Y-44790246D01*
X78782501Y-44790258D01*
X78794132Y-44848727D01*
X78794134Y-44848733D01*
X78834706Y-44909452D01*
X78838448Y-44915052D01*
X78904769Y-44959367D01*
X78949231Y-44968211D01*
X78963241Y-44970998D01*
X78963246Y-44970998D01*
X78963252Y-44971000D01*
X78963253Y-44971000D01*
X80802747Y-44971000D01*
X80802748Y-44971000D01*
X80861231Y-44959367D01*
X80927552Y-44915052D01*
X80971867Y-44848731D01*
X80983500Y-44790248D01*
X80983500Y-42950752D01*
X80971867Y-42892269D01*
X80927552Y-42825948D01*
X80927548Y-42825945D01*
X80861233Y-42781634D01*
X80861231Y-42781633D01*
X80861228Y-42781632D01*
X80861227Y-42781632D01*
X80802758Y-42770001D01*
X80802748Y-42770000D01*
X78963252Y-42770000D01*
X78963251Y-42770000D01*
X78963241Y-42770001D01*
X78904772Y-42781632D01*
X78904766Y-42781634D01*
X78838451Y-42825945D01*
X78838445Y-42825951D01*
X78794134Y-42892266D01*
X78794132Y-42892272D01*
X78782501Y-42950741D01*
X78782500Y-42950753D01*
X78782500Y-43071000D01*
X78763593Y-43129191D01*
X78714093Y-43165155D01*
X78683500Y-43170000D01*
X75024159Y-43170000D01*
X75021193Y-43169910D01*
X74995556Y-43168359D01*
X74958895Y-43166141D01*
X74897500Y-43177391D01*
X74894546Y-43177841D01*
X74832626Y-43185360D01*
X74821029Y-43189758D01*
X74803782Y-43194566D01*
X74791567Y-43196805D01*
X74734672Y-43222411D01*
X74731910Y-43223555D01*
X74673570Y-43245681D01*
X74663352Y-43252734D01*
X74647761Y-43261527D01*
X74636448Y-43266619D01*
X74636444Y-43266622D01*
X74587327Y-43305101D01*
X74584920Y-43306872D01*
X74533571Y-43342316D01*
X74492197Y-43389017D01*
X74490148Y-43391194D01*
X73021235Y-44860107D01*
X72966718Y-44887884D01*
X72945261Y-44888923D01*
X72940605Y-44888641D01*
X72903943Y-44890859D01*
X72878306Y-44892410D01*
X72875341Y-44892500D01*
X71578165Y-44892500D01*
X71519974Y-44873593D01*
X71508161Y-44863504D01*
X70563702Y-43919045D01*
X69426367Y-42781710D01*
X69326057Y-42703122D01*
X69248494Y-42668213D01*
X69170933Y-42633305D01*
X69170928Y-42633304D01*
X69003606Y-42602641D01*
X68833807Y-42612913D01*
X68833805Y-42612913D01*
X68762333Y-42635184D01*
X68701152Y-42634444D01*
X68700901Y-42634358D01*
X68695488Y-42632500D01*
X68695487Y-42632500D01*
X68695484Y-42632499D01*
X68688262Y-42631293D01*
X68678392Y-42630063D01*
X68675069Y-42628505D01*
X68674246Y-42628386D01*
X68673097Y-42628044D01*
X68673217Y-42627638D01*
X68622988Y-42604100D01*
X68593426Y-42550530D01*
X68600998Y-42489815D01*
X68611640Y-42472162D01*
X68672936Y-42390993D01*
X68672942Y-42390983D01*
X68767935Y-42200210D01*
X68826261Y-41995216D01*
X68832027Y-41933000D01*
X68168065Y-41933000D01*
X68191000Y-41854889D01*
X68191000Y-41711111D01*
X68168065Y-41633000D01*
X68832026Y-41633000D01*
X68826261Y-41570783D01*
X68767935Y-41365789D01*
X68672942Y-41175016D01*
X68672937Y-41175007D01*
X68544503Y-41004935D01*
X68544493Y-41004924D01*
X68387004Y-40861352D01*
X68387005Y-40861352D01*
X68205793Y-40749152D01*
X68007061Y-40672162D01*
X68007055Y-40672160D01*
X67841000Y-40641118D01*
X67841000Y-41301829D01*
X67833315Y-41298320D01*
X67726763Y-41283000D01*
X67655237Y-41283000D01*
X67548685Y-41298320D01*
X67541000Y-41301829D01*
X67541000Y-40641119D01*
X67540999Y-40641118D01*
X67374944Y-40672160D01*
X67374938Y-40672162D01*
X67176206Y-40749152D01*
X66994995Y-40861352D01*
X66837506Y-41004924D01*
X66837496Y-41004935D01*
X66709062Y-41175007D01*
X66709057Y-41175016D01*
X66614064Y-41365789D01*
X66555738Y-41570783D01*
X66549973Y-41633000D01*
X67213935Y-41633000D01*
X67191000Y-41711111D01*
X67191000Y-41854889D01*
X67213935Y-41933000D01*
X66549973Y-41933000D01*
X66555738Y-41995216D01*
X66614064Y-42200210D01*
X66709057Y-42390983D01*
X66709067Y-42390999D01*
X66771625Y-42473839D01*
X66791605Y-42531670D01*
X66773777Y-42590200D01*
X66724950Y-42627073D01*
X66692622Y-42632500D01*
X66537190Y-42632500D01*
X66478999Y-42613593D01*
X66467186Y-42603504D01*
X66230496Y-42366814D01*
X66202719Y-42312297D01*
X66201500Y-42296810D01*
X66201500Y-41632998D01*
X66201500Y-40913252D01*
X66189867Y-40854769D01*
X66145552Y-40788448D01*
X66145548Y-40788445D01*
X66079233Y-40744134D01*
X66079231Y-40744133D01*
X66079228Y-40744132D01*
X66079227Y-40744132D01*
X66020758Y-40732501D01*
X66020748Y-40732500D01*
X64281252Y-40732500D01*
X64281251Y-40732500D01*
X64281241Y-40732501D01*
X64222772Y-40744132D01*
X64222766Y-40744134D01*
X64156451Y-40788445D01*
X64156445Y-40788451D01*
X64112134Y-40854766D01*
X64112132Y-40854772D01*
X64100501Y-40913241D01*
X64100500Y-40913253D01*
X64100500Y-42652746D01*
X64100501Y-42652758D01*
X64112132Y-42711227D01*
X64112134Y-42711233D01*
X64156445Y-42777548D01*
X64156448Y-42777552D01*
X64222769Y-42821867D01*
X64267231Y-42830711D01*
X64281241Y-42833498D01*
X64281246Y-42833498D01*
X64281252Y-42833500D01*
X65664810Y-42833500D01*
X65723001Y-42852407D01*
X65734814Y-42862496D01*
X66070199Y-43197881D01*
X66083074Y-43213737D01*
X66089563Y-43223669D01*
X66116110Y-43244332D01*
X66120708Y-43248392D01*
X66123687Y-43251370D01*
X66123690Y-43251372D01*
X66123693Y-43251375D01*
X66141434Y-43264041D01*
X66181874Y-43295517D01*
X66181875Y-43295517D01*
X66181876Y-43295518D01*
X66188318Y-43299005D01*
X66194932Y-43302238D01*
X66194933Y-43302238D01*
X66194934Y-43302239D01*
X66244033Y-43316856D01*
X66292512Y-43333500D01*
X66292513Y-43333500D01*
X66299732Y-43334705D01*
X66307039Y-43335615D01*
X66307046Y-43335617D01*
X66358231Y-43333500D01*
X66964110Y-43333500D01*
X67022301Y-43352407D01*
X67058265Y-43401907D01*
X67058265Y-43463093D01*
X67026915Y-43509028D01*
X66944595Y-43576585D01*
X66944585Y-43576595D01*
X66813316Y-43736547D01*
X66715768Y-43919045D01*
X66655699Y-44117065D01*
X66655698Y-44117070D01*
X66635417Y-44322996D01*
X66635417Y-44323003D01*
X66655698Y-44528929D01*
X66655699Y-44528934D01*
X66715768Y-44726954D01*
X66813316Y-44909452D01*
X66863827Y-44971000D01*
X66944590Y-45069410D01*
X66944595Y-45069414D01*
X67104547Y-45200683D01*
X67104548Y-45200683D01*
X67104550Y-45200685D01*
X67287046Y-45298232D01*
X67424996Y-45340078D01*
X67485065Y-45358300D01*
X67485070Y-45358301D01*
X67690997Y-45378583D01*
X67691000Y-45378583D01*
X67691003Y-45378583D01*
X67896929Y-45358301D01*
X67896934Y-45358300D01*
X67896933Y-45358300D01*
X68094954Y-45298232D01*
X68277450Y-45200685D01*
X68437410Y-45069410D01*
X68568685Y-44909450D01*
X68666232Y-44726954D01*
X68726300Y-44528934D01*
X68726301Y-44528929D01*
X68746583Y-44323003D01*
X68746583Y-44322247D01*
X68746689Y-44321918D01*
X68747060Y-44318160D01*
X68747884Y-44318241D01*
X68765490Y-44264056D01*
X68814990Y-44228092D01*
X68876176Y-44228092D01*
X68915584Y-44252241D01*
X69634342Y-44970998D01*
X70517504Y-45854160D01*
X70545281Y-45908677D01*
X70546500Y-45924164D01*
X70546500Y-47552346D01*
X70544878Y-47570192D01*
X70542641Y-47582394D01*
X70544804Y-47618136D01*
X70546410Y-47644692D01*
X70546500Y-47647658D01*
X70546500Y-55222340D01*
X70546410Y-55225307D01*
X70544986Y-55248851D01*
X70542641Y-55287604D01*
X70553891Y-55348999D01*
X70554341Y-55351954D01*
X70561860Y-55413873D01*
X70561861Y-55413875D01*
X70566255Y-55425461D01*
X70571067Y-55442723D01*
X70573303Y-55454926D01*
X70573305Y-55454933D01*
X70598916Y-55511837D01*
X70600060Y-55514600D01*
X70622183Y-55572932D01*
X70622183Y-55572934D01*
X70629229Y-55583141D01*
X70638029Y-55598743D01*
X70643120Y-55610054D01*
X70681598Y-55659168D01*
X70683369Y-55661576D01*
X70718814Y-55712925D01*
X70718817Y-55712929D01*
X70744530Y-55735709D01*
X70765508Y-55754294D01*
X70767686Y-55756344D01*
X72005654Y-56994312D01*
X72007704Y-56996489D01*
X72045602Y-57039268D01*
X72070038Y-57095362D01*
X72070500Y-57104917D01*
X72070500Y-57930992D01*
X72051593Y-57989183D01*
X72030288Y-58010648D01*
X71998849Y-58033850D01*
X71918207Y-58143116D01*
X71873355Y-58271296D01*
X71873353Y-58271305D01*
X71870500Y-58301725D01*
X71870500Y-59086811D01*
X71851593Y-59145002D01*
X71802093Y-59180966D01*
X71740907Y-59180966D01*
X71701496Y-59156815D01*
X71534300Y-58989619D01*
X71506523Y-58935102D01*
X71510006Y-58896513D01*
X71508400Y-58896163D01*
X71509684Y-58890280D01*
X71509684Y-58890279D01*
X71509686Y-58890274D01*
X71512500Y-58860264D01*
X71512500Y-58265736D01*
X71512500Y-58265735D01*
X71512500Y-58265730D01*
X71512499Y-58265726D01*
X71509686Y-58235731D01*
X71509686Y-58235726D01*
X71465455Y-58109321D01*
X71385930Y-58001570D01*
X71278179Y-57922045D01*
X71278176Y-57922044D01*
X71278175Y-57922043D01*
X71151777Y-57877815D01*
X71151776Y-57877814D01*
X71151774Y-57877814D01*
X71151771Y-57877813D01*
X71151768Y-57877813D01*
X71121773Y-57875000D01*
X71121764Y-57875000D01*
X70102236Y-57875000D01*
X70102226Y-57875000D01*
X70072231Y-57877813D01*
X70072222Y-57877815D01*
X69945824Y-57922043D01*
X69945821Y-57922044D01*
X69945821Y-57922045D01*
X69923614Y-57938435D01*
X69838071Y-58001569D01*
X69838069Y-58001571D01*
X69758543Y-58109324D01*
X69714315Y-58235722D01*
X69714313Y-58235731D01*
X69711500Y-58265726D01*
X69711500Y-58860273D01*
X69714313Y-58890268D01*
X69714315Y-58890277D01*
X69758543Y-59016675D01*
X69758544Y-59016676D01*
X69758545Y-59016679D01*
X69838070Y-59124430D01*
X69945821Y-59203955D01*
X70072226Y-59248186D01*
X70102226Y-59250999D01*
X70102230Y-59251000D01*
X70102236Y-59251000D01*
X70763310Y-59251000D01*
X70821501Y-59269907D01*
X70833314Y-59279996D01*
X71034814Y-59481496D01*
X71062591Y-59536013D01*
X71053020Y-59596445D01*
X71009755Y-59639710D01*
X70964810Y-59650500D01*
X70762001Y-59650500D01*
X70762000Y-59650501D01*
X70762000Y-60287999D01*
X70762001Y-60288000D01*
X71611999Y-60288000D01*
X71616663Y-60283335D01*
X71630907Y-60239498D01*
X71680407Y-60203534D01*
X71741593Y-60203534D01*
X71781003Y-60227685D01*
X71841503Y-60288184D01*
X71869281Y-60342700D01*
X71870500Y-60358188D01*
X71870500Y-61110274D01*
X71873353Y-61140694D01*
X71873355Y-61140703D01*
X71918207Y-61268883D01*
X71998845Y-61378144D01*
X71998847Y-61378146D01*
X71998850Y-61378150D01*
X71998853Y-61378152D01*
X71998855Y-61378154D01*
X72108116Y-61458792D01*
X72108117Y-61458792D01*
X72108118Y-61458793D01*
X72236301Y-61503646D01*
X72266725Y-61506499D01*
X72266727Y-61506500D01*
X72266734Y-61506500D01*
X73275273Y-61506500D01*
X73275273Y-61506499D01*
X73305699Y-61503646D01*
X73433882Y-61458793D01*
X73543150Y-61378150D01*
X73623793Y-61268882D01*
X73668646Y-61140699D01*
X73671499Y-61110273D01*
X73671500Y-61110273D01*
X73671500Y-60301726D01*
X73671499Y-60301725D01*
X73670212Y-60287999D01*
X73668646Y-60271301D01*
X73623793Y-60143118D01*
X73580055Y-60083855D01*
X73543154Y-60033855D01*
X73543152Y-60033853D01*
X73543150Y-60033850D01*
X73543146Y-60033847D01*
X73543144Y-60033845D01*
X73433883Y-59953207D01*
X73305703Y-59908355D01*
X73305694Y-59908353D01*
X73275274Y-59905500D01*
X73275266Y-59905500D01*
X72491189Y-59905500D01*
X72432998Y-59886593D01*
X72421185Y-59876504D01*
X72220185Y-59675504D01*
X72192408Y-59620987D01*
X72201979Y-59560555D01*
X72245244Y-59517290D01*
X72290189Y-59506500D01*
X73275273Y-59506500D01*
X73275273Y-59506499D01*
X73305699Y-59503646D01*
X73433882Y-59458793D01*
X73543150Y-59378150D01*
X73623793Y-59268882D01*
X73668646Y-59140699D01*
X73671499Y-59110273D01*
X73671500Y-59110273D01*
X73671500Y-59049064D01*
X73905000Y-59049064D01*
X73915613Y-59137443D01*
X73971080Y-59278095D01*
X74062435Y-59398564D01*
X74182904Y-59489919D01*
X74323556Y-59545386D01*
X74411935Y-59555999D01*
X74411942Y-59556000D01*
X74779999Y-59556000D01*
X74780000Y-59555999D01*
X74780000Y-58818501D01*
X74779999Y-58818500D01*
X73905001Y-58818500D01*
X73905000Y-58818501D01*
X73905000Y-59049064D01*
X73671500Y-59049064D01*
X73671500Y-58518499D01*
X73905000Y-58518499D01*
X73905001Y-58518500D01*
X74779999Y-58518500D01*
X74780000Y-58518498D01*
X74780000Y-57781001D01*
X74779999Y-57781000D01*
X74411935Y-57781000D01*
X74323556Y-57791613D01*
X74182904Y-57847080D01*
X74062435Y-57938435D01*
X73971080Y-58058904D01*
X73915613Y-58199556D01*
X73905000Y-58287935D01*
X73905000Y-58518499D01*
X73671500Y-58518499D01*
X73671500Y-58301726D01*
X73671499Y-58301725D01*
X73668646Y-58271305D01*
X73668646Y-58271301D01*
X73623793Y-58143118D01*
X73543150Y-58033850D01*
X73511711Y-58010647D01*
X73476119Y-57960880D01*
X73471500Y-57930992D01*
X73471500Y-57314500D01*
X73490407Y-57256309D01*
X73539907Y-57220345D01*
X73570500Y-57215500D01*
X75908500Y-57215500D01*
X75966691Y-57234407D01*
X76002655Y-57283907D01*
X76007500Y-57314500D01*
X76007500Y-57920881D01*
X75988593Y-57979072D01*
X75939093Y-58015036D01*
X75877907Y-58015036D01*
X75829617Y-57980701D01*
X75797569Y-57938440D01*
X75797564Y-57938435D01*
X75677095Y-57847080D01*
X75536443Y-57791613D01*
X75448064Y-57781000D01*
X75080000Y-57781000D01*
X75080000Y-59555999D01*
X75080001Y-59556000D01*
X75448058Y-59556000D01*
X75448064Y-59555999D01*
X75536443Y-59545386D01*
X75677095Y-59489919D01*
X75797564Y-59398564D01*
X75797567Y-59398561D01*
X75829616Y-59356299D01*
X75879842Y-59321356D01*
X75941015Y-59322610D01*
X75989768Y-59359580D01*
X76007500Y-59416118D01*
X76007500Y-60181176D01*
X75988593Y-60239367D01*
X75939093Y-60275331D01*
X75877907Y-60275331D01*
X75828407Y-60239367D01*
X75815056Y-60213874D01*
X75807792Y-60193116D01*
X75727154Y-60083855D01*
X75727152Y-60083853D01*
X75727150Y-60083850D01*
X75727146Y-60083847D01*
X75727144Y-60083845D01*
X75617883Y-60003207D01*
X75489703Y-59958355D01*
X75489694Y-59958353D01*
X75459274Y-59955500D01*
X75459266Y-59955500D01*
X74400734Y-59955500D01*
X74400725Y-59955500D01*
X74370305Y-59958353D01*
X74370296Y-59958355D01*
X74242116Y-60003207D01*
X74132855Y-60083845D01*
X74132845Y-60083855D01*
X74052207Y-60193116D01*
X74007355Y-60321296D01*
X74007353Y-60321305D01*
X74004500Y-60351725D01*
X74004500Y-61135274D01*
X74007353Y-61165694D01*
X74007355Y-61165703D01*
X74052207Y-61293883D01*
X74132845Y-61403144D01*
X74132847Y-61403146D01*
X74132850Y-61403150D01*
X74132853Y-61403152D01*
X74132855Y-61403154D01*
X74242116Y-61483792D01*
X74242117Y-61483792D01*
X74242118Y-61483793D01*
X74370301Y-61528646D01*
X74400725Y-61531499D01*
X74400727Y-61531500D01*
X74400734Y-61531500D01*
X74480500Y-61531500D01*
X74538691Y-61550407D01*
X74574655Y-61599907D01*
X74579500Y-61630500D01*
X74579500Y-61799000D01*
X74560593Y-61857191D01*
X74511093Y-61893155D01*
X74480500Y-61898000D01*
X74295752Y-61898000D01*
X74295751Y-61898000D01*
X74295741Y-61898001D01*
X74237272Y-61909632D01*
X74237266Y-61909634D01*
X74170951Y-61953945D01*
X74170945Y-61953951D01*
X74126634Y-62020266D01*
X74126632Y-62020272D01*
X74115001Y-62078741D01*
X74115000Y-62078753D01*
X74115000Y-62889309D01*
X74096093Y-62947500D01*
X74086004Y-62959313D01*
X73784504Y-63260813D01*
X73729987Y-63288590D01*
X73669555Y-63279019D01*
X73626290Y-63235754D01*
X73615500Y-63190809D01*
X73615500Y-62798501D01*
X73615499Y-62798500D01*
X72815501Y-62798500D01*
X72815500Y-62798501D01*
X72815500Y-63498498D01*
X72815501Y-63498499D01*
X73363150Y-63498499D01*
X73363150Y-63499691D01*
X73418090Y-63514096D01*
X73456852Y-63561437D01*
X73460384Y-63622520D01*
X73459510Y-63625641D01*
X73457959Y-63630853D01*
X73423228Y-63681226D01*
X73365523Y-63701565D01*
X73343767Y-63699694D01*
X73335250Y-63698000D01*
X73335248Y-63698000D01*
X71995752Y-63698000D01*
X71995751Y-63698000D01*
X71995741Y-63698001D01*
X71937272Y-63709632D01*
X71937266Y-63709634D01*
X71870951Y-63753945D01*
X71870945Y-63753951D01*
X71826634Y-63820266D01*
X71826632Y-63820272D01*
X71815001Y-63878741D01*
X71815000Y-63878753D01*
X71815000Y-63955500D01*
X71796093Y-64013691D01*
X71746593Y-64049655D01*
X71716000Y-64054500D01*
X71629979Y-64054500D01*
X71571788Y-64035593D01*
X71536535Y-63988198D01*
X71489792Y-63854616D01*
X71409154Y-63745355D01*
X71409152Y-63745353D01*
X71409150Y-63745350D01*
X71409146Y-63745347D01*
X71409144Y-63745345D01*
X71299883Y-63664707D01*
X71171703Y-63619855D01*
X71171694Y-63619853D01*
X71141274Y-63617000D01*
X71141266Y-63617000D01*
X70082734Y-63617000D01*
X70082725Y-63617000D01*
X70052305Y-63619853D01*
X70052296Y-63619855D01*
X69924116Y-63664707D01*
X69814855Y-63745345D01*
X69814845Y-63745355D01*
X69734207Y-63854616D01*
X69689355Y-63982796D01*
X69689353Y-63982805D01*
X69686500Y-64013225D01*
X69686500Y-64796774D01*
X69689353Y-64827194D01*
X69689355Y-64827203D01*
X69734207Y-64955383D01*
X69814845Y-65064644D01*
X69814847Y-65064646D01*
X69814850Y-65064650D01*
X69814853Y-65064652D01*
X69814855Y-65064654D01*
X69924116Y-65145292D01*
X69924117Y-65145292D01*
X69924118Y-65145293D01*
X70052301Y-65190146D01*
X70082725Y-65192999D01*
X70082727Y-65193000D01*
X70082734Y-65193000D01*
X70300500Y-65193000D01*
X70358691Y-65211907D01*
X70394655Y-65261407D01*
X70399500Y-65292000D01*
X70399500Y-65495697D01*
X70380593Y-65553888D01*
X70331093Y-65589852D01*
X70285013Y-65593478D01*
X70250000Y-65587932D01*
X70250000Y-66673500D01*
X70231093Y-66731691D01*
X70181593Y-66767655D01*
X70151000Y-66772500D01*
X70049000Y-66772500D01*
X69990809Y-66753593D01*
X69954845Y-66704093D01*
X69950000Y-66673500D01*
X69950000Y-65587932D01*
X69874852Y-65599835D01*
X69874848Y-65599836D01*
X69761956Y-65657358D01*
X69672358Y-65746956D01*
X69614835Y-65859849D01*
X69612938Y-65865690D01*
X69576972Y-65915188D01*
X69518781Y-65934094D01*
X69460591Y-65915185D01*
X69448780Y-65905098D01*
X68690595Y-65146913D01*
X68662818Y-65092396D01*
X68665862Y-65048171D01*
X68666230Y-65046957D01*
X68666232Y-65046954D01*
X68726300Y-64848934D01*
X68726301Y-64848929D01*
X68746583Y-64643003D01*
X68746583Y-64642996D01*
X68726301Y-64437070D01*
X68726300Y-64437065D01*
X68699282Y-64347998D01*
X68666232Y-64239046D01*
X68568685Y-64056550D01*
X68563026Y-64049655D01*
X68437414Y-63896595D01*
X68437410Y-63896590D01*
X68437404Y-63896585D01*
X68277452Y-63765316D01*
X68094954Y-63667768D01*
X67896934Y-63607699D01*
X67896929Y-63607698D01*
X67691003Y-63587417D01*
X67690997Y-63587417D01*
X67485070Y-63607698D01*
X67485065Y-63607699D01*
X67287045Y-63667768D01*
X67104547Y-63765316D01*
X66944595Y-63896585D01*
X66944585Y-63896595D01*
X66813316Y-64056547D01*
X66715768Y-64239045D01*
X66655699Y-64437065D01*
X66655698Y-64437070D01*
X66635417Y-64642996D01*
X66635417Y-64643003D01*
X66655698Y-64848929D01*
X66655699Y-64848934D01*
X66715768Y-65046954D01*
X66813316Y-65229452D01*
X66916752Y-65355489D01*
X66944590Y-65389410D01*
X66944595Y-65389414D01*
X67104547Y-65520683D01*
X67104548Y-65520683D01*
X67104550Y-65520685D01*
X67287046Y-65618232D01*
X67416029Y-65657358D01*
X67485065Y-65678300D01*
X67485070Y-65678301D01*
X67690997Y-65698583D01*
X67691000Y-65698583D01*
X67691003Y-65698583D01*
X67896929Y-65678301D01*
X67896934Y-65678300D01*
X67896933Y-65678300D01*
X68094954Y-65618232D01*
X68094957Y-65618230D01*
X68096171Y-65617862D01*
X68157344Y-65619063D01*
X68194913Y-65642595D01*
X68835504Y-66283186D01*
X68863281Y-66337703D01*
X68864500Y-66353190D01*
X68864500Y-66765245D01*
X68845593Y-66823436D01*
X68796093Y-66859400D01*
X68734907Y-66859400D01*
X68685407Y-66823436D01*
X68670763Y-66793984D01*
X68666232Y-66779046D01*
X68568685Y-66596550D01*
X68563759Y-66590548D01*
X68437414Y-66436595D01*
X68437410Y-66436590D01*
X68437404Y-66436585D01*
X68277452Y-66305316D01*
X68094954Y-66207768D01*
X67896934Y-66147699D01*
X67896929Y-66147698D01*
X67691003Y-66127417D01*
X67690997Y-66127417D01*
X67485070Y-66147698D01*
X67485065Y-66147699D01*
X67287045Y-66207768D01*
X67104547Y-66305316D01*
X66944595Y-66436585D01*
X66944585Y-66436595D01*
X66813316Y-66596547D01*
X66715768Y-66779045D01*
X66655699Y-66977065D01*
X66655698Y-66977070D01*
X66635417Y-67182996D01*
X66635417Y-67183003D01*
X66655698Y-67388929D01*
X66655699Y-67388934D01*
X66715768Y-67586954D01*
X66813316Y-67769452D01*
X66910599Y-67887992D01*
X66944590Y-67929410D01*
X66944595Y-67929414D01*
X66948030Y-67932849D01*
X66946418Y-67934460D01*
X66974612Y-67978525D01*
X66970996Y-68039604D01*
X66932169Y-68086892D01*
X66878814Y-68102500D01*
X66607190Y-68102500D01*
X66548999Y-68083593D01*
X66537186Y-68073504D01*
X66150595Y-67686913D01*
X66122818Y-67632396D01*
X66125862Y-67588171D01*
X66126230Y-67586957D01*
X66126232Y-67586954D01*
X66186300Y-67388934D01*
X66186301Y-67388929D01*
X66206583Y-67183003D01*
X66206583Y-67182996D01*
X66186301Y-66977070D01*
X66186300Y-66977065D01*
X66139697Y-66823436D01*
X66126232Y-66779046D01*
X66028685Y-66596550D01*
X66023759Y-66590548D01*
X65897414Y-66436595D01*
X65897410Y-66436590D01*
X65897404Y-66436585D01*
X65737452Y-66305316D01*
X65554954Y-66207768D01*
X65356934Y-66147699D01*
X65356929Y-66147698D01*
X65151003Y-66127417D01*
X65150997Y-66127417D01*
X64945070Y-66147698D01*
X64945065Y-66147699D01*
X64747045Y-66207768D01*
X64564547Y-66305316D01*
X64404595Y-66436585D01*
X64404585Y-66436595D01*
X64273316Y-66596547D01*
X64175768Y-66779045D01*
X64115699Y-66977065D01*
X64115698Y-66977070D01*
X64095417Y-67182996D01*
X64095417Y-67183003D01*
X64115698Y-67388929D01*
X64115699Y-67388934D01*
X64175768Y-67586954D01*
X64273316Y-67769452D01*
X64370599Y-67887992D01*
X64404590Y-67929410D01*
X64425419Y-67946504D01*
X64564547Y-68060683D01*
X64564548Y-68060683D01*
X64564550Y-68060685D01*
X64747046Y-68158232D01*
X64884996Y-68200078D01*
X64945065Y-68218300D01*
X64945070Y-68218301D01*
X65150997Y-68238583D01*
X65151000Y-68238583D01*
X65151003Y-68238583D01*
X65356929Y-68218301D01*
X65356934Y-68218300D01*
X65365037Y-68215842D01*
X65554954Y-68158232D01*
X65554957Y-68158230D01*
X65556171Y-68157862D01*
X65617344Y-68159063D01*
X65654913Y-68182595D01*
X66140199Y-68667881D01*
X66153074Y-68683737D01*
X66159563Y-68693669D01*
X66186110Y-68714332D01*
X66190708Y-68718392D01*
X66193687Y-68721370D01*
X66193690Y-68721372D01*
X66193693Y-68721375D01*
X66211434Y-68734041D01*
X66251874Y-68765517D01*
X66251875Y-68765517D01*
X66251876Y-68765518D01*
X66258318Y-68769005D01*
X66264932Y-68772238D01*
X66264933Y-68772238D01*
X66264934Y-68772239D01*
X66314033Y-68786856D01*
X66362512Y-68803500D01*
X66362513Y-68803500D01*
X66369732Y-68804705D01*
X66377039Y-68805615D01*
X66377046Y-68805617D01*
X66428231Y-68803500D01*
X66878814Y-68803500D01*
X66937005Y-68822407D01*
X66972969Y-68871907D01*
X66972969Y-68933093D01*
X66946607Y-68971728D01*
X66948030Y-68973151D01*
X66944585Y-68976595D01*
X66813316Y-69136547D01*
X66715768Y-69319045D01*
X66655699Y-69517065D01*
X66655698Y-69517070D01*
X66635417Y-69722996D01*
X66635417Y-69723003D01*
X66655698Y-69928929D01*
X66655699Y-69928934D01*
X66715768Y-70126954D01*
X66813316Y-70309452D01*
X66911501Y-70429091D01*
X66944590Y-70469410D01*
X66944595Y-70469414D01*
X66948030Y-70472849D01*
X66946418Y-70474460D01*
X66974612Y-70518525D01*
X66970996Y-70579604D01*
X66932169Y-70626892D01*
X66878814Y-70642500D01*
X66607190Y-70642500D01*
X66548999Y-70623593D01*
X66537186Y-70613504D01*
X66150595Y-70226913D01*
X66122818Y-70172396D01*
X66125862Y-70128171D01*
X66126230Y-70126957D01*
X66126232Y-70126954D01*
X66186300Y-69928934D01*
X66186301Y-69928929D01*
X66206583Y-69723003D01*
X66206583Y-69722996D01*
X66186301Y-69517070D01*
X66186300Y-69517065D01*
X66168078Y-69456996D01*
X66126232Y-69319046D01*
X66028685Y-69136550D01*
X66027644Y-69135282D01*
X65897414Y-68976595D01*
X65897410Y-68976590D01*
X65864269Y-68949392D01*
X65737452Y-68845316D01*
X65554954Y-68747768D01*
X65356934Y-68687699D01*
X65356929Y-68687698D01*
X65151003Y-68667417D01*
X65150997Y-68667417D01*
X64945070Y-68687698D01*
X64945065Y-68687699D01*
X64747045Y-68747768D01*
X64564547Y-68845316D01*
X64404595Y-68976585D01*
X64404585Y-68976595D01*
X64273316Y-69136547D01*
X64175768Y-69319045D01*
X64115699Y-69517065D01*
X64115698Y-69517070D01*
X64095417Y-69722996D01*
X64095417Y-69723003D01*
X63754000Y-69723003D01*
X63754000Y-64643003D01*
X64095417Y-64643003D01*
X64115698Y-64848929D01*
X64115699Y-64848934D01*
X64175768Y-65046954D01*
X64273316Y-65229452D01*
X64376752Y-65355489D01*
X64404590Y-65389410D01*
X64404595Y-65389414D01*
X64564547Y-65520683D01*
X64564548Y-65520683D01*
X64564550Y-65520685D01*
X64747046Y-65618232D01*
X64876029Y-65657358D01*
X64945065Y-65678300D01*
X64945070Y-65678301D01*
X65150997Y-65698583D01*
X65151000Y-65698583D01*
X65151003Y-65698583D01*
X65356929Y-65678301D01*
X65356934Y-65678300D01*
X65356933Y-65678300D01*
X65554954Y-65618232D01*
X65737450Y-65520685D01*
X65897410Y-65389410D01*
X66028685Y-65229450D01*
X66126232Y-65046954D01*
X66186300Y-64848934D01*
X66186301Y-64848929D01*
X66206583Y-64643003D01*
X66206583Y-64642996D01*
X66186301Y-64437070D01*
X66186300Y-64437065D01*
X66159282Y-64347998D01*
X66126232Y-64239046D01*
X66028685Y-64056550D01*
X66023026Y-64049655D01*
X65897414Y-63896595D01*
X65897410Y-63896590D01*
X65897404Y-63896585D01*
X65737452Y-63765316D01*
X65554954Y-63667768D01*
X65356934Y-63607699D01*
X65356929Y-63607698D01*
X65151003Y-63587417D01*
X65150997Y-63587417D01*
X64945070Y-63607698D01*
X64945065Y-63607699D01*
X64747045Y-63667768D01*
X64564547Y-63765316D01*
X64404595Y-63896585D01*
X64404585Y-63896595D01*
X64273316Y-64056547D01*
X64175768Y-64239045D01*
X64115699Y-64437065D01*
X64115698Y-64437070D01*
X64095417Y-64642996D01*
X64095417Y-64643003D01*
X63754000Y-64643003D01*
X63754000Y-62103003D01*
X64095417Y-62103003D01*
X64115698Y-62308929D01*
X64115699Y-62308934D01*
X64175768Y-62506954D01*
X64273316Y-62689452D01*
X64362809Y-62798500D01*
X64404590Y-62849410D01*
X64404595Y-62849414D01*
X64564547Y-62980683D01*
X64564548Y-62980683D01*
X64564550Y-62980685D01*
X64747046Y-63078232D01*
X64884996Y-63120078D01*
X64945065Y-63138300D01*
X64945070Y-63138301D01*
X65150997Y-63158583D01*
X65151000Y-63158583D01*
X65151003Y-63158583D01*
X65356929Y-63138301D01*
X65356934Y-63138300D01*
X65356933Y-63138300D01*
X65554954Y-63078232D01*
X65737450Y-62980685D01*
X65897410Y-62849410D01*
X66028685Y-62689450D01*
X66126232Y-62506954D01*
X66186300Y-62308934D01*
X66186301Y-62308929D01*
X66206583Y-62103003D01*
X66635417Y-62103003D01*
X66655698Y-62308929D01*
X66655699Y-62308934D01*
X66715768Y-62506954D01*
X66813316Y-62689452D01*
X66902809Y-62798500D01*
X66944590Y-62849410D01*
X66944595Y-62849414D01*
X67104547Y-62980683D01*
X67104548Y-62980683D01*
X67104550Y-62980685D01*
X67287046Y-63078232D01*
X67424996Y-63120078D01*
X67485065Y-63138300D01*
X67485070Y-63138301D01*
X67690997Y-63158583D01*
X67691000Y-63158583D01*
X67691003Y-63158583D01*
X67896929Y-63138301D01*
X67896934Y-63138300D01*
X67896933Y-63138300D01*
X68094954Y-63078232D01*
X68277450Y-62980685D01*
X68437410Y-62849410D01*
X68568685Y-62689450D01*
X68666232Y-62506954D01*
X68674408Y-62480000D01*
X69587000Y-62480000D01*
X69587000Y-62710564D01*
X69597613Y-62798943D01*
X69653080Y-62939595D01*
X69744435Y-63060064D01*
X69864904Y-63151419D01*
X70005556Y-63206886D01*
X70093935Y-63217499D01*
X70093942Y-63217500D01*
X70461999Y-63217500D01*
X70462000Y-63217499D01*
X70462000Y-62480001D01*
X70461999Y-62480000D01*
X69587000Y-62480000D01*
X68674408Y-62480000D01*
X68726300Y-62308934D01*
X68726301Y-62308929D01*
X68739000Y-62179999D01*
X69587000Y-62179999D01*
X69587001Y-62180000D01*
X70461999Y-62180000D01*
X70462000Y-62179999D01*
X70462000Y-61442501D01*
X70461999Y-61442500D01*
X70762000Y-61442500D01*
X70762000Y-63217499D01*
X70762001Y-63217500D01*
X71130058Y-63217500D01*
X71130064Y-63217499D01*
X71218443Y-63206886D01*
X71359095Y-63151419D01*
X71479564Y-63060064D01*
X71479567Y-63060061D01*
X71537616Y-62983512D01*
X71587842Y-62948570D01*
X71649015Y-62949823D01*
X71697768Y-62986793D01*
X71715500Y-63043331D01*
X71715500Y-63243289D01*
X71715501Y-63243291D01*
X71718409Y-63268374D01*
X71763713Y-63370977D01*
X71843022Y-63450286D01*
X71945627Y-63495590D01*
X71970703Y-63498499D01*
X72515498Y-63498499D01*
X72515500Y-63498497D01*
X72515500Y-61798501D01*
X72515499Y-61798500D01*
X72815500Y-61798500D01*
X72815500Y-62498499D01*
X72815501Y-62498500D01*
X73615498Y-62498500D01*
X73615499Y-62498499D01*
X73615499Y-62053709D01*
X73615498Y-62053708D01*
X73612590Y-62028625D01*
X73567286Y-61926022D01*
X73487977Y-61846713D01*
X73385372Y-61801409D01*
X73360297Y-61798500D01*
X72815500Y-61798500D01*
X72515499Y-61798500D01*
X71970710Y-61798500D01*
X71970707Y-61798501D01*
X71945625Y-61801409D01*
X71843020Y-61846714D01*
X71790327Y-61899407D01*
X71735810Y-61927184D01*
X71675378Y-61917612D01*
X71632114Y-61874347D01*
X71628227Y-61865722D01*
X71570922Y-61720407D01*
X71479564Y-61599935D01*
X71359095Y-61508580D01*
X71218443Y-61453113D01*
X71130064Y-61442500D01*
X70762000Y-61442500D01*
X70461999Y-61442500D01*
X70093935Y-61442500D01*
X70005556Y-61453113D01*
X69864904Y-61508580D01*
X69744435Y-61599935D01*
X69653080Y-61720404D01*
X69597613Y-61861056D01*
X69587000Y-61949435D01*
X69587000Y-62179999D01*
X68739000Y-62179999D01*
X68746583Y-62103003D01*
X68746583Y-62102996D01*
X68726301Y-61897070D01*
X68726300Y-61897065D01*
X68707494Y-61835069D01*
X68666232Y-61699046D01*
X68568685Y-61516550D01*
X68562144Y-61508580D01*
X68437414Y-61356595D01*
X68437410Y-61356590D01*
X68417440Y-61340201D01*
X68277452Y-61225316D01*
X68094954Y-61127768D01*
X67896934Y-61067699D01*
X67896929Y-61067698D01*
X67691003Y-61047417D01*
X67690997Y-61047417D01*
X67485070Y-61067698D01*
X67485065Y-61067699D01*
X67287045Y-61127768D01*
X67104547Y-61225316D01*
X66944595Y-61356585D01*
X66944585Y-61356595D01*
X66813316Y-61516547D01*
X66715768Y-61699045D01*
X66655699Y-61897065D01*
X66655698Y-61897070D01*
X66635417Y-62102996D01*
X66635417Y-62103003D01*
X66206583Y-62103003D01*
X66206583Y-62102996D01*
X66186301Y-61897070D01*
X66186300Y-61897065D01*
X66167494Y-61835069D01*
X66126232Y-61699046D01*
X66028685Y-61516550D01*
X66022144Y-61508580D01*
X65897414Y-61356595D01*
X65897410Y-61356590D01*
X65877440Y-61340201D01*
X65737452Y-61225316D01*
X65554954Y-61127768D01*
X65356934Y-61067699D01*
X65356929Y-61067698D01*
X65151003Y-61047417D01*
X65150997Y-61047417D01*
X64945070Y-61067698D01*
X64945065Y-61067699D01*
X64747045Y-61127768D01*
X64564547Y-61225316D01*
X64404595Y-61356585D01*
X64404585Y-61356595D01*
X64273316Y-61516547D01*
X64175768Y-61699045D01*
X64115699Y-61897065D01*
X64115698Y-61897070D01*
X64095417Y-62102996D01*
X64095417Y-62103003D01*
X63754000Y-62103003D01*
X63754000Y-60724320D01*
X69612000Y-60724320D01*
X69622494Y-60811703D01*
X69677327Y-60950750D01*
X69677330Y-60950754D01*
X69767643Y-61069850D01*
X69767649Y-61069856D01*
X69886745Y-61160169D01*
X69886749Y-61160172D01*
X70025796Y-61215005D01*
X70113179Y-61225499D01*
X70113184Y-61225500D01*
X70461999Y-61225500D01*
X70462000Y-61225499D01*
X70462000Y-60588001D01*
X70461999Y-60588000D01*
X70762000Y-60588000D01*
X70762000Y-61225498D01*
X70762001Y-61225500D01*
X71110816Y-61225500D01*
X71110820Y-61225499D01*
X71198203Y-61215005D01*
X71337250Y-61160172D01*
X71337254Y-61160169D01*
X71456350Y-61069856D01*
X71456356Y-61069850D01*
X71546669Y-60950754D01*
X71546672Y-60950750D01*
X71601505Y-60811703D01*
X71611999Y-60724320D01*
X71612000Y-60724316D01*
X71612000Y-60588001D01*
X71611999Y-60588000D01*
X70762000Y-60588000D01*
X70461999Y-60588000D01*
X69612001Y-60588000D01*
X69612000Y-60588001D01*
X69612000Y-60724320D01*
X63754000Y-60724320D01*
X63754000Y-59563003D01*
X64095417Y-59563003D01*
X64115698Y-59768929D01*
X64115699Y-59768934D01*
X64175768Y-59966954D01*
X64273316Y-60149452D01*
X64404585Y-60309404D01*
X64404590Y-60309410D01*
X64404595Y-60309414D01*
X64564547Y-60440683D01*
X64564548Y-60440683D01*
X64564550Y-60440685D01*
X64747046Y-60538232D01*
X64884996Y-60580078D01*
X64945065Y-60598300D01*
X64945070Y-60598301D01*
X65150997Y-60618583D01*
X65151000Y-60618583D01*
X65151003Y-60618583D01*
X65356929Y-60598301D01*
X65356934Y-60598300D01*
X65356933Y-60598300D01*
X65554954Y-60538232D01*
X65737450Y-60440685D01*
X65897410Y-60309410D01*
X66028685Y-60149450D01*
X66126232Y-59966954D01*
X66186300Y-59768934D01*
X66186301Y-59768929D01*
X66206583Y-59563003D01*
X66635417Y-59563003D01*
X66655698Y-59768929D01*
X66655699Y-59768934D01*
X66715768Y-59966954D01*
X66813316Y-60149452D01*
X66944585Y-60309404D01*
X66944590Y-60309410D01*
X66944595Y-60309414D01*
X67104547Y-60440683D01*
X67104548Y-60440683D01*
X67104550Y-60440685D01*
X67287046Y-60538232D01*
X67424996Y-60580078D01*
X67485065Y-60598300D01*
X67485070Y-60598301D01*
X67690997Y-60618583D01*
X67691000Y-60618583D01*
X67691003Y-60618583D01*
X67896929Y-60598301D01*
X67896934Y-60598300D01*
X67896933Y-60598300D01*
X68094954Y-60538232D01*
X68277450Y-60440685D01*
X68437410Y-60309410D01*
X68454981Y-60287999D01*
X69612000Y-60287999D01*
X69612001Y-60288000D01*
X70461999Y-60288000D01*
X70462000Y-60287999D01*
X70462000Y-59650501D01*
X70461999Y-59650500D01*
X70113179Y-59650500D01*
X70025796Y-59660994D01*
X69886749Y-59715827D01*
X69886745Y-59715830D01*
X69767649Y-59806143D01*
X69767643Y-59806149D01*
X69677330Y-59925245D01*
X69677327Y-59925249D01*
X69622494Y-60064296D01*
X69612000Y-60151679D01*
X69612000Y-60287999D01*
X68454981Y-60287999D01*
X68568685Y-60149450D01*
X68666232Y-59966954D01*
X68726300Y-59768934D01*
X68726301Y-59768929D01*
X68746583Y-59563003D01*
X68746583Y-59562996D01*
X68726301Y-59357070D01*
X68726300Y-59357065D01*
X68697007Y-59260498D01*
X68666232Y-59159046D01*
X68568685Y-58976550D01*
X68543312Y-58945633D01*
X68437414Y-58816595D01*
X68437410Y-58816590D01*
X68437404Y-58816585D01*
X68277452Y-58685316D01*
X68094954Y-58587768D01*
X67896934Y-58527699D01*
X67896929Y-58527698D01*
X67691003Y-58507417D01*
X67690997Y-58507417D01*
X67485070Y-58527698D01*
X67485065Y-58527699D01*
X67287045Y-58587768D01*
X67104547Y-58685316D01*
X66944595Y-58816585D01*
X66944585Y-58816595D01*
X66813316Y-58976547D01*
X66715768Y-59159045D01*
X66655699Y-59357065D01*
X66655698Y-59357070D01*
X66635417Y-59562996D01*
X66635417Y-59563003D01*
X66206583Y-59563003D01*
X66206583Y-59562996D01*
X66186301Y-59357070D01*
X66186300Y-59357065D01*
X66157007Y-59260498D01*
X66126232Y-59159046D01*
X66028685Y-58976550D01*
X66003312Y-58945633D01*
X65897414Y-58816595D01*
X65897410Y-58816590D01*
X65897404Y-58816585D01*
X65737452Y-58685316D01*
X65554954Y-58587768D01*
X65356934Y-58527699D01*
X65356929Y-58527698D01*
X65151003Y-58507417D01*
X65150997Y-58507417D01*
X64945070Y-58527698D01*
X64945065Y-58527699D01*
X64747045Y-58587768D01*
X64564547Y-58685316D01*
X64404595Y-58816585D01*
X64404585Y-58816595D01*
X64273316Y-58976547D01*
X64175768Y-59159045D01*
X64115699Y-59357065D01*
X64115698Y-59357070D01*
X64095417Y-59562996D01*
X64095417Y-59563003D01*
X63754000Y-59563003D01*
X63754000Y-57023003D01*
X64095417Y-57023003D01*
X64115698Y-57228929D01*
X64115699Y-57228934D01*
X64175768Y-57426954D01*
X64273316Y-57609452D01*
X64404585Y-57769404D01*
X64404590Y-57769410D01*
X64404595Y-57769414D01*
X64564547Y-57900683D01*
X64564548Y-57900683D01*
X64564550Y-57900685D01*
X64747046Y-57998232D01*
X64884996Y-58040078D01*
X64945065Y-58058300D01*
X64945070Y-58058301D01*
X65150997Y-58078583D01*
X65151000Y-58078583D01*
X65151003Y-58078583D01*
X65356929Y-58058301D01*
X65356934Y-58058300D01*
X65356933Y-58058300D01*
X65554954Y-57998232D01*
X65737450Y-57900685D01*
X65897410Y-57769410D01*
X66028685Y-57609450D01*
X66126232Y-57426954D01*
X66186300Y-57228934D01*
X66186301Y-57228929D01*
X66206583Y-57023003D01*
X66635417Y-57023003D01*
X66655698Y-57228929D01*
X66655699Y-57228934D01*
X66715768Y-57426954D01*
X66813316Y-57609452D01*
X66944585Y-57769404D01*
X66944590Y-57769410D01*
X66944595Y-57769414D01*
X67104547Y-57900683D01*
X67104548Y-57900683D01*
X67104550Y-57900685D01*
X67287046Y-57998232D01*
X67424996Y-58040078D01*
X67485065Y-58058300D01*
X67485070Y-58058301D01*
X67690997Y-58078583D01*
X67691000Y-58078583D01*
X67691003Y-58078583D01*
X67896929Y-58058301D01*
X67896934Y-58058300D01*
X67896933Y-58058300D01*
X68094954Y-57998232D01*
X68277450Y-57900685D01*
X68437410Y-57769410D01*
X68568685Y-57609450D01*
X68666232Y-57426954D01*
X68726300Y-57228934D01*
X68726301Y-57228929D01*
X68746583Y-57023003D01*
X68746583Y-57022996D01*
X68726301Y-56817070D01*
X68726300Y-56817065D01*
X68708078Y-56756996D01*
X68666232Y-56619046D01*
X68568685Y-56436550D01*
X68563553Y-56430297D01*
X68437414Y-56276595D01*
X68437410Y-56276590D01*
X68437404Y-56276585D01*
X68277452Y-56145316D01*
X68094954Y-56047768D01*
X67896934Y-55987699D01*
X67896929Y-55987698D01*
X67691003Y-55967417D01*
X67690997Y-55967417D01*
X67485070Y-55987698D01*
X67485065Y-55987699D01*
X67287045Y-56047768D01*
X67104547Y-56145316D01*
X66944595Y-56276585D01*
X66944585Y-56276595D01*
X66813316Y-56436547D01*
X66715768Y-56619045D01*
X66655699Y-56817065D01*
X66655698Y-56817070D01*
X66635417Y-57022996D01*
X66635417Y-57023003D01*
X66206583Y-57023003D01*
X66206583Y-57022996D01*
X66186301Y-56817070D01*
X66186300Y-56817065D01*
X66168078Y-56756996D01*
X66126232Y-56619046D01*
X66028685Y-56436550D01*
X66023553Y-56430297D01*
X65897414Y-56276595D01*
X65897410Y-56276590D01*
X65897404Y-56276585D01*
X65737452Y-56145316D01*
X65554954Y-56047768D01*
X65356934Y-55987699D01*
X65356929Y-55987698D01*
X65151003Y-55967417D01*
X65150997Y-55967417D01*
X64945070Y-55987698D01*
X64945065Y-55987699D01*
X64747045Y-56047768D01*
X64564547Y-56145316D01*
X64404595Y-56276585D01*
X64404585Y-56276595D01*
X64273316Y-56436547D01*
X64175768Y-56619045D01*
X64115699Y-56817065D01*
X64115698Y-56817070D01*
X64095417Y-57022996D01*
X64095417Y-57023003D01*
X63754000Y-57023003D01*
X63754000Y-54483003D01*
X64095417Y-54483003D01*
X64115698Y-54688929D01*
X64115699Y-54688934D01*
X64175768Y-54886954D01*
X64273316Y-55069452D01*
X64398788Y-55222340D01*
X64404590Y-55229410D01*
X64404595Y-55229414D01*
X64564547Y-55360683D01*
X64564548Y-55360683D01*
X64564550Y-55360685D01*
X64747046Y-55458232D01*
X64884996Y-55500078D01*
X64945065Y-55518300D01*
X64945070Y-55518301D01*
X65150997Y-55538583D01*
X65151000Y-55538583D01*
X65151003Y-55538583D01*
X65356929Y-55518301D01*
X65356934Y-55518300D01*
X65369131Y-55514600D01*
X65554954Y-55458232D01*
X65737450Y-55360685D01*
X65897410Y-55229410D01*
X66028685Y-55069450D01*
X66126232Y-54886954D01*
X66186300Y-54688934D01*
X66186301Y-54688929D01*
X66206583Y-54483003D01*
X66635417Y-54483003D01*
X66655698Y-54688929D01*
X66655699Y-54688934D01*
X66715768Y-54886954D01*
X66813316Y-55069452D01*
X66938788Y-55222340D01*
X66944590Y-55229410D01*
X66944595Y-55229414D01*
X67104547Y-55360683D01*
X67104548Y-55360683D01*
X67104550Y-55360685D01*
X67287046Y-55458232D01*
X67424996Y-55500078D01*
X67485065Y-55518300D01*
X67485070Y-55518301D01*
X67690997Y-55538583D01*
X67691000Y-55538583D01*
X67691003Y-55538583D01*
X67896929Y-55518301D01*
X67896934Y-55518300D01*
X67909131Y-55514600D01*
X68094954Y-55458232D01*
X68277450Y-55360685D01*
X68437410Y-55229410D01*
X68568685Y-55069450D01*
X68666232Y-54886954D01*
X68726300Y-54688934D01*
X68726301Y-54688929D01*
X68746583Y-54483003D01*
X68746583Y-54482996D01*
X68726301Y-54277070D01*
X68726300Y-54277065D01*
X68703950Y-54203388D01*
X68666232Y-54079046D01*
X68568685Y-53896550D01*
X68480156Y-53788677D01*
X68437414Y-53736595D01*
X68437410Y-53736590D01*
X68302559Y-53625921D01*
X68277452Y-53605316D01*
X68094954Y-53507768D01*
X67896934Y-53447699D01*
X67896929Y-53447698D01*
X67691003Y-53427417D01*
X67690997Y-53427417D01*
X67485070Y-53447698D01*
X67485065Y-53447699D01*
X67287045Y-53507768D01*
X67104547Y-53605316D01*
X66944595Y-53736585D01*
X66944585Y-53736595D01*
X66813316Y-53896547D01*
X66715768Y-54079045D01*
X66655699Y-54277065D01*
X66655698Y-54277070D01*
X66635417Y-54482996D01*
X66635417Y-54483003D01*
X66206583Y-54483003D01*
X66206583Y-54482996D01*
X66186301Y-54277070D01*
X66186300Y-54277065D01*
X66163950Y-54203388D01*
X66126232Y-54079046D01*
X66028685Y-53896550D01*
X65940156Y-53788677D01*
X65897414Y-53736595D01*
X65897410Y-53736590D01*
X65762559Y-53625921D01*
X65737452Y-53605316D01*
X65554954Y-53507768D01*
X65356934Y-53447699D01*
X65356929Y-53447698D01*
X65151003Y-53427417D01*
X65150997Y-53427417D01*
X64945070Y-53447698D01*
X64945065Y-53447699D01*
X64747045Y-53507768D01*
X64564547Y-53605316D01*
X64404595Y-53736585D01*
X64404585Y-53736595D01*
X64273316Y-53896547D01*
X64175768Y-54079045D01*
X64115699Y-54277065D01*
X64115698Y-54277070D01*
X64095417Y-54482996D01*
X64095417Y-54483003D01*
X63754000Y-54483003D01*
X63754000Y-51943003D01*
X64095417Y-51943003D01*
X64115698Y-52148929D01*
X64115699Y-52148934D01*
X64175768Y-52346954D01*
X64273316Y-52529452D01*
X64404585Y-52689404D01*
X64404590Y-52689410D01*
X64404595Y-52689414D01*
X64564547Y-52820683D01*
X64564548Y-52820683D01*
X64564550Y-52820685D01*
X64747046Y-52918232D01*
X64884996Y-52960078D01*
X64945065Y-52978300D01*
X64945070Y-52978301D01*
X65150997Y-52998583D01*
X65151000Y-52998583D01*
X65151003Y-52998583D01*
X65356929Y-52978301D01*
X65356934Y-52978300D01*
X65356933Y-52978300D01*
X65554954Y-52918232D01*
X65737450Y-52820685D01*
X65897410Y-52689410D01*
X66028685Y-52529450D01*
X66126232Y-52346954D01*
X66186300Y-52148934D01*
X66186301Y-52148929D01*
X66206583Y-51943003D01*
X66635417Y-51943003D01*
X66655698Y-52148929D01*
X66655699Y-52148934D01*
X66715768Y-52346954D01*
X66813316Y-52529452D01*
X66944585Y-52689404D01*
X66944590Y-52689410D01*
X66944595Y-52689414D01*
X67104547Y-52820683D01*
X67104548Y-52820683D01*
X67104550Y-52820685D01*
X67287046Y-52918232D01*
X67424996Y-52960078D01*
X67485065Y-52978300D01*
X67485070Y-52978301D01*
X67690997Y-52998583D01*
X67691000Y-52998583D01*
X67691003Y-52998583D01*
X67896929Y-52978301D01*
X67896934Y-52978300D01*
X67896933Y-52978300D01*
X68094954Y-52918232D01*
X68277450Y-52820685D01*
X68437410Y-52689410D01*
X68568685Y-52529450D01*
X68666232Y-52346954D01*
X68726300Y-52148934D01*
X68726301Y-52148929D01*
X68746583Y-51943003D01*
X68746583Y-51942996D01*
X68726301Y-51737070D01*
X68726300Y-51737065D01*
X68689296Y-51615079D01*
X68666232Y-51539046D01*
X68568685Y-51356550D01*
X68437410Y-51196590D01*
X68287525Y-51073583D01*
X68277452Y-51065316D01*
X68094954Y-50967768D01*
X67896934Y-50907699D01*
X67896929Y-50907698D01*
X67691003Y-50887417D01*
X67690997Y-50887417D01*
X67485070Y-50907698D01*
X67485065Y-50907699D01*
X67287045Y-50967768D01*
X67104547Y-51065316D01*
X66944595Y-51196585D01*
X66944585Y-51196595D01*
X66813316Y-51356547D01*
X66715768Y-51539045D01*
X66655699Y-51737065D01*
X66655698Y-51737070D01*
X66635417Y-51942996D01*
X66635417Y-51943003D01*
X66206583Y-51943003D01*
X66206583Y-51942996D01*
X66186301Y-51737070D01*
X66186300Y-51737065D01*
X66149296Y-51615079D01*
X66126232Y-51539046D01*
X66028685Y-51356550D01*
X65897410Y-51196590D01*
X65747525Y-51073583D01*
X65737452Y-51065316D01*
X65554954Y-50967768D01*
X65356934Y-50907699D01*
X65356929Y-50907698D01*
X65151003Y-50887417D01*
X65150997Y-50887417D01*
X64945070Y-50907698D01*
X64945065Y-50907699D01*
X64747045Y-50967768D01*
X64564547Y-51065316D01*
X64404595Y-51196585D01*
X64404585Y-51196595D01*
X64273316Y-51356547D01*
X64175768Y-51539045D01*
X64115699Y-51737065D01*
X64115698Y-51737070D01*
X64095417Y-51942996D01*
X64095417Y-51943003D01*
X63754000Y-51943003D01*
X63754000Y-49403003D01*
X64095417Y-49403003D01*
X64115698Y-49608929D01*
X64115699Y-49608934D01*
X64175768Y-49806954D01*
X64273316Y-49989452D01*
X64385312Y-50125920D01*
X64404590Y-50149410D01*
X64404595Y-50149414D01*
X64564547Y-50280683D01*
X64564548Y-50280683D01*
X64564550Y-50280685D01*
X64747046Y-50378232D01*
X64884996Y-50420078D01*
X64945065Y-50438300D01*
X64945070Y-50438301D01*
X65150997Y-50458583D01*
X65151000Y-50458583D01*
X65151003Y-50458583D01*
X65356929Y-50438301D01*
X65356934Y-50438300D01*
X65356933Y-50438300D01*
X65554954Y-50378232D01*
X65737450Y-50280685D01*
X65897410Y-50149410D01*
X66028685Y-49989450D01*
X66126232Y-49806954D01*
X66186300Y-49608934D01*
X66186301Y-49608929D01*
X66206583Y-49403003D01*
X66635417Y-49403003D01*
X66655698Y-49608929D01*
X66655699Y-49608934D01*
X66715768Y-49806954D01*
X66813316Y-49989452D01*
X66925312Y-50125920D01*
X66944590Y-50149410D01*
X66944595Y-50149414D01*
X67104547Y-50280683D01*
X67104548Y-50280683D01*
X67104550Y-50280685D01*
X67287046Y-50378232D01*
X67424996Y-50420078D01*
X67485065Y-50438300D01*
X67485070Y-50438301D01*
X67690997Y-50458583D01*
X67691000Y-50458583D01*
X67691003Y-50458583D01*
X67896929Y-50438301D01*
X67896934Y-50438300D01*
X67896933Y-50438300D01*
X68094954Y-50378232D01*
X68277450Y-50280685D01*
X68437410Y-50149410D01*
X68568685Y-49989450D01*
X68666232Y-49806954D01*
X68726300Y-49608934D01*
X68726301Y-49608929D01*
X68746583Y-49403003D01*
X68746583Y-49402996D01*
X68726301Y-49197070D01*
X68726300Y-49197065D01*
X68708078Y-49136996D01*
X68666232Y-48999046D01*
X68568685Y-48816550D01*
X68437410Y-48656590D01*
X68437404Y-48656585D01*
X68277452Y-48525316D01*
X68094954Y-48427768D01*
X67896934Y-48367699D01*
X67896929Y-48367698D01*
X67691003Y-48347417D01*
X67690997Y-48347417D01*
X67485070Y-48367698D01*
X67485065Y-48367699D01*
X67287045Y-48427768D01*
X67104547Y-48525316D01*
X66944595Y-48656585D01*
X66944585Y-48656595D01*
X66813316Y-48816547D01*
X66715768Y-48999045D01*
X66655699Y-49197065D01*
X66655698Y-49197070D01*
X66635417Y-49402996D01*
X66635417Y-49403003D01*
X66206583Y-49403003D01*
X66206583Y-49402996D01*
X66186301Y-49197070D01*
X66186300Y-49197065D01*
X66168078Y-49136996D01*
X66126232Y-48999046D01*
X66028685Y-48816550D01*
X65897410Y-48656590D01*
X65897404Y-48656585D01*
X65737452Y-48525316D01*
X65554954Y-48427768D01*
X65356934Y-48367699D01*
X65356929Y-48367698D01*
X65151003Y-48347417D01*
X65150997Y-48347417D01*
X64945070Y-48367698D01*
X64945065Y-48367699D01*
X64747045Y-48427768D01*
X64564547Y-48525316D01*
X64404595Y-48656585D01*
X64404585Y-48656595D01*
X64273316Y-48816547D01*
X64175768Y-48999045D01*
X64115699Y-49197065D01*
X64115698Y-49197070D01*
X64095417Y-49402996D01*
X64095417Y-49403003D01*
X63754000Y-49403003D01*
X63754000Y-46863003D01*
X64095417Y-46863003D01*
X64115698Y-47068929D01*
X64115699Y-47068934D01*
X64175768Y-47266954D01*
X64273316Y-47449452D01*
X64357759Y-47552346D01*
X64404590Y-47609410D01*
X64404595Y-47609414D01*
X64564547Y-47740683D01*
X64564548Y-47740683D01*
X64564550Y-47740685D01*
X64747046Y-47838232D01*
X64884996Y-47880078D01*
X64945065Y-47898300D01*
X64945070Y-47898301D01*
X65150997Y-47918583D01*
X65151000Y-47918583D01*
X65151003Y-47918583D01*
X65356929Y-47898301D01*
X65356934Y-47898300D01*
X65369135Y-47894599D01*
X65554954Y-47838232D01*
X65737450Y-47740685D01*
X65897410Y-47609410D01*
X66028685Y-47449450D01*
X66126232Y-47266954D01*
X66186300Y-47068934D01*
X66186301Y-47068929D01*
X66206583Y-46863003D01*
X66635417Y-46863003D01*
X66655698Y-47068929D01*
X66655699Y-47068934D01*
X66715768Y-47266954D01*
X66813316Y-47449452D01*
X66897759Y-47552346D01*
X66944590Y-47609410D01*
X66944595Y-47609414D01*
X67104547Y-47740683D01*
X67104548Y-47740683D01*
X67104550Y-47740685D01*
X67287046Y-47838232D01*
X67424996Y-47880078D01*
X67485065Y-47898300D01*
X67485070Y-47898301D01*
X67690997Y-47918583D01*
X67691000Y-47918583D01*
X67691003Y-47918583D01*
X67896929Y-47898301D01*
X67896934Y-47898300D01*
X67909135Y-47894599D01*
X68094954Y-47838232D01*
X68277450Y-47740685D01*
X68437410Y-47609410D01*
X68568685Y-47449450D01*
X68666232Y-47266954D01*
X68726300Y-47068934D01*
X68726301Y-47068929D01*
X68746583Y-46863003D01*
X68746583Y-46862996D01*
X68726301Y-46657070D01*
X68726300Y-46657065D01*
X68708078Y-46596996D01*
X68666232Y-46459046D01*
X68568685Y-46276550D01*
X68545966Y-46248867D01*
X68437414Y-46116595D01*
X68437410Y-46116590D01*
X68437404Y-46116585D01*
X68277452Y-45985316D01*
X68094954Y-45887768D01*
X67896934Y-45827699D01*
X67896929Y-45827698D01*
X67691003Y-45807417D01*
X67690997Y-45807417D01*
X67485070Y-45827698D01*
X67485065Y-45827699D01*
X67287045Y-45887768D01*
X67104547Y-45985316D01*
X66944595Y-46116585D01*
X66944585Y-46116595D01*
X66813316Y-46276547D01*
X66715768Y-46459045D01*
X66655699Y-46657065D01*
X66655698Y-46657070D01*
X66635417Y-46862996D01*
X66635417Y-46863003D01*
X66206583Y-46863003D01*
X66206583Y-46862996D01*
X66186301Y-46657070D01*
X66186300Y-46657065D01*
X66168078Y-46596996D01*
X66126232Y-46459046D01*
X66028685Y-46276550D01*
X66005966Y-46248867D01*
X65897414Y-46116595D01*
X65897410Y-46116590D01*
X65897404Y-46116585D01*
X65737452Y-45985316D01*
X65554954Y-45887768D01*
X65356934Y-45827699D01*
X65356929Y-45827698D01*
X65151003Y-45807417D01*
X65150997Y-45807417D01*
X64945070Y-45827698D01*
X64945065Y-45827699D01*
X64747045Y-45887768D01*
X64564547Y-45985316D01*
X64404595Y-46116585D01*
X64404585Y-46116595D01*
X64273316Y-46276547D01*
X64175768Y-46459045D01*
X64115699Y-46657065D01*
X64115698Y-46657070D01*
X64095417Y-46862996D01*
X64095417Y-46863003D01*
X63754000Y-46863003D01*
X63754000Y-44323003D01*
X64095417Y-44323003D01*
X64115698Y-44528929D01*
X64115699Y-44528934D01*
X64175768Y-44726954D01*
X64273316Y-44909452D01*
X64323827Y-44971000D01*
X64404590Y-45069410D01*
X64404595Y-45069414D01*
X64564547Y-45200683D01*
X64564548Y-45200683D01*
X64564550Y-45200685D01*
X64747046Y-45298232D01*
X64884996Y-45340078D01*
X64945065Y-45358300D01*
X64945070Y-45358301D01*
X65150997Y-45378583D01*
X65151000Y-45378583D01*
X65151003Y-45378583D01*
X65356929Y-45358301D01*
X65356934Y-45358300D01*
X65356933Y-45358300D01*
X65554954Y-45298232D01*
X65737450Y-45200685D01*
X65897410Y-45069410D01*
X66028685Y-44909450D01*
X66126232Y-44726954D01*
X66186300Y-44528934D01*
X66186301Y-44528929D01*
X66206583Y-44323003D01*
X66206583Y-44322996D01*
X66186301Y-44117070D01*
X66186300Y-44117065D01*
X66162739Y-44039396D01*
X66126232Y-43919046D01*
X66028685Y-43736550D01*
X65897410Y-43576590D01*
X65759113Y-43463093D01*
X65737452Y-43445316D01*
X65554954Y-43347768D01*
X65356934Y-43287699D01*
X65356929Y-43287698D01*
X65151003Y-43267417D01*
X65150997Y-43267417D01*
X64945070Y-43287698D01*
X64945065Y-43287699D01*
X64747045Y-43347768D01*
X64564547Y-43445316D01*
X64404595Y-43576585D01*
X64404585Y-43576595D01*
X64273316Y-43736547D01*
X64175768Y-43919045D01*
X64115699Y-44117065D01*
X64115698Y-44117070D01*
X64095417Y-44322996D01*
X64095417Y-44323003D01*
X63754000Y-44323003D01*
X63754000Y-40485000D01*
X63772907Y-40426809D01*
X63822407Y-40390845D01*
X63853000Y-40386000D01*
X81943377Y-40386000D01*
X82001568Y-40404907D01*
G37*
%TD.AperFunction*%
%TD*%
M02*
