%TF.GenerationSoftware,KiCad,Pcbnew,7.0.6-0*%
%TF.CreationDate,2023-10-30T11:37:55+11:00*%
%TF.ProjectId,controllino-can,636f6e74-726f-46c6-9c69-6e6f2d63616e,rev?*%
%TF.SameCoordinates,Original*%
%TF.FileFunction,Copper,L2,Bot*%
%TF.FilePolarity,Positive*%
%FSLAX46Y46*%
G04 Gerber Fmt 4.6, Leading zero omitted, Abs format (unit mm)*
G04 Created by KiCad (PCBNEW 7.0.6-0) date 2023-10-30 11:37:55*
%MOMM*%
%LPD*%
G01*
G04 APERTURE LIST*
%TA.AperFunction,ComponentPad*%
%ADD10R,1.800000X1.800000*%
%TD*%
%TA.AperFunction,ComponentPad*%
%ADD11C,1.800000*%
%TD*%
%TA.AperFunction,SMDPad,CuDef*%
%ADD12R,1.500000X1.000000*%
%TD*%
%TA.AperFunction,ComponentPad*%
%ADD13R,1.700000X1.700000*%
%TD*%
%TA.AperFunction,ComponentPad*%
%ADD14O,1.700000X1.700000*%
%TD*%
%TA.AperFunction,ViaPad*%
%ADD15C,0.800000*%
%TD*%
%TA.AperFunction,Conductor*%
%ADD16C,0.200000*%
%TD*%
%TA.AperFunction,Conductor*%
%ADD17C,0.300000*%
%TD*%
G04 APERTURE END LIST*
D10*
%TO.P,J5,1,1*%
%TO.N,+5V*%
X79883000Y-43870500D03*
D11*
%TO.P,J5,2,2*%
%TO.N,GND*%
X74883000Y-47370500D03*
%TO.P,J5,3,3*%
%TO.N,/CANL*%
X79883000Y-50870500D03*
%TO.P,J5,4,4*%
%TO.N,/CANH*%
X74883000Y-54370500D03*
%TD*%
D12*
%TO.P,JP1,1,A*%
%TO.N,Net-(J2-Pin_10)*%
X70866000Y-51943000D03*
%TO.P,JP1,2,B*%
%TO.N,INT_1*%
X70866000Y-53243000D03*
%TD*%
D13*
%TO.P,J2,1,Pin_1*%
%TO.N,+5V*%
X65151000Y-41783000D03*
D14*
%TO.P,J2,2,Pin_2*%
%TO.N,GND*%
X67691000Y-41783000D03*
%TO.P,J2,3,Pin_3*%
%TO.N,unconnected-(J2-Pin_3-Pad3)*%
X65151000Y-44323000D03*
%TO.P,J2,4,Pin_4*%
%TO.N,unconnected-(J2-Pin_4-Pad4)*%
X67691000Y-44323000D03*
%TO.P,J2,5,Pin_5*%
%TO.N,unconnected-(J2-Pin_5-Pad5)*%
X65151000Y-46863000D03*
%TO.P,J2,6,Pin_6*%
%TO.N,unconnected-(J2-Pin_6-Pad6)*%
X67691000Y-46863000D03*
%TO.P,J2,7,Pin_7*%
%TO.N,unconnected-(J2-Pin_7-Pad7)*%
X65151000Y-49403000D03*
%TO.P,J2,8,Pin_8*%
%TO.N,unconnected-(J2-Pin_8-Pad8)*%
X67691000Y-49403000D03*
%TO.P,J2,9,Pin_9*%
%TO.N,unconnected-(J2-Pin_9-Pad9)*%
X65151000Y-51943000D03*
%TO.P,J2,10,Pin_10*%
%TO.N,Net-(J2-Pin_10)*%
X67691000Y-51943000D03*
%TO.P,J2,11,Pin_11*%
%TO.N,unconnected-(J2-Pin_11-Pad11)*%
X65151000Y-54483000D03*
%TO.P,J2,12,Pin_12*%
%TO.N,unconnected-(J2-Pin_12-Pad12)*%
X67691000Y-54483000D03*
%TO.P,J2,13,Pin_13*%
%TO.N,unconnected-(J2-Pin_13-Pad13)*%
X65151000Y-57023000D03*
%TO.P,J2,14,Pin_14*%
%TO.N,unconnected-(J2-Pin_14-Pad14)*%
X67691000Y-57023000D03*
%TO.P,J2,15,Pin_15*%
%TO.N,unconnected-(J2-Pin_15-Pad15)*%
X65151000Y-59563000D03*
%TO.P,J2,16,Pin_16*%
%TO.N,unconnected-(J2-Pin_16-Pad16)*%
X67691000Y-59563000D03*
%TO.P,J2,17,Pin_17*%
%TO.N,unconnected-(J2-Pin_17-Pad17)*%
X65151000Y-62103000D03*
%TO.P,J2,18,Pin_18*%
%TO.N,I2C_SDA*%
X67691000Y-62103000D03*
%TO.P,J2,19,Pin_19*%
%TO.N,I2C_SCL*%
X65151000Y-64643000D03*
%TO.P,J2,20,Pin_20*%
%TO.N,SPI_SS*%
X67691000Y-64643000D03*
%TO.P,J2,21,Pin_21*%
%TO.N,SPI_MOSI*%
X65151000Y-67183000D03*
%TO.P,J2,22,Pin_22*%
%TO.N,SPI_MISO*%
X67691000Y-67183000D03*
%TO.P,J2,23,Pin_23*%
%TO.N,SPI_SCK*%
X65151000Y-69723000D03*
%TO.P,J2,24,Pin_24*%
%TO.N,unconnected-(J2-Pin_24-Pad24)*%
X67691000Y-69723000D03*
%TO.P,J2,25,Pin_25*%
%TO.N,UART_TXD*%
X65151000Y-72263000D03*
%TO.P,J2,26,Pin_26*%
%TO.N,UART_RXD*%
X67691000Y-72263000D03*
%TD*%
D15*
%TO.N,GND*%
X74930000Y-69342000D03*
X79629000Y-58547000D03*
%TO.N,/CANRX*%
X75819000Y-68707000D03*
X81280000Y-70358000D03*
%TO.N,INT_1*%
X69977000Y-70866000D03*
%TD*%
D16*
%TO.N,/CANRX*%
X77470000Y-70358000D02*
X81280000Y-70358000D01*
X75819000Y-68707000D02*
X77470000Y-70358000D01*
D17*
%TO.N,Net-(J2-Pin_10)*%
X70866000Y-51943000D02*
X67691000Y-51943000D01*
%TO.N,INT_1*%
X69342000Y-54767000D02*
X70866000Y-53243000D01*
X69977000Y-70866000D02*
X69342000Y-70231000D01*
X69342000Y-70231000D02*
X69342000Y-54767000D01*
%TD*%
%TA.AperFunction,Conductor*%
%TO.N,GND*%
G36*
X82001568Y-40404907D02*
G01*
X82037532Y-40454407D01*
X82042376Y-40484622D01*
X82109529Y-58078583D01*
X82167619Y-73298301D01*
X82168621Y-73560622D01*
X82149936Y-73618885D01*
X82100574Y-73655037D01*
X82069622Y-73660000D01*
X63853000Y-73660000D01*
X63794809Y-73641093D01*
X63758845Y-73591593D01*
X63754000Y-73561000D01*
X63754000Y-72263003D01*
X64095417Y-72263003D01*
X64115698Y-72468929D01*
X64115699Y-72468934D01*
X64175768Y-72666954D01*
X64273316Y-72849452D01*
X64404585Y-73009404D01*
X64404590Y-73009410D01*
X64404595Y-73009414D01*
X64564547Y-73140683D01*
X64564548Y-73140683D01*
X64564550Y-73140685D01*
X64747046Y-73238232D01*
X64884996Y-73280078D01*
X64945065Y-73298300D01*
X64945070Y-73298301D01*
X65150997Y-73318583D01*
X65151000Y-73318583D01*
X65151003Y-73318583D01*
X65356929Y-73298301D01*
X65356934Y-73298300D01*
X65356933Y-73298300D01*
X65554954Y-73238232D01*
X65737450Y-73140685D01*
X65897410Y-73009410D01*
X66028685Y-72849450D01*
X66126232Y-72666954D01*
X66186300Y-72468934D01*
X66186301Y-72468929D01*
X66206583Y-72263003D01*
X66635417Y-72263003D01*
X66655698Y-72468929D01*
X66655699Y-72468934D01*
X66715768Y-72666954D01*
X66813316Y-72849452D01*
X66944585Y-73009404D01*
X66944590Y-73009410D01*
X66944595Y-73009414D01*
X67104547Y-73140683D01*
X67104548Y-73140683D01*
X67104550Y-73140685D01*
X67287046Y-73238232D01*
X67424996Y-73280078D01*
X67485065Y-73298300D01*
X67485070Y-73298301D01*
X67690997Y-73318583D01*
X67691000Y-73318583D01*
X67691003Y-73318583D01*
X67896929Y-73298301D01*
X67896934Y-73298300D01*
X67896933Y-73298300D01*
X68094954Y-73238232D01*
X68277450Y-73140685D01*
X68437410Y-73009410D01*
X68568685Y-72849450D01*
X68666232Y-72666954D01*
X68726300Y-72468934D01*
X68726301Y-72468929D01*
X68746583Y-72263003D01*
X68746583Y-72262996D01*
X68726301Y-72057070D01*
X68726300Y-72057065D01*
X68708078Y-71996996D01*
X68666232Y-71859046D01*
X68568685Y-71676550D01*
X68437410Y-71516590D01*
X68382689Y-71471682D01*
X68277452Y-71385316D01*
X68094954Y-71287768D01*
X67896934Y-71227699D01*
X67896929Y-71227698D01*
X67691003Y-71207417D01*
X67690997Y-71207417D01*
X67485070Y-71227698D01*
X67485065Y-71227699D01*
X67287045Y-71287768D01*
X67104547Y-71385316D01*
X66944595Y-71516585D01*
X66944585Y-71516595D01*
X66813316Y-71676547D01*
X66715768Y-71859045D01*
X66655699Y-72057065D01*
X66655698Y-72057070D01*
X66635417Y-72262996D01*
X66635417Y-72263003D01*
X66206583Y-72263003D01*
X66206583Y-72262996D01*
X66186301Y-72057070D01*
X66186300Y-72057065D01*
X66168078Y-71996996D01*
X66126232Y-71859046D01*
X66028685Y-71676550D01*
X65897410Y-71516590D01*
X65842689Y-71471682D01*
X65737452Y-71385316D01*
X65554954Y-71287768D01*
X65356934Y-71227699D01*
X65356929Y-71227698D01*
X65151003Y-71207417D01*
X65150997Y-71207417D01*
X64945070Y-71227698D01*
X64945065Y-71227699D01*
X64747045Y-71287768D01*
X64564547Y-71385316D01*
X64404595Y-71516585D01*
X64404585Y-71516595D01*
X64273316Y-71676547D01*
X64175768Y-71859045D01*
X64115699Y-72057065D01*
X64115698Y-72057070D01*
X64095417Y-72262996D01*
X64095417Y-72263003D01*
X63754000Y-72263003D01*
X63754000Y-69723003D01*
X64095417Y-69723003D01*
X64115698Y-69928929D01*
X64115699Y-69928934D01*
X64175768Y-70126954D01*
X64273316Y-70309452D01*
X64378389Y-70437484D01*
X64404590Y-70469410D01*
X64404595Y-70469414D01*
X64564547Y-70600683D01*
X64564548Y-70600683D01*
X64564550Y-70600685D01*
X64747046Y-70698232D01*
X64865862Y-70734274D01*
X64945065Y-70758300D01*
X64945070Y-70758301D01*
X65150997Y-70778583D01*
X65151000Y-70778583D01*
X65151003Y-70778583D01*
X65356929Y-70758301D01*
X65356934Y-70758300D01*
X65356933Y-70758300D01*
X65554954Y-70698232D01*
X65737450Y-70600685D01*
X65897410Y-70469410D01*
X66028685Y-70309450D01*
X66126232Y-70126954D01*
X66186300Y-69928934D01*
X66186301Y-69928929D01*
X66206583Y-69723003D01*
X66635417Y-69723003D01*
X66655698Y-69928929D01*
X66655699Y-69928934D01*
X66715768Y-70126954D01*
X66813316Y-70309452D01*
X66918389Y-70437484D01*
X66944590Y-70469410D01*
X66944595Y-70469414D01*
X67104547Y-70600683D01*
X67104548Y-70600683D01*
X67104550Y-70600685D01*
X67287046Y-70698232D01*
X67405862Y-70734274D01*
X67485065Y-70758300D01*
X67485070Y-70758301D01*
X67690997Y-70778583D01*
X67691000Y-70778583D01*
X67691003Y-70778583D01*
X67896929Y-70758301D01*
X67896934Y-70758300D01*
X67896933Y-70758300D01*
X68094954Y-70698232D01*
X68277450Y-70600685D01*
X68437410Y-70469410D01*
X68568685Y-70309450D01*
X68666232Y-70126954D01*
X68726300Y-69928934D01*
X68726301Y-69928929D01*
X68746583Y-69723003D01*
X68746583Y-69722996D01*
X68726301Y-69517070D01*
X68726300Y-69517065D01*
X68708078Y-69456996D01*
X68666232Y-69319046D01*
X68568685Y-69136550D01*
X68567644Y-69135282D01*
X68437414Y-68976595D01*
X68437410Y-68976590D01*
X68437404Y-68976585D01*
X68277452Y-68845316D01*
X68094954Y-68747768D01*
X67896934Y-68687699D01*
X67896929Y-68687698D01*
X67691003Y-68667417D01*
X67690997Y-68667417D01*
X67485070Y-68687698D01*
X67485065Y-68687699D01*
X67287045Y-68747768D01*
X67104547Y-68845316D01*
X66944595Y-68976585D01*
X66944585Y-68976595D01*
X66813316Y-69136547D01*
X66715768Y-69319045D01*
X66655699Y-69517065D01*
X66655698Y-69517070D01*
X66635417Y-69722996D01*
X66635417Y-69723003D01*
X66206583Y-69723003D01*
X66206583Y-69722996D01*
X66186301Y-69517070D01*
X66186300Y-69517065D01*
X66168078Y-69456996D01*
X66126232Y-69319046D01*
X66028685Y-69136550D01*
X66027644Y-69135282D01*
X65897414Y-68976595D01*
X65897410Y-68976590D01*
X65897404Y-68976585D01*
X65737452Y-68845316D01*
X65554954Y-68747768D01*
X65356934Y-68687699D01*
X65356929Y-68687698D01*
X65151003Y-68667417D01*
X65150997Y-68667417D01*
X64945070Y-68687698D01*
X64945065Y-68687699D01*
X64747045Y-68747768D01*
X64564547Y-68845316D01*
X64404595Y-68976585D01*
X64404585Y-68976595D01*
X64273316Y-69136547D01*
X64175768Y-69319045D01*
X64115699Y-69517065D01*
X64115698Y-69517070D01*
X64095417Y-69722996D01*
X64095417Y-69723003D01*
X63754000Y-69723003D01*
X63754000Y-67183003D01*
X64095417Y-67183003D01*
X64115698Y-67388929D01*
X64115699Y-67388934D01*
X64175768Y-67586954D01*
X64273316Y-67769452D01*
X64404585Y-67929404D01*
X64404590Y-67929410D01*
X64404595Y-67929414D01*
X64564547Y-68060683D01*
X64564548Y-68060683D01*
X64564550Y-68060685D01*
X64747046Y-68158232D01*
X64884996Y-68200078D01*
X64945065Y-68218300D01*
X64945070Y-68218301D01*
X65150997Y-68238583D01*
X65151000Y-68238583D01*
X65151003Y-68238583D01*
X65356929Y-68218301D01*
X65356934Y-68218300D01*
X65356933Y-68218300D01*
X65554954Y-68158232D01*
X65737450Y-68060685D01*
X65897410Y-67929410D01*
X66028685Y-67769450D01*
X66126232Y-67586954D01*
X66186300Y-67388934D01*
X66186301Y-67388929D01*
X66206583Y-67183003D01*
X66635417Y-67183003D01*
X66655698Y-67388929D01*
X66655699Y-67388934D01*
X66715768Y-67586954D01*
X66813316Y-67769452D01*
X66944585Y-67929404D01*
X66944590Y-67929410D01*
X66944595Y-67929414D01*
X67104547Y-68060683D01*
X67104548Y-68060683D01*
X67104550Y-68060685D01*
X67287046Y-68158232D01*
X67424996Y-68200078D01*
X67485065Y-68218300D01*
X67485070Y-68218301D01*
X67690997Y-68238583D01*
X67691000Y-68238583D01*
X67691003Y-68238583D01*
X67896929Y-68218301D01*
X67896934Y-68218300D01*
X67896933Y-68218300D01*
X68094954Y-68158232D01*
X68277450Y-68060685D01*
X68437410Y-67929410D01*
X68568685Y-67769450D01*
X68666232Y-67586954D01*
X68726300Y-67388934D01*
X68726301Y-67388929D01*
X68746583Y-67183003D01*
X68746583Y-67182996D01*
X68726301Y-66977070D01*
X68726300Y-66977065D01*
X68708078Y-66916996D01*
X68666232Y-66779046D01*
X68568685Y-66596550D01*
X68437410Y-66436590D01*
X68437404Y-66436585D01*
X68277452Y-66305316D01*
X68094954Y-66207768D01*
X67896934Y-66147699D01*
X67896929Y-66147698D01*
X67691003Y-66127417D01*
X67690997Y-66127417D01*
X67485070Y-66147698D01*
X67485065Y-66147699D01*
X67287045Y-66207768D01*
X67104547Y-66305316D01*
X66944595Y-66436585D01*
X66944585Y-66436595D01*
X66813316Y-66596547D01*
X66715768Y-66779045D01*
X66655699Y-66977065D01*
X66655698Y-66977070D01*
X66635417Y-67182996D01*
X66635417Y-67183003D01*
X66206583Y-67183003D01*
X66206583Y-67182996D01*
X66186301Y-66977070D01*
X66186300Y-66977065D01*
X66168078Y-66916996D01*
X66126232Y-66779046D01*
X66028685Y-66596550D01*
X65897410Y-66436590D01*
X65897404Y-66436585D01*
X65737452Y-66305316D01*
X65554954Y-66207768D01*
X65356934Y-66147699D01*
X65356929Y-66147698D01*
X65151003Y-66127417D01*
X65150997Y-66127417D01*
X64945070Y-66147698D01*
X64945065Y-66147699D01*
X64747045Y-66207768D01*
X64564547Y-66305316D01*
X64404595Y-66436585D01*
X64404585Y-66436595D01*
X64273316Y-66596547D01*
X64175768Y-66779045D01*
X64115699Y-66977065D01*
X64115698Y-66977070D01*
X64095417Y-67182996D01*
X64095417Y-67183003D01*
X63754000Y-67183003D01*
X63754000Y-64643003D01*
X64095417Y-64643003D01*
X64115698Y-64848929D01*
X64115699Y-64848934D01*
X64175768Y-65046954D01*
X64273316Y-65229452D01*
X64404585Y-65389404D01*
X64404590Y-65389410D01*
X64404595Y-65389414D01*
X64564547Y-65520683D01*
X64564548Y-65520683D01*
X64564550Y-65520685D01*
X64747046Y-65618232D01*
X64884996Y-65660078D01*
X64945065Y-65678300D01*
X64945070Y-65678301D01*
X65150997Y-65698583D01*
X65151000Y-65698583D01*
X65151003Y-65698583D01*
X65356929Y-65678301D01*
X65356934Y-65678300D01*
X65356933Y-65678300D01*
X65554954Y-65618232D01*
X65737450Y-65520685D01*
X65897410Y-65389410D01*
X66028685Y-65229450D01*
X66126232Y-65046954D01*
X66186300Y-64848934D01*
X66186301Y-64848929D01*
X66206583Y-64643003D01*
X66635417Y-64643003D01*
X66655698Y-64848929D01*
X66655699Y-64848934D01*
X66715768Y-65046954D01*
X66813316Y-65229452D01*
X66944585Y-65389404D01*
X66944590Y-65389410D01*
X66944595Y-65389414D01*
X67104547Y-65520683D01*
X67104548Y-65520683D01*
X67104550Y-65520685D01*
X67287046Y-65618232D01*
X67424996Y-65660078D01*
X67485065Y-65678300D01*
X67485070Y-65678301D01*
X67690997Y-65698583D01*
X67691000Y-65698583D01*
X67691003Y-65698583D01*
X67896929Y-65678301D01*
X67896934Y-65678300D01*
X67896933Y-65678300D01*
X68094954Y-65618232D01*
X68277450Y-65520685D01*
X68437410Y-65389410D01*
X68568685Y-65229450D01*
X68666232Y-65046954D01*
X68726300Y-64848934D01*
X68726301Y-64848929D01*
X68746583Y-64643003D01*
X68746583Y-64642996D01*
X68726301Y-64437070D01*
X68726300Y-64437065D01*
X68708078Y-64376996D01*
X68666232Y-64239046D01*
X68568685Y-64056550D01*
X68437410Y-63896590D01*
X68437404Y-63896585D01*
X68277452Y-63765316D01*
X68094954Y-63667768D01*
X67896934Y-63607699D01*
X67896929Y-63607698D01*
X67691003Y-63587417D01*
X67690997Y-63587417D01*
X67485070Y-63607698D01*
X67485065Y-63607699D01*
X67287045Y-63667768D01*
X67104547Y-63765316D01*
X66944595Y-63896585D01*
X66944585Y-63896595D01*
X66813316Y-64056547D01*
X66715768Y-64239045D01*
X66655699Y-64437065D01*
X66655698Y-64437070D01*
X66635417Y-64642996D01*
X66635417Y-64643003D01*
X66206583Y-64643003D01*
X66206583Y-64642996D01*
X66186301Y-64437070D01*
X66186300Y-64437065D01*
X66168078Y-64376996D01*
X66126232Y-64239046D01*
X66028685Y-64056550D01*
X65897410Y-63896590D01*
X65897404Y-63896585D01*
X65737452Y-63765316D01*
X65554954Y-63667768D01*
X65356934Y-63607699D01*
X65356929Y-63607698D01*
X65151003Y-63587417D01*
X65150997Y-63587417D01*
X64945070Y-63607698D01*
X64945065Y-63607699D01*
X64747045Y-63667768D01*
X64564547Y-63765316D01*
X64404595Y-63896585D01*
X64404585Y-63896595D01*
X64273316Y-64056547D01*
X64175768Y-64239045D01*
X64115699Y-64437065D01*
X64115698Y-64437070D01*
X64095417Y-64642996D01*
X64095417Y-64643003D01*
X63754000Y-64643003D01*
X63754000Y-62103003D01*
X64095417Y-62103003D01*
X64115698Y-62308929D01*
X64115699Y-62308934D01*
X64175768Y-62506954D01*
X64273316Y-62689452D01*
X64404585Y-62849404D01*
X64404590Y-62849410D01*
X64404595Y-62849414D01*
X64564547Y-62980683D01*
X64564548Y-62980683D01*
X64564550Y-62980685D01*
X64747046Y-63078232D01*
X64884996Y-63120078D01*
X64945065Y-63138300D01*
X64945070Y-63138301D01*
X65150997Y-63158583D01*
X65151000Y-63158583D01*
X65151003Y-63158583D01*
X65356929Y-63138301D01*
X65356934Y-63138300D01*
X65356933Y-63138300D01*
X65554954Y-63078232D01*
X65737450Y-62980685D01*
X65897410Y-62849410D01*
X66028685Y-62689450D01*
X66126232Y-62506954D01*
X66186300Y-62308934D01*
X66186301Y-62308929D01*
X66206583Y-62103003D01*
X66635417Y-62103003D01*
X66655698Y-62308929D01*
X66655699Y-62308934D01*
X66715768Y-62506954D01*
X66813316Y-62689452D01*
X66944585Y-62849404D01*
X66944590Y-62849410D01*
X66944595Y-62849414D01*
X67104547Y-62980683D01*
X67104548Y-62980683D01*
X67104550Y-62980685D01*
X67287046Y-63078232D01*
X67424996Y-63120078D01*
X67485065Y-63138300D01*
X67485070Y-63138301D01*
X67690997Y-63158583D01*
X67691000Y-63158583D01*
X67691003Y-63158583D01*
X67896929Y-63138301D01*
X67896934Y-63138300D01*
X67896933Y-63138300D01*
X68094954Y-63078232D01*
X68277450Y-62980685D01*
X68437410Y-62849410D01*
X68568685Y-62689450D01*
X68666232Y-62506954D01*
X68726300Y-62308934D01*
X68726301Y-62308929D01*
X68746583Y-62103003D01*
X68746583Y-62102996D01*
X68726301Y-61897070D01*
X68726300Y-61897065D01*
X68708078Y-61836996D01*
X68666232Y-61699046D01*
X68568685Y-61516550D01*
X68437410Y-61356590D01*
X68437404Y-61356585D01*
X68277452Y-61225316D01*
X68094954Y-61127768D01*
X67896934Y-61067699D01*
X67896929Y-61067698D01*
X67691003Y-61047417D01*
X67690997Y-61047417D01*
X67485070Y-61067698D01*
X67485065Y-61067699D01*
X67287045Y-61127768D01*
X67104547Y-61225316D01*
X66944595Y-61356585D01*
X66944585Y-61356595D01*
X66813316Y-61516547D01*
X66715768Y-61699045D01*
X66655699Y-61897065D01*
X66655698Y-61897070D01*
X66635417Y-62102996D01*
X66635417Y-62103003D01*
X66206583Y-62103003D01*
X66206583Y-62102996D01*
X66186301Y-61897070D01*
X66186300Y-61897065D01*
X66168078Y-61836996D01*
X66126232Y-61699046D01*
X66028685Y-61516550D01*
X65897410Y-61356590D01*
X65897404Y-61356585D01*
X65737452Y-61225316D01*
X65554954Y-61127768D01*
X65356934Y-61067699D01*
X65356929Y-61067698D01*
X65151003Y-61047417D01*
X65150997Y-61047417D01*
X64945070Y-61067698D01*
X64945065Y-61067699D01*
X64747045Y-61127768D01*
X64564547Y-61225316D01*
X64404595Y-61356585D01*
X64404585Y-61356595D01*
X64273316Y-61516547D01*
X64175768Y-61699045D01*
X64115699Y-61897065D01*
X64115698Y-61897070D01*
X64095417Y-62102996D01*
X64095417Y-62103003D01*
X63754000Y-62103003D01*
X63754000Y-59563003D01*
X64095417Y-59563003D01*
X64115698Y-59768929D01*
X64115699Y-59768934D01*
X64175768Y-59966954D01*
X64273316Y-60149452D01*
X64404585Y-60309404D01*
X64404590Y-60309410D01*
X64404595Y-60309414D01*
X64564547Y-60440683D01*
X64564548Y-60440683D01*
X64564550Y-60440685D01*
X64747046Y-60538232D01*
X64884996Y-60580078D01*
X64945065Y-60598300D01*
X64945070Y-60598301D01*
X65150997Y-60618583D01*
X65151000Y-60618583D01*
X65151003Y-60618583D01*
X65356929Y-60598301D01*
X65356934Y-60598300D01*
X65356933Y-60598300D01*
X65554954Y-60538232D01*
X65737450Y-60440685D01*
X65897410Y-60309410D01*
X66028685Y-60149450D01*
X66126232Y-59966954D01*
X66186300Y-59768934D01*
X66186301Y-59768929D01*
X66206583Y-59563003D01*
X66635417Y-59563003D01*
X66655698Y-59768929D01*
X66655699Y-59768934D01*
X66715768Y-59966954D01*
X66813316Y-60149452D01*
X66944585Y-60309404D01*
X66944590Y-60309410D01*
X66944595Y-60309414D01*
X67104547Y-60440683D01*
X67104548Y-60440683D01*
X67104550Y-60440685D01*
X67287046Y-60538232D01*
X67424996Y-60580078D01*
X67485065Y-60598300D01*
X67485070Y-60598301D01*
X67690997Y-60618583D01*
X67691000Y-60618583D01*
X67691003Y-60618583D01*
X67896929Y-60598301D01*
X67896934Y-60598300D01*
X67896933Y-60598300D01*
X68094954Y-60538232D01*
X68277450Y-60440685D01*
X68437410Y-60309410D01*
X68568685Y-60149450D01*
X68666232Y-59966954D01*
X68726300Y-59768934D01*
X68726301Y-59768929D01*
X68746583Y-59563003D01*
X68746583Y-59562996D01*
X68726301Y-59357070D01*
X68726300Y-59357065D01*
X68708078Y-59296996D01*
X68666232Y-59159046D01*
X68568685Y-58976550D01*
X68437410Y-58816590D01*
X68437404Y-58816585D01*
X68277452Y-58685316D01*
X68094954Y-58587768D01*
X67896934Y-58527699D01*
X67896929Y-58527698D01*
X67691003Y-58507417D01*
X67690997Y-58507417D01*
X67485070Y-58527698D01*
X67485065Y-58527699D01*
X67287045Y-58587768D01*
X67104547Y-58685316D01*
X66944595Y-58816585D01*
X66944585Y-58816595D01*
X66813316Y-58976547D01*
X66715768Y-59159045D01*
X66655699Y-59357065D01*
X66655698Y-59357070D01*
X66635417Y-59562996D01*
X66635417Y-59563003D01*
X66206583Y-59563003D01*
X66206583Y-59562996D01*
X66186301Y-59357070D01*
X66186300Y-59357065D01*
X66168078Y-59296996D01*
X66126232Y-59159046D01*
X66028685Y-58976550D01*
X65897410Y-58816590D01*
X65897404Y-58816585D01*
X65737452Y-58685316D01*
X65554954Y-58587768D01*
X65356934Y-58527699D01*
X65356929Y-58527698D01*
X65151003Y-58507417D01*
X65150997Y-58507417D01*
X64945070Y-58527698D01*
X64945065Y-58527699D01*
X64747045Y-58587768D01*
X64564547Y-58685316D01*
X64404595Y-58816585D01*
X64404585Y-58816595D01*
X64273316Y-58976547D01*
X64175768Y-59159045D01*
X64115699Y-59357065D01*
X64115698Y-59357070D01*
X64095417Y-59562996D01*
X64095417Y-59563003D01*
X63754000Y-59563003D01*
X63754000Y-57023003D01*
X64095417Y-57023003D01*
X64115698Y-57228929D01*
X64115699Y-57228934D01*
X64175768Y-57426954D01*
X64273316Y-57609452D01*
X64404585Y-57769404D01*
X64404590Y-57769410D01*
X64404595Y-57769414D01*
X64564547Y-57900683D01*
X64564548Y-57900683D01*
X64564550Y-57900685D01*
X64747046Y-57998232D01*
X64884996Y-58040078D01*
X64945065Y-58058300D01*
X64945070Y-58058301D01*
X65150997Y-58078583D01*
X65151000Y-58078583D01*
X65151003Y-58078583D01*
X65356929Y-58058301D01*
X65356934Y-58058300D01*
X65356933Y-58058300D01*
X65554954Y-57998232D01*
X65737450Y-57900685D01*
X65897410Y-57769410D01*
X66028685Y-57609450D01*
X66126232Y-57426954D01*
X66186300Y-57228934D01*
X66186301Y-57228929D01*
X66206583Y-57023003D01*
X66635417Y-57023003D01*
X66655698Y-57228929D01*
X66655699Y-57228934D01*
X66715768Y-57426954D01*
X66813316Y-57609452D01*
X66944585Y-57769404D01*
X66944590Y-57769410D01*
X66944595Y-57769414D01*
X67104547Y-57900683D01*
X67104548Y-57900683D01*
X67104550Y-57900685D01*
X67287046Y-57998232D01*
X67424996Y-58040078D01*
X67485065Y-58058300D01*
X67485070Y-58058301D01*
X67690997Y-58078583D01*
X67691000Y-58078583D01*
X67691003Y-58078583D01*
X67896929Y-58058301D01*
X67896934Y-58058300D01*
X67896933Y-58058300D01*
X68094954Y-57998232D01*
X68277450Y-57900685D01*
X68437410Y-57769410D01*
X68568685Y-57609450D01*
X68666232Y-57426954D01*
X68726300Y-57228934D01*
X68726301Y-57228929D01*
X68746583Y-57023003D01*
X68746583Y-57022996D01*
X68726301Y-56817070D01*
X68726300Y-56817065D01*
X68708078Y-56756996D01*
X68666232Y-56619046D01*
X68568685Y-56436550D01*
X68437410Y-56276590D01*
X68437404Y-56276585D01*
X68277452Y-56145316D01*
X68094954Y-56047768D01*
X67896934Y-55987699D01*
X67896929Y-55987698D01*
X67691003Y-55967417D01*
X67690997Y-55967417D01*
X67485070Y-55987698D01*
X67485065Y-55987699D01*
X67287045Y-56047768D01*
X67104547Y-56145316D01*
X66944595Y-56276585D01*
X66944585Y-56276595D01*
X66813316Y-56436547D01*
X66715768Y-56619045D01*
X66655699Y-56817065D01*
X66655698Y-56817070D01*
X66635417Y-57022996D01*
X66635417Y-57023003D01*
X66206583Y-57023003D01*
X66206583Y-57022996D01*
X66186301Y-56817070D01*
X66186300Y-56817065D01*
X66168078Y-56756996D01*
X66126232Y-56619046D01*
X66028685Y-56436550D01*
X65897410Y-56276590D01*
X65897404Y-56276585D01*
X65737452Y-56145316D01*
X65554954Y-56047768D01*
X65356934Y-55987699D01*
X65356929Y-55987698D01*
X65151003Y-55967417D01*
X65150997Y-55967417D01*
X64945070Y-55987698D01*
X64945065Y-55987699D01*
X64747045Y-56047768D01*
X64564547Y-56145316D01*
X64404595Y-56276585D01*
X64404585Y-56276595D01*
X64273316Y-56436547D01*
X64175768Y-56619045D01*
X64115699Y-56817065D01*
X64115698Y-56817070D01*
X64095417Y-57022996D01*
X64095417Y-57023003D01*
X63754000Y-57023003D01*
X63754000Y-54483003D01*
X64095417Y-54483003D01*
X64115698Y-54688929D01*
X64115699Y-54688934D01*
X64175768Y-54886954D01*
X64273316Y-55069452D01*
X64404585Y-55229404D01*
X64404590Y-55229410D01*
X64404595Y-55229414D01*
X64564547Y-55360683D01*
X64564548Y-55360683D01*
X64564550Y-55360685D01*
X64747046Y-55458232D01*
X64884996Y-55500078D01*
X64945065Y-55518300D01*
X64945070Y-55518301D01*
X65150997Y-55538583D01*
X65151000Y-55538583D01*
X65151003Y-55538583D01*
X65356929Y-55518301D01*
X65356934Y-55518300D01*
X65356933Y-55518300D01*
X65554954Y-55458232D01*
X65737450Y-55360685D01*
X65897410Y-55229410D01*
X66028685Y-55069450D01*
X66126232Y-54886954D01*
X66186300Y-54688934D01*
X66186301Y-54688929D01*
X66206583Y-54483003D01*
X66635417Y-54483003D01*
X66655698Y-54688929D01*
X66655699Y-54688934D01*
X66715768Y-54886954D01*
X66813316Y-55069452D01*
X66944585Y-55229404D01*
X66944590Y-55229410D01*
X66944595Y-55229414D01*
X67104547Y-55360683D01*
X67104548Y-55360683D01*
X67104550Y-55360685D01*
X67287046Y-55458232D01*
X67424996Y-55500078D01*
X67485065Y-55518300D01*
X67485070Y-55518301D01*
X67690997Y-55538583D01*
X67691000Y-55538583D01*
X67691003Y-55538583D01*
X67896929Y-55518301D01*
X67896934Y-55518300D01*
X67896933Y-55518300D01*
X68094954Y-55458232D01*
X68277450Y-55360685D01*
X68437410Y-55229410D01*
X68568685Y-55069450D01*
X68666232Y-54886954D01*
X68726300Y-54688934D01*
X68726301Y-54688929D01*
X68746583Y-54483003D01*
X68746583Y-54482996D01*
X68726301Y-54277070D01*
X68726300Y-54277065D01*
X68708078Y-54216996D01*
X68666232Y-54079046D01*
X68568685Y-53896550D01*
X68561302Y-53887554D01*
X68437414Y-53736595D01*
X68437410Y-53736590D01*
X68425497Y-53726813D01*
X68277452Y-53605316D01*
X68094954Y-53507768D01*
X67896934Y-53447699D01*
X67896929Y-53447698D01*
X67691003Y-53427417D01*
X67690997Y-53427417D01*
X67485070Y-53447698D01*
X67485065Y-53447699D01*
X67287045Y-53507768D01*
X67104547Y-53605316D01*
X66944595Y-53736585D01*
X66944585Y-53736595D01*
X66813316Y-53896547D01*
X66715768Y-54079045D01*
X66655699Y-54277065D01*
X66655698Y-54277070D01*
X66635417Y-54482996D01*
X66635417Y-54483003D01*
X66206583Y-54483003D01*
X66206583Y-54482996D01*
X66186301Y-54277070D01*
X66186300Y-54277065D01*
X66168078Y-54216996D01*
X66126232Y-54079046D01*
X66028685Y-53896550D01*
X66021302Y-53887554D01*
X65897414Y-53736595D01*
X65897410Y-53736590D01*
X65885497Y-53726813D01*
X65737452Y-53605316D01*
X65554954Y-53507768D01*
X65356934Y-53447699D01*
X65356929Y-53447698D01*
X65151003Y-53427417D01*
X65150997Y-53427417D01*
X64945070Y-53447698D01*
X64945065Y-53447699D01*
X64747045Y-53507768D01*
X64564547Y-53605316D01*
X64404595Y-53736585D01*
X64404585Y-53736595D01*
X64273316Y-53896547D01*
X64175768Y-54079045D01*
X64115699Y-54277065D01*
X64115698Y-54277070D01*
X64095417Y-54482996D01*
X64095417Y-54483003D01*
X63754000Y-54483003D01*
X63754000Y-51943003D01*
X64095417Y-51943003D01*
X64115698Y-52148929D01*
X64115699Y-52148934D01*
X64175768Y-52346954D01*
X64273316Y-52529452D01*
X64384365Y-52664766D01*
X64404590Y-52689410D01*
X64404595Y-52689414D01*
X64564547Y-52820683D01*
X64564548Y-52820683D01*
X64564550Y-52820685D01*
X64747046Y-52918232D01*
X64884996Y-52960078D01*
X64945065Y-52978300D01*
X64945070Y-52978301D01*
X65150997Y-52998583D01*
X65151000Y-52998583D01*
X65151003Y-52998583D01*
X65356929Y-52978301D01*
X65356934Y-52978300D01*
X65356933Y-52978300D01*
X65554954Y-52918232D01*
X65737450Y-52820685D01*
X65897410Y-52689410D01*
X66028685Y-52529450D01*
X66126232Y-52346954D01*
X66186300Y-52148934D01*
X66186301Y-52148929D01*
X66206583Y-51943003D01*
X66635417Y-51943003D01*
X66655698Y-52148929D01*
X66655699Y-52148934D01*
X66715768Y-52346954D01*
X66813316Y-52529452D01*
X66924365Y-52664766D01*
X66944590Y-52689410D01*
X66944595Y-52689414D01*
X67104547Y-52820683D01*
X67104548Y-52820683D01*
X67104550Y-52820685D01*
X67287046Y-52918232D01*
X67424996Y-52960078D01*
X67485065Y-52978300D01*
X67485070Y-52978301D01*
X67690997Y-52998583D01*
X67691000Y-52998583D01*
X67691003Y-52998583D01*
X67896929Y-52978301D01*
X67896934Y-52978300D01*
X67896933Y-52978300D01*
X68094954Y-52918232D01*
X68277450Y-52820685D01*
X68437410Y-52689410D01*
X68568685Y-52529450D01*
X68666232Y-52346954D01*
X68666232Y-52346952D01*
X68666832Y-52345831D01*
X68710938Y-52303425D01*
X68754142Y-52293500D01*
X69816500Y-52293500D01*
X69874691Y-52312407D01*
X69910655Y-52361907D01*
X69915500Y-52392500D01*
X69915500Y-52462746D01*
X69915501Y-52462758D01*
X69927132Y-52521227D01*
X69927133Y-52521231D01*
X69927134Y-52521232D01*
X69938337Y-52537999D01*
X69954945Y-52596887D01*
X69938337Y-52648001D01*
X69927134Y-52664767D01*
X69927132Y-52664772D01*
X69915501Y-52723241D01*
X69915500Y-52723253D01*
X69915500Y-53656809D01*
X69896593Y-53715000D01*
X69886504Y-53726813D01*
X69127118Y-54486198D01*
X69111265Y-54499071D01*
X69101335Y-54505559D01*
X69101332Y-54505561D01*
X69080664Y-54532114D01*
X69076605Y-54536712D01*
X69073619Y-54539698D01*
X69060955Y-54557437D01*
X69029483Y-54597874D01*
X69025981Y-54604343D01*
X69022758Y-54610936D01*
X69008138Y-54660045D01*
X68991499Y-54708512D01*
X68990293Y-54715743D01*
X68989383Y-54723047D01*
X68991500Y-54774231D01*
X68991500Y-70184381D01*
X68989393Y-70204696D01*
X68986957Y-70216313D01*
X68991120Y-70249709D01*
X68991500Y-70255837D01*
X68991500Y-70260040D01*
X68992618Y-70266742D01*
X68995087Y-70281541D01*
X69001425Y-70332388D01*
X69003527Y-70339448D01*
X69005907Y-70346380D01*
X69030295Y-70391444D01*
X69052801Y-70437482D01*
X69057078Y-70443472D01*
X69061579Y-70449255D01*
X69099275Y-70483958D01*
X69349592Y-70734274D01*
X69377369Y-70788791D01*
X69377741Y-70817197D01*
X69371318Y-70865995D01*
X69371318Y-70866000D01*
X69391955Y-71022758D01*
X69391957Y-71022766D01*
X69452462Y-71168838D01*
X69452462Y-71168839D01*
X69548713Y-71294276D01*
X69548718Y-71294282D01*
X69674159Y-71390536D01*
X69820238Y-71451044D01*
X69937809Y-71466522D01*
X69976999Y-71471682D01*
X69977000Y-71471682D01*
X69977001Y-71471682D01*
X70008352Y-71467554D01*
X70133762Y-71451044D01*
X70279841Y-71390536D01*
X70405282Y-71294282D01*
X70501536Y-71168841D01*
X70562044Y-71022762D01*
X70582682Y-70866000D01*
X70562044Y-70709238D01*
X70541997Y-70660841D01*
X70501537Y-70563161D01*
X70501537Y-70563160D01*
X70405286Y-70437723D01*
X70405285Y-70437722D01*
X70405282Y-70437718D01*
X70405277Y-70437714D01*
X70405276Y-70437713D01*
X70286249Y-70346381D01*
X70279841Y-70341464D01*
X70279840Y-70341463D01*
X70279838Y-70341462D01*
X70133766Y-70280957D01*
X70133758Y-70280955D01*
X69977001Y-70260318D01*
X69976998Y-70260318D01*
X69928198Y-70266742D01*
X69868037Y-70255591D01*
X69845273Y-70238592D01*
X69721496Y-70114814D01*
X69693719Y-70060298D01*
X69692500Y-70044811D01*
X69692500Y-68707000D01*
X75213318Y-68707000D01*
X75233955Y-68863758D01*
X75233957Y-68863766D01*
X75294462Y-69009838D01*
X75294462Y-69009839D01*
X75294464Y-69009841D01*
X75390718Y-69135282D01*
X75390722Y-69135285D01*
X75390723Y-69135286D01*
X75392370Y-69136550D01*
X75516159Y-69231536D01*
X75662238Y-69292044D01*
X75779809Y-69307522D01*
X75818999Y-69312682D01*
X75819000Y-69312682D01*
X75930284Y-69298031D01*
X75990443Y-69309181D01*
X76013209Y-69326180D01*
X77211437Y-70524409D01*
X77219537Y-70535648D01*
X77220516Y-70534909D01*
X77226044Y-70542230D01*
X77261559Y-70574606D01*
X77263211Y-70576184D01*
X77277200Y-70590172D01*
X77277203Y-70590175D01*
X77279454Y-70591717D01*
X77280130Y-70592180D01*
X77285512Y-70596443D01*
X77301992Y-70611466D01*
X77309067Y-70617916D01*
X77318228Y-70621464D01*
X77338416Y-70632105D01*
X77346520Y-70637657D01*
X77377558Y-70644957D01*
X77384096Y-70646982D01*
X77413827Y-70658500D01*
X77423652Y-70658500D01*
X77446316Y-70661129D01*
X77455881Y-70663379D01*
X77487453Y-70658975D01*
X77494301Y-70658500D01*
X80704846Y-70658500D01*
X80763037Y-70677407D01*
X80783388Y-70697233D01*
X80845810Y-70778583D01*
X80851718Y-70786282D01*
X80977159Y-70882536D01*
X81123238Y-70943044D01*
X81240809Y-70958522D01*
X81279999Y-70963682D01*
X81280000Y-70963682D01*
X81280001Y-70963682D01*
X81311352Y-70959554D01*
X81436762Y-70943044D01*
X81582841Y-70882536D01*
X81708282Y-70786282D01*
X81804536Y-70660841D01*
X81865044Y-70514762D01*
X81885682Y-70358000D01*
X81865044Y-70201238D01*
X81829246Y-70114814D01*
X81804537Y-70055161D01*
X81804537Y-70055160D01*
X81708286Y-69929723D01*
X81708285Y-69929722D01*
X81708282Y-69929718D01*
X81708277Y-69929714D01*
X81708276Y-69929713D01*
X81582838Y-69833462D01*
X81436766Y-69772957D01*
X81436758Y-69772955D01*
X81280001Y-69752318D01*
X81279999Y-69752318D01*
X81123241Y-69772955D01*
X81123233Y-69772957D01*
X80977161Y-69833462D01*
X80977160Y-69833462D01*
X80851723Y-69929713D01*
X80851713Y-69929723D01*
X80783388Y-70018767D01*
X80732963Y-70053423D01*
X80704846Y-70057500D01*
X77635479Y-70057500D01*
X77577288Y-70038593D01*
X77565475Y-70028504D01*
X76438180Y-68901209D01*
X76410403Y-68846692D01*
X76410031Y-68818283D01*
X76424682Y-68707000D01*
X76424682Y-68706999D01*
X76404044Y-68550241D01*
X76404044Y-68550238D01*
X76343537Y-68404161D01*
X76343537Y-68404160D01*
X76247286Y-68278723D01*
X76247285Y-68278722D01*
X76247282Y-68278718D01*
X76247277Y-68278714D01*
X76247276Y-68278713D01*
X76168545Y-68218301D01*
X76121841Y-68182464D01*
X76121840Y-68182463D01*
X76121838Y-68182462D01*
X75975766Y-68121957D01*
X75975758Y-68121955D01*
X75819001Y-68101318D01*
X75818999Y-68101318D01*
X75662241Y-68121955D01*
X75662233Y-68121957D01*
X75516161Y-68182462D01*
X75516160Y-68182462D01*
X75390723Y-68278713D01*
X75390713Y-68278723D01*
X75294462Y-68404160D01*
X75294462Y-68404161D01*
X75233957Y-68550233D01*
X75233955Y-68550241D01*
X75213318Y-68706999D01*
X75213318Y-68707000D01*
X69692500Y-68707000D01*
X69692500Y-54953189D01*
X69711407Y-54894998D01*
X69721490Y-54883191D01*
X70234181Y-54370500D01*
X73777785Y-54370500D01*
X73796603Y-54573583D01*
X73852418Y-54769750D01*
X73943327Y-54952321D01*
X74066236Y-55115079D01*
X74216959Y-55252481D01*
X74390363Y-55359848D01*
X74580544Y-55433524D01*
X74781024Y-55471000D01*
X74984976Y-55471000D01*
X75185456Y-55433524D01*
X75375637Y-55359848D01*
X75549041Y-55252481D01*
X75699764Y-55115079D01*
X75822673Y-54952321D01*
X75913582Y-54769750D01*
X75969397Y-54573583D01*
X75988215Y-54370500D01*
X75969397Y-54167417D01*
X75913582Y-53971250D01*
X75822673Y-53788679D01*
X75699764Y-53625921D01*
X75549041Y-53488519D01*
X75375637Y-53381152D01*
X75185456Y-53307476D01*
X75185455Y-53307475D01*
X75185453Y-53307475D01*
X74984976Y-53270000D01*
X74781024Y-53270000D01*
X74580546Y-53307475D01*
X74510632Y-53334559D01*
X74390363Y-53381152D01*
X74216959Y-53488519D01*
X74066236Y-53625921D01*
X74026387Y-53678688D01*
X73943328Y-53788677D01*
X73943323Y-53788686D01*
X73852419Y-53971247D01*
X73852418Y-53971250D01*
X73796603Y-54167417D01*
X73777785Y-54370500D01*
X70234181Y-54370500D01*
X70632186Y-53972495D01*
X70686703Y-53944719D01*
X70702190Y-53943500D01*
X71635747Y-53943500D01*
X71635748Y-53943500D01*
X71694231Y-53931867D01*
X71760552Y-53887552D01*
X71804867Y-53821231D01*
X71816500Y-53762748D01*
X71816500Y-52723252D01*
X71804867Y-52664769D01*
X71793663Y-52648001D01*
X71777054Y-52589112D01*
X71793663Y-52537997D01*
X71804867Y-52521231D01*
X71816500Y-52462748D01*
X71816500Y-51423252D01*
X71804867Y-51364769D01*
X71760552Y-51298448D01*
X71760548Y-51298445D01*
X71694233Y-51254134D01*
X71694231Y-51254133D01*
X71694228Y-51254132D01*
X71694227Y-51254132D01*
X71635758Y-51242501D01*
X71635748Y-51242500D01*
X70096252Y-51242500D01*
X70096251Y-51242500D01*
X70096241Y-51242501D01*
X70037772Y-51254132D01*
X70037766Y-51254134D01*
X69971451Y-51298445D01*
X69971445Y-51298451D01*
X69927134Y-51364766D01*
X69927132Y-51364772D01*
X69915501Y-51423241D01*
X69915500Y-51423253D01*
X69915500Y-51493500D01*
X69896593Y-51551691D01*
X69847093Y-51587655D01*
X69816500Y-51592500D01*
X68754142Y-51592500D01*
X68695951Y-51573593D01*
X68666832Y-51540169D01*
X68641887Y-51493500D01*
X68568685Y-51356550D01*
X68437410Y-51196590D01*
X68287525Y-51073583D01*
X68277452Y-51065316D01*
X68094954Y-50967768D01*
X67896934Y-50907699D01*
X67896929Y-50907698D01*
X67691003Y-50887417D01*
X67690997Y-50887417D01*
X67485070Y-50907698D01*
X67485065Y-50907699D01*
X67287045Y-50967768D01*
X67104547Y-51065316D01*
X66944595Y-51196585D01*
X66944585Y-51196595D01*
X66813316Y-51356547D01*
X66715768Y-51539045D01*
X66655699Y-51737065D01*
X66655698Y-51737070D01*
X66635417Y-51942996D01*
X66635417Y-51943003D01*
X66206583Y-51943003D01*
X66206583Y-51942996D01*
X66186301Y-51737070D01*
X66186300Y-51737065D01*
X66149296Y-51615079D01*
X66126232Y-51539046D01*
X66028685Y-51356550D01*
X65897410Y-51196590D01*
X65747525Y-51073583D01*
X65737452Y-51065316D01*
X65554954Y-50967768D01*
X65356934Y-50907699D01*
X65356929Y-50907698D01*
X65151003Y-50887417D01*
X65150997Y-50887417D01*
X64945070Y-50907698D01*
X64945065Y-50907699D01*
X64747045Y-50967768D01*
X64564547Y-51065316D01*
X64404595Y-51196585D01*
X64404585Y-51196595D01*
X64273316Y-51356547D01*
X64175768Y-51539045D01*
X64115699Y-51737065D01*
X64115698Y-51737070D01*
X64095417Y-51942996D01*
X64095417Y-51943003D01*
X63754000Y-51943003D01*
X63754000Y-50870500D01*
X78777785Y-50870500D01*
X78796603Y-51073583D01*
X78852418Y-51269750D01*
X78943327Y-51452321D01*
X79066236Y-51615079D01*
X79216959Y-51752481D01*
X79390363Y-51859848D01*
X79580544Y-51933524D01*
X79781024Y-51971000D01*
X79984976Y-51971000D01*
X80185456Y-51933524D01*
X80375637Y-51859848D01*
X80549041Y-51752481D01*
X80699764Y-51615079D01*
X80822673Y-51452321D01*
X80913582Y-51269750D01*
X80969397Y-51073583D01*
X80988215Y-50870500D01*
X80969397Y-50667417D01*
X80913582Y-50471250D01*
X80822673Y-50288679D01*
X80699764Y-50125921D01*
X80549041Y-49988519D01*
X80375637Y-49881152D01*
X80185456Y-49807476D01*
X80185455Y-49807475D01*
X80185453Y-49807475D01*
X79984976Y-49770000D01*
X79781024Y-49770000D01*
X79580546Y-49807475D01*
X79510632Y-49834559D01*
X79390363Y-49881152D01*
X79216959Y-49988519D01*
X79066236Y-50125921D01*
X79048498Y-50149410D01*
X78943328Y-50288677D01*
X78943323Y-50288686D01*
X78858725Y-50458583D01*
X78852418Y-50471250D01*
X78796603Y-50667417D01*
X78777785Y-50870500D01*
X63754000Y-50870500D01*
X63754000Y-49403003D01*
X64095417Y-49403003D01*
X64115698Y-49608929D01*
X64115699Y-49608934D01*
X64175768Y-49806954D01*
X64273316Y-49989452D01*
X64385312Y-50125920D01*
X64404590Y-50149410D01*
X64404595Y-50149414D01*
X64564547Y-50280683D01*
X64564548Y-50280683D01*
X64564550Y-50280685D01*
X64747046Y-50378232D01*
X64884996Y-50420078D01*
X64945065Y-50438300D01*
X64945070Y-50438301D01*
X65150997Y-50458583D01*
X65151000Y-50458583D01*
X65151003Y-50458583D01*
X65356929Y-50438301D01*
X65356934Y-50438300D01*
X65356933Y-50438300D01*
X65554954Y-50378232D01*
X65737450Y-50280685D01*
X65897410Y-50149410D01*
X66028685Y-49989450D01*
X66126232Y-49806954D01*
X66186300Y-49608934D01*
X66186301Y-49608929D01*
X66206583Y-49403003D01*
X66635417Y-49403003D01*
X66655698Y-49608929D01*
X66655699Y-49608934D01*
X66715768Y-49806954D01*
X66813316Y-49989452D01*
X66925312Y-50125920D01*
X66944590Y-50149410D01*
X66944595Y-50149414D01*
X67104547Y-50280683D01*
X67104548Y-50280683D01*
X67104550Y-50280685D01*
X67287046Y-50378232D01*
X67424996Y-50420078D01*
X67485065Y-50438300D01*
X67485070Y-50438301D01*
X67690997Y-50458583D01*
X67691000Y-50458583D01*
X67691003Y-50458583D01*
X67896929Y-50438301D01*
X67896934Y-50438300D01*
X67896933Y-50438300D01*
X68094954Y-50378232D01*
X68277450Y-50280685D01*
X68437410Y-50149410D01*
X68568685Y-49989450D01*
X68666232Y-49806954D01*
X68726300Y-49608934D01*
X68726301Y-49608929D01*
X68746583Y-49403003D01*
X68746583Y-49402996D01*
X68726301Y-49197070D01*
X68726300Y-49197065D01*
X68708078Y-49136996D01*
X68666232Y-48999046D01*
X68568685Y-48816550D01*
X68437410Y-48656590D01*
X68437404Y-48656585D01*
X68277452Y-48525316D01*
X68094954Y-48427768D01*
X67896934Y-48367699D01*
X67896929Y-48367698D01*
X67691003Y-48347417D01*
X67690997Y-48347417D01*
X67485070Y-48367698D01*
X67485065Y-48367699D01*
X67287045Y-48427768D01*
X67104547Y-48525316D01*
X66944595Y-48656585D01*
X66944585Y-48656595D01*
X66813316Y-48816547D01*
X66715768Y-48999045D01*
X66655699Y-49197065D01*
X66655698Y-49197070D01*
X66635417Y-49402996D01*
X66635417Y-49403003D01*
X66206583Y-49403003D01*
X66206583Y-49402996D01*
X66186301Y-49197070D01*
X66186300Y-49197065D01*
X66168078Y-49136996D01*
X66126232Y-48999046D01*
X66028685Y-48816550D01*
X65897410Y-48656590D01*
X65897404Y-48656585D01*
X65737452Y-48525316D01*
X65554954Y-48427768D01*
X65356934Y-48367699D01*
X65356929Y-48367698D01*
X65151003Y-48347417D01*
X65150997Y-48347417D01*
X64945070Y-48367698D01*
X64945065Y-48367699D01*
X64747045Y-48427768D01*
X64564547Y-48525316D01*
X64404595Y-48656585D01*
X64404585Y-48656595D01*
X64273316Y-48816547D01*
X64175768Y-48999045D01*
X64115699Y-49197065D01*
X64115698Y-49197070D01*
X64095417Y-49402996D01*
X64095417Y-49403003D01*
X63754000Y-49403003D01*
X63754000Y-46863003D01*
X64095417Y-46863003D01*
X64115698Y-47068929D01*
X64115699Y-47068934D01*
X64175768Y-47266954D01*
X64273316Y-47449452D01*
X64382614Y-47582632D01*
X64404590Y-47609410D01*
X64404595Y-47609414D01*
X64564547Y-47740683D01*
X64564548Y-47740683D01*
X64564550Y-47740685D01*
X64747046Y-47838232D01*
X64884996Y-47880078D01*
X64945065Y-47898300D01*
X64945070Y-47898301D01*
X65150997Y-47918583D01*
X65151000Y-47918583D01*
X65151003Y-47918583D01*
X65356929Y-47898301D01*
X65356934Y-47898300D01*
X65369135Y-47894599D01*
X65554954Y-47838232D01*
X65737450Y-47740685D01*
X65897410Y-47609410D01*
X66028685Y-47449450D01*
X66126232Y-47266954D01*
X66186300Y-47068934D01*
X66186301Y-47068929D01*
X66206583Y-46863003D01*
X66635417Y-46863003D01*
X66655698Y-47068929D01*
X66655699Y-47068934D01*
X66715768Y-47266954D01*
X66813316Y-47449452D01*
X66922614Y-47582632D01*
X66944590Y-47609410D01*
X66944595Y-47609414D01*
X67104547Y-47740683D01*
X67104548Y-47740683D01*
X67104550Y-47740685D01*
X67287046Y-47838232D01*
X67424996Y-47880078D01*
X67485065Y-47898300D01*
X67485070Y-47898301D01*
X67690997Y-47918583D01*
X67691000Y-47918583D01*
X67691003Y-47918583D01*
X67896929Y-47898301D01*
X67896934Y-47898300D01*
X67909135Y-47894599D01*
X68094954Y-47838232D01*
X68277450Y-47740685D01*
X68437410Y-47609410D01*
X68568685Y-47449450D01*
X68610886Y-47370499D01*
X73677859Y-47370499D01*
X73698379Y-47591945D01*
X73759239Y-47805847D01*
X73858364Y-48004917D01*
X73858369Y-48004926D01*
X73934985Y-48106381D01*
X74362971Y-47678393D01*
X74455075Y-47798425D01*
X74575104Y-47890526D01*
X74144535Y-48321096D01*
X74156740Y-48332222D01*
X74345823Y-48449297D01*
X74553200Y-48529636D01*
X74771804Y-48570500D01*
X74994196Y-48570500D01*
X75212799Y-48529636D01*
X75420178Y-48449297D01*
X75420183Y-48449294D01*
X75609258Y-48332224D01*
X75609261Y-48332221D01*
X75621463Y-48321096D01*
X75190894Y-47890527D01*
X75310925Y-47798425D01*
X75403027Y-47678394D01*
X75831015Y-48106382D01*
X75907624Y-48004936D01*
X75907633Y-48004921D01*
X76006760Y-47805847D01*
X76067620Y-47591945D01*
X76088140Y-47370500D01*
X76067620Y-47149054D01*
X76006760Y-46935152D01*
X75907635Y-46736082D01*
X75907630Y-46736073D01*
X75831014Y-46634617D01*
X75403026Y-47062604D01*
X75310925Y-46942575D01*
X75190893Y-46850471D01*
X75621463Y-46419902D01*
X75609259Y-46408777D01*
X75420176Y-46291702D01*
X75212799Y-46211363D01*
X74994196Y-46170500D01*
X74771804Y-46170500D01*
X74553200Y-46211363D01*
X74345821Y-46291702D01*
X74345816Y-46291705D01*
X74156742Y-46408775D01*
X74156739Y-46408777D01*
X74144535Y-46419902D01*
X74575105Y-46850472D01*
X74455075Y-46942575D01*
X74362972Y-47062605D01*
X73934985Y-46634618D01*
X73858369Y-46736073D01*
X73858364Y-46736082D01*
X73759239Y-46935152D01*
X73698379Y-47149054D01*
X73677859Y-47370499D01*
X68610886Y-47370499D01*
X68666232Y-47266954D01*
X68726300Y-47068934D01*
X68726301Y-47068929D01*
X68746583Y-46863003D01*
X68746583Y-46862996D01*
X68726301Y-46657070D01*
X68726300Y-46657065D01*
X68708078Y-46596996D01*
X68666232Y-46459046D01*
X68568685Y-46276550D01*
X68437410Y-46116590D01*
X68437404Y-46116585D01*
X68277452Y-45985316D01*
X68094954Y-45887768D01*
X67896934Y-45827699D01*
X67896929Y-45827698D01*
X67691003Y-45807417D01*
X67690997Y-45807417D01*
X67485070Y-45827698D01*
X67485065Y-45827699D01*
X67287045Y-45887768D01*
X67104547Y-45985316D01*
X66944595Y-46116585D01*
X66944585Y-46116595D01*
X66813316Y-46276547D01*
X66715768Y-46459045D01*
X66655699Y-46657065D01*
X66655698Y-46657070D01*
X66635417Y-46862996D01*
X66635417Y-46863003D01*
X66206583Y-46863003D01*
X66206583Y-46862996D01*
X66186301Y-46657070D01*
X66186300Y-46657065D01*
X66168078Y-46596996D01*
X66126232Y-46459046D01*
X66028685Y-46276550D01*
X65897410Y-46116590D01*
X65897404Y-46116585D01*
X65737452Y-45985316D01*
X65554954Y-45887768D01*
X65356934Y-45827699D01*
X65356929Y-45827698D01*
X65151003Y-45807417D01*
X65150997Y-45807417D01*
X64945070Y-45827698D01*
X64945065Y-45827699D01*
X64747045Y-45887768D01*
X64564547Y-45985316D01*
X64404595Y-46116585D01*
X64404585Y-46116595D01*
X64273316Y-46276547D01*
X64175768Y-46459045D01*
X64115699Y-46657065D01*
X64115698Y-46657070D01*
X64095417Y-46862996D01*
X64095417Y-46863003D01*
X63754000Y-46863003D01*
X63754000Y-44323003D01*
X64095417Y-44323003D01*
X64115698Y-44528929D01*
X64115699Y-44528934D01*
X64175768Y-44726954D01*
X64273316Y-44909452D01*
X64323827Y-44971000D01*
X64404590Y-45069410D01*
X64404595Y-45069414D01*
X64564547Y-45200683D01*
X64564548Y-45200683D01*
X64564550Y-45200685D01*
X64747046Y-45298232D01*
X64884996Y-45340078D01*
X64945065Y-45358300D01*
X64945070Y-45358301D01*
X65150997Y-45378583D01*
X65151000Y-45378583D01*
X65151003Y-45378583D01*
X65356929Y-45358301D01*
X65356934Y-45358300D01*
X65356933Y-45358300D01*
X65554954Y-45298232D01*
X65737450Y-45200685D01*
X65897410Y-45069410D01*
X66028685Y-44909450D01*
X66126232Y-44726954D01*
X66186300Y-44528934D01*
X66186301Y-44528929D01*
X66206583Y-44323003D01*
X66635417Y-44323003D01*
X66655698Y-44528929D01*
X66655699Y-44528934D01*
X66715768Y-44726954D01*
X66813316Y-44909452D01*
X66863827Y-44971000D01*
X66944590Y-45069410D01*
X66944595Y-45069414D01*
X67104547Y-45200683D01*
X67104548Y-45200683D01*
X67104550Y-45200685D01*
X67287046Y-45298232D01*
X67424996Y-45340078D01*
X67485065Y-45358300D01*
X67485070Y-45358301D01*
X67690997Y-45378583D01*
X67691000Y-45378583D01*
X67691003Y-45378583D01*
X67896929Y-45358301D01*
X67896934Y-45358300D01*
X67896933Y-45358300D01*
X68094954Y-45298232D01*
X68277450Y-45200685D01*
X68437410Y-45069410D01*
X68568685Y-44909450D01*
X68632401Y-44790246D01*
X78782500Y-44790246D01*
X78782501Y-44790258D01*
X78794132Y-44848727D01*
X78794134Y-44848733D01*
X78834706Y-44909452D01*
X78838448Y-44915052D01*
X78904769Y-44959367D01*
X78949231Y-44968211D01*
X78963241Y-44970998D01*
X78963246Y-44970998D01*
X78963252Y-44971000D01*
X78963253Y-44971000D01*
X80802747Y-44971000D01*
X80802748Y-44971000D01*
X80861231Y-44959367D01*
X80927552Y-44915052D01*
X80971867Y-44848731D01*
X80983500Y-44790248D01*
X80983500Y-42950752D01*
X80971867Y-42892269D01*
X80927552Y-42825948D01*
X80927548Y-42825945D01*
X80861233Y-42781634D01*
X80861231Y-42781633D01*
X80861228Y-42781632D01*
X80861227Y-42781632D01*
X80802758Y-42770001D01*
X80802748Y-42770000D01*
X78963252Y-42770000D01*
X78963251Y-42770000D01*
X78963241Y-42770001D01*
X78904772Y-42781632D01*
X78904766Y-42781634D01*
X78838451Y-42825945D01*
X78838445Y-42825951D01*
X78794134Y-42892266D01*
X78794132Y-42892272D01*
X78782501Y-42950741D01*
X78782500Y-42950753D01*
X78782500Y-44790246D01*
X68632401Y-44790246D01*
X68666232Y-44726954D01*
X68726300Y-44528934D01*
X68726301Y-44528929D01*
X68746583Y-44323003D01*
X68746583Y-44322996D01*
X68726301Y-44117070D01*
X68726300Y-44117065D01*
X68708078Y-44056996D01*
X68666232Y-43919046D01*
X68568685Y-43736550D01*
X68437410Y-43576590D01*
X68437404Y-43576585D01*
X68277452Y-43445316D01*
X68094954Y-43347768D01*
X67896934Y-43287699D01*
X67896929Y-43287698D01*
X67691003Y-43267417D01*
X67690997Y-43267417D01*
X67485070Y-43287698D01*
X67485065Y-43287699D01*
X67287045Y-43347768D01*
X67104547Y-43445316D01*
X66944595Y-43576585D01*
X66944585Y-43576595D01*
X66813316Y-43736547D01*
X66715768Y-43919045D01*
X66655699Y-44117065D01*
X66655698Y-44117070D01*
X66635417Y-44322996D01*
X66635417Y-44323003D01*
X66206583Y-44323003D01*
X66206583Y-44322996D01*
X66186301Y-44117070D01*
X66186300Y-44117065D01*
X66168078Y-44056996D01*
X66126232Y-43919046D01*
X66028685Y-43736550D01*
X65897410Y-43576590D01*
X65897404Y-43576585D01*
X65737452Y-43445316D01*
X65554954Y-43347768D01*
X65356934Y-43287699D01*
X65356929Y-43287698D01*
X65151003Y-43267417D01*
X65150997Y-43267417D01*
X64945070Y-43287698D01*
X64945065Y-43287699D01*
X64747045Y-43347768D01*
X64564547Y-43445316D01*
X64404595Y-43576585D01*
X64404585Y-43576595D01*
X64273316Y-43736547D01*
X64175768Y-43919045D01*
X64115699Y-44117065D01*
X64115698Y-44117070D01*
X64095417Y-44322996D01*
X64095417Y-44323003D01*
X63754000Y-44323003D01*
X63754000Y-42652746D01*
X64100500Y-42652746D01*
X64100501Y-42652758D01*
X64112132Y-42711227D01*
X64112134Y-42711233D01*
X64156445Y-42777548D01*
X64156448Y-42777552D01*
X64222769Y-42821867D01*
X64267231Y-42830711D01*
X64281241Y-42833498D01*
X64281246Y-42833498D01*
X64281252Y-42833500D01*
X64281253Y-42833500D01*
X66020747Y-42833500D01*
X66020748Y-42833500D01*
X66079231Y-42821867D01*
X66145552Y-42777552D01*
X66189867Y-42711231D01*
X66201500Y-42652748D01*
X66201500Y-41933000D01*
X66549973Y-41933000D01*
X66555738Y-41995216D01*
X66614064Y-42200210D01*
X66709057Y-42390983D01*
X66709062Y-42390992D01*
X66837496Y-42561064D01*
X66837506Y-42561075D01*
X66994995Y-42704647D01*
X66994994Y-42704647D01*
X67176206Y-42816847D01*
X67374941Y-42893838D01*
X67540999Y-42924880D01*
X67541000Y-42924879D01*
X67541000Y-42264170D01*
X67548685Y-42267680D01*
X67655237Y-42283000D01*
X67726763Y-42283000D01*
X67833315Y-42267680D01*
X67841000Y-42264170D01*
X67841000Y-42924880D01*
X68007058Y-42893838D01*
X68205793Y-42816847D01*
X68387004Y-42704647D01*
X68544493Y-42561075D01*
X68544503Y-42561064D01*
X68672937Y-42390992D01*
X68672942Y-42390983D01*
X68767935Y-42200210D01*
X68826261Y-41995216D01*
X68832027Y-41933000D01*
X68168065Y-41933000D01*
X68191000Y-41854889D01*
X68191000Y-41711111D01*
X68168065Y-41633000D01*
X68832026Y-41633000D01*
X68826261Y-41570783D01*
X68767935Y-41365789D01*
X68672942Y-41175016D01*
X68672937Y-41175007D01*
X68544503Y-41004935D01*
X68544493Y-41004924D01*
X68387004Y-40861352D01*
X68387005Y-40861352D01*
X68205793Y-40749152D01*
X68007061Y-40672162D01*
X68007055Y-40672160D01*
X67841000Y-40641118D01*
X67841000Y-41301829D01*
X67833315Y-41298320D01*
X67726763Y-41283000D01*
X67655237Y-41283000D01*
X67548685Y-41298320D01*
X67541000Y-41301829D01*
X67541000Y-40641119D01*
X67540999Y-40641118D01*
X67374944Y-40672160D01*
X67374938Y-40672162D01*
X67176206Y-40749152D01*
X66994995Y-40861352D01*
X66837506Y-41004924D01*
X66837496Y-41004935D01*
X66709062Y-41175007D01*
X66709057Y-41175016D01*
X66614064Y-41365789D01*
X66555738Y-41570783D01*
X66549973Y-41633000D01*
X67213935Y-41633000D01*
X67191000Y-41711111D01*
X67191000Y-41854889D01*
X67213935Y-41933000D01*
X66549973Y-41933000D01*
X66201500Y-41933000D01*
X66201500Y-40913252D01*
X66189867Y-40854769D01*
X66145552Y-40788448D01*
X66145548Y-40788445D01*
X66079233Y-40744134D01*
X66079231Y-40744133D01*
X66079228Y-40744132D01*
X66079227Y-40744132D01*
X66020758Y-40732501D01*
X66020748Y-40732500D01*
X64281252Y-40732500D01*
X64281251Y-40732500D01*
X64281241Y-40732501D01*
X64222772Y-40744132D01*
X64222766Y-40744134D01*
X64156451Y-40788445D01*
X64156445Y-40788451D01*
X64112134Y-40854766D01*
X64112132Y-40854772D01*
X64100501Y-40913241D01*
X64100500Y-40913253D01*
X64100500Y-42652746D01*
X63754000Y-42652746D01*
X63754000Y-40485000D01*
X63772907Y-40426809D01*
X63822407Y-40390845D01*
X63853000Y-40386000D01*
X81943377Y-40386000D01*
X82001568Y-40404907D01*
G37*
%TD.AperFunction*%
%TD*%
M02*
