%TF.GenerationSoftware,KiCad,Pcbnew,7.0.6-0*%
%TF.CreationDate,2023-10-30T11:37:55+11:00*%
%TF.ProjectId,controllino-can,636f6e74-726f-46c6-9c69-6e6f2d63616e,rev?*%
%TF.SameCoordinates,Original*%
%TF.FileFunction,Legend,Top*%
%TF.FilePolarity,Positive*%
%FSLAX46Y46*%
G04 Gerber Fmt 4.6, Leading zero omitted, Abs format (unit mm)*
G04 Created by KiCad (PCBNEW 7.0.6-0) date 2023-10-30 11:37:55*
%MOMM*%
%LPD*%
G01*
G04 APERTURE LIST*
%ADD10C,0.125000*%
%ADD11C,0.150000*%
%ADD12C,0.120000*%
%ADD13C,0.127000*%
%ADD14C,0.200000*%
G04 APERTURE END LIST*
D10*
G36*
X70060691Y-56774007D02*
G01*
X70074917Y-56788234D01*
X70092357Y-56823112D01*
X70092357Y-56879315D01*
X70074918Y-56914191D01*
X70060690Y-56928420D01*
X70025816Y-56945857D01*
X69874500Y-56945857D01*
X69874500Y-56756571D01*
X70025817Y-56756571D01*
X70060691Y-56774007D01*
G37*
G36*
X71346405Y-56774007D02*
G01*
X71360631Y-56788234D01*
X71378071Y-56823112D01*
X71378071Y-56879315D01*
X71360632Y-56914191D01*
X71346404Y-56928420D01*
X71311530Y-56945857D01*
X71160214Y-56945857D01*
X71160214Y-56756571D01*
X71311531Y-56756571D01*
X71346405Y-56774007D01*
G37*
G36*
X71588785Y-57442285D02*
G01*
X69663786Y-57442285D01*
X69663786Y-57294071D01*
X69749500Y-57294071D01*
X69767806Y-57338265D01*
X69812000Y-57356571D01*
X69856194Y-57338265D01*
X69874500Y-57294071D01*
X69874500Y-57070857D01*
X70040571Y-57070857D01*
X70054009Y-57065290D01*
X70068522Y-57064259D01*
X70125665Y-57035687D01*
X70132405Y-57027915D01*
X70141908Y-57023979D01*
X70170479Y-56995409D01*
X70174415Y-56985905D01*
X70182187Y-56979165D01*
X70210758Y-56922022D01*
X70211789Y-56907511D01*
X70217357Y-56894071D01*
X70217357Y-56808357D01*
X70211789Y-56794916D01*
X70210758Y-56780406D01*
X70182187Y-56723263D01*
X70174416Y-56716523D01*
X70171112Y-56708547D01*
X70294057Y-56708547D01*
X70436914Y-57308547D01*
X70442393Y-57316118D01*
X70443625Y-57325386D01*
X70455898Y-57334780D01*
X70464958Y-57347299D01*
X70474185Y-57348778D01*
X70481610Y-57354461D01*
X70496932Y-57352424D01*
X70512190Y-57354871D01*
X70519761Y-57349391D01*
X70529029Y-57348160D01*
X70538423Y-57335886D01*
X70550942Y-57326827D01*
X70552421Y-57317599D01*
X70558104Y-57310175D01*
X70611999Y-57108066D01*
X70665895Y-57310175D01*
X70671577Y-57317599D01*
X70673057Y-57326827D01*
X70685575Y-57335886D01*
X70694970Y-57348160D01*
X70704236Y-57349391D01*
X70711809Y-57354871D01*
X70727068Y-57352424D01*
X70742389Y-57354460D01*
X70749811Y-57348778D01*
X70759041Y-57347299D01*
X70768101Y-57334778D01*
X70780374Y-57325385D01*
X70781605Y-57316119D01*
X70787085Y-57308547D01*
X70790532Y-57294071D01*
X71035214Y-57294071D01*
X71053520Y-57338265D01*
X71097714Y-57356571D01*
X71141908Y-57338265D01*
X71160214Y-57294071D01*
X71160214Y-57070857D01*
X71208030Y-57070857D01*
X71389369Y-57329912D01*
X71429709Y-57355619D01*
X71476412Y-57345273D01*
X71502119Y-57304932D01*
X71491773Y-57258229D01*
X71355537Y-57063608D01*
X71411379Y-57035687D01*
X71418119Y-57027915D01*
X71427622Y-57023979D01*
X71456193Y-56995409D01*
X71460129Y-56985905D01*
X71467901Y-56979165D01*
X71496472Y-56922022D01*
X71497503Y-56907511D01*
X71503071Y-56894071D01*
X71503071Y-56808357D01*
X71497503Y-56794916D01*
X71496472Y-56780406D01*
X71467901Y-56723263D01*
X71460130Y-56716523D01*
X71456194Y-56707020D01*
X71427623Y-56678449D01*
X71418119Y-56674512D01*
X71411379Y-56666740D01*
X71354235Y-56638169D01*
X71339725Y-56637138D01*
X71326285Y-56631571D01*
X71097714Y-56631571D01*
X71053520Y-56649877D01*
X71035214Y-56694071D01*
X71035214Y-57294071D01*
X70790532Y-57294071D01*
X70929943Y-56708547D01*
X70922372Y-56661315D01*
X70883619Y-56633270D01*
X70836387Y-56640842D01*
X70808343Y-56679594D01*
X70722855Y-57038641D01*
X70672390Y-56849396D01*
X70667211Y-56842630D01*
X70666089Y-56834185D01*
X70653189Y-56824310D01*
X70643315Y-56811411D01*
X70634869Y-56810288D01*
X70628104Y-56805110D01*
X70612000Y-56807249D01*
X70595896Y-56805110D01*
X70589129Y-56810288D01*
X70580686Y-56811411D01*
X70570812Y-56824309D01*
X70557911Y-56834185D01*
X70556788Y-56842630D01*
X70551610Y-56849396D01*
X70501144Y-57038641D01*
X70415657Y-56679595D01*
X70387613Y-56640843D01*
X70340381Y-56633271D01*
X70301629Y-56661315D01*
X70294057Y-56708547D01*
X70171112Y-56708547D01*
X70170480Y-56707020D01*
X70141909Y-56678449D01*
X70132405Y-56674512D01*
X70125665Y-56666740D01*
X70068521Y-56638169D01*
X70054011Y-56637138D01*
X70040571Y-56631571D01*
X69812000Y-56631571D01*
X69767806Y-56649877D01*
X69749500Y-56694071D01*
X69749500Y-57294071D01*
X69663786Y-57294071D01*
X69663786Y-56545857D01*
X71588785Y-56545857D01*
X71588785Y-57442285D01*
G37*
D11*
X68929286Y-47875819D02*
X68929286Y-46875819D01*
X68929286Y-47352009D02*
X69500714Y-47352009D01*
X69500714Y-47875819D02*
X69500714Y-46875819D01*
X69524523Y-51558819D02*
X69048333Y-51558819D01*
X69048333Y-51558819D02*
X69048333Y-50558819D01*
X69603904Y-53908438D02*
X69508666Y-53860819D01*
X69508666Y-53860819D02*
X69365809Y-53860819D01*
X69365809Y-53860819D02*
X69222952Y-53908438D01*
X69222952Y-53908438D02*
X69127714Y-54003676D01*
X69127714Y-54003676D02*
X69080095Y-54098914D01*
X69080095Y-54098914D02*
X69032476Y-54289390D01*
X69032476Y-54289390D02*
X69032476Y-54432247D01*
X69032476Y-54432247D02*
X69080095Y-54622723D01*
X69080095Y-54622723D02*
X69127714Y-54717961D01*
X69127714Y-54717961D02*
X69222952Y-54813200D01*
X69222952Y-54813200D02*
X69365809Y-54860819D01*
X69365809Y-54860819D02*
X69461047Y-54860819D01*
X69461047Y-54860819D02*
X69603904Y-54813200D01*
X69603904Y-54813200D02*
X69651523Y-54765580D01*
X69651523Y-54765580D02*
X69651523Y-54432247D01*
X69651523Y-54432247D02*
X69461047Y-54432247D01*
X78956819Y-66309904D02*
X79766342Y-66309904D01*
X79766342Y-66309904D02*
X79861580Y-66262285D01*
X79861580Y-66262285D02*
X79909200Y-66214666D01*
X79909200Y-66214666D02*
X79956819Y-66119428D01*
X79956819Y-66119428D02*
X79956819Y-65928952D01*
X79956819Y-65928952D02*
X79909200Y-65833714D01*
X79909200Y-65833714D02*
X79861580Y-65786095D01*
X79861580Y-65786095D02*
X79766342Y-65738476D01*
X79766342Y-65738476D02*
X78956819Y-65738476D01*
X79052057Y-65309904D02*
X79004438Y-65262285D01*
X79004438Y-65262285D02*
X78956819Y-65167047D01*
X78956819Y-65167047D02*
X78956819Y-64928952D01*
X78956819Y-64928952D02*
X79004438Y-64833714D01*
X79004438Y-64833714D02*
X79052057Y-64786095D01*
X79052057Y-64786095D02*
X79147295Y-64738476D01*
X79147295Y-64738476D02*
X79242533Y-64738476D01*
X79242533Y-64738476D02*
X79385390Y-64786095D01*
X79385390Y-64786095D02*
X79956819Y-65357523D01*
X79956819Y-65357523D02*
X79956819Y-64738476D01*
D12*
%TO.C,R6*%
X72036000Y-59933064D02*
X72036000Y-59478936D01*
X73506000Y-59933064D02*
X73506000Y-59478936D01*
%TO.C,U1*%
X76410000Y-69485000D02*
X76410000Y-65885000D01*
X76410000Y-69485000D02*
X76410000Y-71685000D01*
X69640000Y-69485000D02*
X69640000Y-67285000D01*
X69640000Y-69485000D02*
X69640000Y-71685000D01*
D13*
%TO.C,J5*%
X82183000Y-40620500D02*
X82183000Y-56120500D01*
X70183000Y-40620500D02*
X82183000Y-40620500D01*
X82183000Y-56120500D02*
X70183000Y-56120500D01*
X70183000Y-56120500D02*
X70183000Y-40620500D01*
D14*
X79983000Y-40070500D02*
G75*
G03*
X79983000Y-40070500I-100000J0D01*
G01*
D12*
%TO.C,R1*%
X79401936Y-59463000D02*
X79856064Y-59463000D01*
X79401936Y-60933000D02*
X79856064Y-60933000D01*
%TO.C,D3*%
X69652000Y-61185500D02*
X71572000Y-61185500D01*
X71572000Y-61185500D02*
X71572000Y-58500500D01*
X69652000Y-58500500D02*
X69652000Y-61185500D01*
%TO.C,R4*%
X77116000Y-71601064D02*
X77116000Y-71146936D01*
X78586000Y-71601064D02*
X78586000Y-71146936D01*
%TO.C,C8*%
X75665000Y-59444748D02*
X75665000Y-59967252D01*
X74195000Y-59444748D02*
X74195000Y-59967252D01*
%TO.C,C9*%
X69877000Y-63628752D02*
X69877000Y-63106248D01*
X71347000Y-63628752D02*
X71347000Y-63106248D01*
D13*
%TO.C,Y2*%
X74085500Y-62298500D02*
X73545500Y-62298500D01*
X73545500Y-64798500D02*
X74085500Y-64798500D01*
D14*
X76265500Y-62578500D02*
G75*
G03*
X76265500Y-62578500I-100000J0D01*
G01*
D12*
%TO.C,U2*%
X76942000Y-65548000D02*
X76942000Y-68998000D01*
X76942000Y-65548000D02*
X76942000Y-63598000D01*
X82062000Y-65548000D02*
X82062000Y-67498000D01*
X82062000Y-65548000D02*
X82062000Y-63598000D01*
%TD*%
M02*
