M48
; DRILL file {KiCad 7.0.6-0} date 2023 October 30, Monday 11:37:57
; FORMAT={-:-/ absolute / inch / decimal}
; #@! TF.CreationDate,2023-10-30T11:37:57+11:00
; #@! TF.GenerationSoftware,Kicad,Pcbnew,7.0.6-0
; #@! TF.FileFunction,Plated,1,2,PTH
FMAT,2
INCH
; #@! TA.AperFunction,Plated,PTH,ViaDrill
T1C0.0157
; #@! TA.AperFunction,Plated,PTH,ComponentDrill
T2C0.0394
; #@! TA.AperFunction,Plated,PTH,ComponentDrill
T3C0.0472
%
G90
G05
T1
X2.755Y-2.79
X2.95Y-2.73
X2.985Y-2.705
X3.135Y-2.305
X3.2Y-2.77
T2
X2.565Y-1.645
X2.565Y-1.745
X2.565Y-1.845
X2.565Y-1.945
X2.565Y-2.045
X2.565Y-2.145
X2.565Y-2.245
X2.565Y-2.345
X2.565Y-2.445
X2.565Y-2.545
X2.565Y-2.645
X2.565Y-2.745
X2.565Y-2.845
X2.665Y-1.645
X2.665Y-1.745
X2.665Y-1.845
X2.665Y-1.945
X2.665Y-2.045
X2.665Y-2.145
X2.665Y-2.245
X2.665Y-2.345
X2.665Y-2.445
X2.665Y-2.545
X2.665Y-2.645
X2.665Y-2.745
X2.665Y-2.845
T3
X2.9481Y-1.865
X2.9481Y-2.1406
X3.145Y-1.7272
X3.145Y-2.0028
T0
M30
